<svg width="16" height="17" viewBox="0 0 16 17" fill="none" xmlns="http://www.w3.org/2000/svg">
<g id="grade">
<path id="Vector" d="M7.31447 2.14555C7.6254 1.62889 8.37443 1.62889 8.68536 2.14555L10.239 4.72715C10.3507 4.91276 10.5329 5.04514 10.7439 5.09401L13.6793 5.77385C14.2667 5.9099 14.4982 6.62228 14.1029 7.07764L12.1278 9.35299C11.9858 9.51658 11.9162 9.73077 11.9349 9.94659L12.1954 12.9484C12.2475 13.5491 11.6416 13.9894 11.0863 13.7541L8.31199 12.5788C8.11252 12.4943 7.88731 12.4943 7.68784 12.5788L4.9135 13.7541C4.35827 13.9894 3.75229 13.5491 3.80443 12.9483L4.06494 9.94659C4.08367 9.73077 4.01408 9.51658 3.87207 9.35299L1.89692 7.07764C1.50163 6.62228 1.7331 5.9099 2.32055 5.77385L5.25589 5.09401C5.46694 5.04514 5.64914 4.91276 5.76084 4.72715L7.31447 2.14555Z" stroke="white"/>
</g>
</svg>
