<svg width="183" height="169" viewBox="0 0 183 199" fill="none" xmlns="http://www.w3.org/2000/svg">
<rect width="202.67" height="202.67" transform="translate(0.331665)" fill="white"/>
<path fill-rule="evenodd" clip-rule="evenodd" d="M18.9472 156.176C18.534 154.275 18.0808 152.383 17.6851 150.479C17.4937 149.558 17.3844 148.619 17.2542 147.686C17.0115 145.946 16.7716 144.206 16.5499 142.463C16.472 141.85 16.4161 141.23 16.4091 140.613C16.3522 135.612 16.2162 130.609 16.3035 125.611C16.344 123.296 16.824 120.988 17.1117 118.678C17.4903 115.64 18.2855 112.698 19.203 109.787C20.5234 105.597 21.8604 101.412 23.1931 97.2265C23.909 94.9777 24.6778 92.7443 25.3285 90.4769C25.6288 89.4306 25.7502 88.3245 25.8662 87.2363C25.9765 86.2019 26.0945 85.1438 25.9953 84.1168C25.8097 82.1953 25.4905 80.2854 25.1872 78.3769C24.9283 76.7479 24.6257 75.1254 24.3213 73.504C23.8485 70.9857 23.7089 68.4443 23.7597 65.8889C23.7998 63.8731 23.7376 61.8467 23.9271 59.8446C24.2009 56.9504 24.6175 54.0506 25.7601 51.3496C26.6343 49.283 27.6032 47.2412 28.7172 45.2956C29.8177 43.3735 31.1244 41.5658 32.3966 39.747C33.1726 38.6376 33.9948 37.5483 34.902 36.5458C36.2997 35.0013 37.7447 33.4935 39.2484 32.0523C41.5967 29.8016 44.2273 27.9044 47.023 26.2498C49.6614 24.6884 52.4538 23.4508 55.3862 22.5446C57.3934 21.9244 59.4179 21.3584 61.4154 20.7092C62.8446 20.2448 64.2144 19.5807 65.6605 19.1898C67.455 18.7047 69.2892 18.3322 71.1279 18.054C73.015 17.7684 74.9268 17.6388 76.8305 17.4722C78.2268 17.35 79.6263 17.2486 81.0266 17.1911C82.8914 17.1145 84.7583 17.0689 86.6246 17.0479C88.7383 17.0241 90.8532 17.0068 92.9661 17.054C94.5783 17.09 96.1899 17.2078 97.7986 17.331C99.9614 17.4966 102.123 17.6841 104.282 17.8971C105.88 18.0548 107.48 18.2231 109.067 18.4677C111.227 18.8008 113.382 19.1811 115.528 19.5955C118.556 20.1799 121.597 20.7227 124.591 21.4519C127.754 22.2222 130.917 23.053 133.888 24.4319C136.558 25.6717 139.234 26.9124 141.831 28.2951C144.198 29.5548 146.459 31.0123 148.774 32.369C149.662 32.8897 150.587 33.3496 151.469 33.8815C152.06 34.2381 152.655 34.617 153.16 35.0818C155.455 37.1933 157.729 39.328 159.989 41.477C161.079 42.5134 162.121 43.5999 163.185 44.6637C164.379 45.858 165.63 47.0015 166.753 48.2594C168.179 49.8561 169.487 51.5578 170.871 53.1922C172.733 55.3903 173.982 57.9541 175.332 60.4658C176.249 62.1709 176.82 64.0013 177.489 65.7964C177.947 67.0231 178.471 68.2587 178.68 69.537C178.999 71.4882 180.154 73.0381 180.847 74.8C181.558 76.6054 182.125 78.468 182.728 80.3144C183.244 81.8939 183.78 83.4707 184.2 85.0767C184.586 86.5551 184.834 88.0701 185.136 89.5704C185.368 90.7246 185.611 91.8774 185.809 93.0377C185.95 93.8606 186.021 94.6952 186.127 95.524C186.314 96.9782 186.516 98.4307 186.689 99.8865C186.804 100.858 186.908 101.833 186.969 102.81C187.044 104.038 187.072 105.269 187.116 106.499C187.166 107.87 187.303 109.245 187.24 110.611C187.093 113.831 181.793 126.773 179.654 129.949C178.413 131.79 177.217 133.662 175.945 135.481C174.277 137.863 172.571 140.22 170.848 142.563C168.785 145.368 166.711 148.167 164.591 150.929C163.59 152.234 162.492 153.468 161.396 154.697C160.479 155.725 159.56 156.761 158.54 157.681C156.549 159.478 154.496 161.206 152.452 162.942C149.757 165.23 146.8 167.165 143.745 168.907C141.251 170.328 138.612 171.524 135.955 172.618C131.947 174.269 127.876 175.764 123.817 177.288C120.716 178.453 117.614 179.622 114.473 180.675C111.818 181.565 109.127 182.369 106.414 183.064C104.118 183.653 101.773 184.066 99.4381 184.491C97.8028 184.788 96.1511 185.009 94.4994 185.2C92.8898 185.387 91.2714 185.502 89.6555 185.631C88.8046 185.698 87.9512 185.753 87.098 185.771C84.2657 185.83 81.4332 185.892 78.6005 185.908C77.2061 185.915 75.8078 185.868 74.4173 185.765C72.4651 185.619 70.5099 185.461 68.5719 185.193C66.3612 184.888 64.1698 184.445 61.9666 184.082C60.1537 183.783 58.3278 183.557 56.5222 183.22C53.4225 182.642 50.3194 182.069 47.2456 181.371C44.7854 180.812 42.3358 180.166 39.9364 179.389C36.119 178.154 32.5422 176.385 29.3125 173.982C28.2297 173.177 27.1588 172.316 26.248 171.327C24.0776 168.973 22.3324 166.316 21.071 163.287C20.1056 160.947 19.4697 158.58 18.9472 156.176Z" fill="#D2D4E6"/>
<path d="M110.317 161.307C110.034 162.793 109.921 164.271 109.425 165.606C108.781 167.339 107.291 168.386 105.569 168.919C103.679 169.504 101.732 169.914 99.7964 170.344C99.1537 170.487 98.4722 170.459 97.8078 170.5C95.4154 170.644 93.0224 170.778 90.6304 170.927C89.3252 171.009 88.0224 171.13 86.7169 171.203C85.4649 171.273 84.21 171.352 82.9578 171.333C82.6799 171.329 80.9429 171.58 78.5127 171.751C78.0407 171.784 78.7752 174.334 77.9267 174.601C76.0361 175.197 71.4056 175.029 70.5978 173.765C69.7899 172.501 70.0763 171.968 69.1807 171.603C64.8008 169.815 60.2893 169.398 58.9672 165.606C58.0873 163.083 59.7622 157.104 59.2751 152.514C58.0262 140.745 55.5424 127.612 55.4613 127.545C55.4695 127.536 52.8163 127.763 52.6187 126.79C50.1671 114.723 49.0491 98.8202 55.4613 94.8101C59.3224 92.3954 66.6774 89.9152 74.8314 87.8894C76.0165 87.5949 76.7161 85.8537 77.9267 85.5801C78.1974 85.5189 79.0259 83.9457 79.7365 82.3652C80.452 80.7739 81.0538 79.1751 82.5227 79.1052C85.5422 78.9615 90.751 75.094 94.2847 76.3009C97.5205 77.4059 99.1611 83.6267 100.411 82.8733C101.67 82.1141 102.785 83.4323 104.51 83.4323C116.857 83.4323 126.156 106.888 127.449 112.66C125.288 115.778 118.888 115.778 112.84 117.626C111.839 116.392 109.829 112.69 109.179 110.607C108.511 108.464 108.28 113.324 108.233 115.046C108.173 117.274 108.373 119.509 108.483 121.74C108.555 123.21 108.675 124.678 108.76 126.148C108.908 128.729 109.064 131.309 109.179 133.892C109.26 135.709 109.225 137.533 109.342 139.347C109.462 141.206 109.71 143.056 109.891 144.912C109.997 146.003 110.094 147.095 110.172 148.188C110.238 149.11 110.33 150.036 110.304 150.957C110.254 152.743 110.067 154.525 110.06 156.309C110.055 157.241 110.367 158.17 110.432 159.108C110.48 159.812 110.362 160.527 110.317 161.307Z" fill="white"/>
<path d="M130.06 50.0092C129.264 49.2551 128.777 48.3129 128.151 47.4744C128.133 47.4496 128.115 47.4237 128.102 47.3961C127.612 46.3331 127.134 45.2705 126.901 44.1086C126.765 43.4301 126.771 42.7688 126.874 42.0959C126.925 41.7612 126.947 41.4213 127.013 41.09C127.217 40.0734 127.713 39.188 128.295 38.3459C128.47 38.0927 128.671 37.857 128.841 37.6005C129.479 36.6403 130.38 36.0221 131.428 35.5914C132.111 35.3111 132.811 35.0748 133.479 34.7578C133.561 34.7188 133.652 34.6839 133.741 34.6754C134.845 34.5709 135.95 34.4624 137.056 34.3742C138.134 34.288 139.214 34.3119 140.294 34.3815C140.878 34.419 141.466 34.4353 142.048 34.4944C143.312 34.6227 144.533 34.908 145.706 35.4208C146.525 35.7791 147.352 36.1141 148.137 36.5475C149.04 37.0455 149.805 37.7068 150.53 38.4251C150.862 38.754 151.116 39.1394 151.343 39.5445C151.479 39.7864 151.599 40.0396 151.758 40.2655C152.68 41.579 152.879 43.0416 152.655 44.588C152.603 44.9526 152.486 45.3083 152.516 45.6838C152.334 46.433 152.157 47.1851 151.711 47.8338C151.36 48.3426 150.981 48.8275 150.508 49.2329C150.345 49.3735 150.18 49.515 150.032 49.6716C149.711 50.0112 149.32 50.2545 148.949 50.5302C148.15 51.1239 147.261 51.5431 146.381 51.984C146.272 52.0387 146.156 52.0824 146.038 52.1179C145.567 52.2614 145.094 52.3999 144.621 52.5393C144.089 52.6962 143.56 52.8627 143.023 53.0053C142.184 53.2289 141.313 53.2321 140.458 53.3456C140.338 53.3616 140.21 53.3528 140.089 53.3322C139.177 53.1773 138.252 53.1302 137.335 53.0158C137.183 52.9969 137.033 52.9573 136.882 52.9259C135.856 52.7122 134.823 52.5225 133.827 52.1828C133.577 52.0978 133.352 52.117 133.119 52.2535C132.854 52.4092 132.572 52.5367 132.295 52.6715C131.708 52.9561 131.198 53.3566 130.67 53.7301C130.52 53.836 130.363 53.9323 130.203 54.0232C130.079 54.0933 129.868 53.9879 129.836 53.8415C129.796 53.6619 129.756 53.4841 129.809 53.2952C130.106 52.2419 130.096 51.1644 130.06 50.0092Z" fill="white"/>
<path fill-rule="evenodd" clip-rule="evenodd" d="M78.328 84.7044C78.328 84.7044 79.6721 82.8641 80.1361 81.9048C80.6002 80.9456 81.0365 79.1052 81.0365 79.1052C81.0365 79.1052 90.6276 92.6852 89.11 92.862C86.0764 93.2154 78.328 84.7044 78.328 84.7044Z" fill="#E7EAEE"/>
<path d="M119.687 128.176C118.169 125.762 114.942 120.134 113.456 117.757C113.422 117.702 120.341 111.34 126.5 112.95C127.112 113.11 128.288 115.494 128.864 115.778C129.938 116.308 129.746 113.722 131.8 110.079C135.035 104.343 140.992 95.7766 143.331 90.6626C144.282 88.5842 143.61 86.9642 143.51 86.5103C143.138 84.8315 142.267 83.4619 141.01 82.3116C140.194 81.5655 140.161 79.9004 141.09 79.4416C141.776 79.1029 142.549 78.9956 143.331 79.3863C144.225 79.8325 145.114 80.2546 145.728 81.0864C145.811 81.1987 145.957 81.2647 146.073 81.3522C146.13 81.2105 146.192 81.0707 146.241 80.9267C146.736 79.4819 147.192 78.0221 147.734 76.5954C148.214 75.3346 148.745 74.088 149.348 72.8827C149.547 72.4854 150.048 71.9738 150.4 71.9818C150.919 71.9936 151.257 72.5534 151.335 73.1403C151.376 73.4515 151.42 73.7628 151.479 74.071C151.504 74.2065 151.57 74.3343 151.617 74.4656C151.711 74.3531 151.799 74.234 151.901 74.1295C152.208 73.8142 152.482 73.4421 152.843 73.2078C153.34 72.8859 153.906 73.2437 153.866 73.8622C153.811 74.7165 153.744 75.585 153.538 76.4114C153.167 77.8973 152.688 79.3561 152.26 80.8279C152.234 80.9155 152.259 81.0177 152.26 81.1131C152.357 81.0614 152.5 81.0342 152.542 80.954C152.811 80.4309 153.1 79.9116 153.304 79.362C153.635 78.4739 154.134 77.7132 154.857 77.1126C155.026 76.9729 155.299 76.9591 155.523 76.8874C155.588 77.0962 155.751 77.3313 155.702 77.5096C155.354 78.7989 155.054 80.1118 154.569 81.3512C153.348 84.4738 152.044 87.5641 150.762 90.6626C150.021 92.4533 149.161 94.2013 148.532 96.0297C147.891 97.8939 147.517 99.8484 146.935 101.735C146.318 103.736 145.607 105.708 144.913 107.684C143.858 110.687 142.909 113.736 141.675 116.665C140.711 118.954 139.456 121.133 138.194 123.28C137.248 124.889 136.165 126.435 134.988 127.883C134.296 128.733 133.314 129.353 132.438 130.046C131.036 131.155 129.443 131.863 127.7 132.262C125.694 132.722 123.913 132.364 122.415 130.9C121.508 130.014 120.62 129.108 119.687 128.176Z" fill="white"/>
<path fill-rule="evenodd" clip-rule="evenodd" d="M72.4856 68.6527C72.2923 69.0435 72.3049 69.3856 72.5568 69.7176C72.6697 69.8664 72.7917 70.0082 72.9137 70.15L72.9138 70.1501C73.0449 70.3024 73.1759 70.4547 73.2956 70.6156C73.4764 70.8585 73.6631 71.0984 73.8498 71.3383L73.8498 71.3383C74.3402 71.9682 74.8309 72.5986 75.2158 73.2876C75.7598 74.2613 76.3896 74.9793 77.5327 75.1855C77.9966 75.2692 78.1718 75.64 78.2274 76.1282C78.3047 76.8076 78.4312 77.4963 78.6568 78.1388C78.8182 78.5986 79.245 78.9033 79.7887 78.8445C80.0435 78.8169 80.2974 78.7738 80.551 78.7308C80.9415 78.6646 81.3314 78.5985 81.7232 78.5891C82.0986 78.5801 82.5856 78.6782 82.8381 78.9203C83.5125 79.5673 84.1335 80.2708 84.7539 80.9736L84.7539 80.9737L84.7542 80.974C84.8823 81.1191 85.0104 81.2642 85.1389 81.4088C85.1864 81.4622 85.2329 81.516 85.2792 81.5694L85.2794 81.5696C85.7325 82.0931 86.1535 82.5795 87.0538 82.2671C88.1227 81.8963 89.2469 81.7302 90.4066 81.8056C91.4701 81.8749 91.8855 81.5146 92.2127 80.4732C92.2463 80.3663 92.2748 80.2572 92.3032 80.1481C92.358 79.9374 92.4128 79.727 92.5046 79.5339C92.5394 79.4607 92.5738 79.3864 92.6084 79.3119C92.7974 78.9041 92.9907 78.4872 93.2823 78.1668C93.8091 77.5881 94.492 77.677 95.192 77.9253C95.9798 78.2047 96.3885 78.0333 96.7284 77.317C96.8722 77.0139 96.9198 77.0178 97.1829 77.2118C97.3957 77.3687 97.731 77.4413 98.0024 77.4212C98.6737 77.3715 99.346 77.2775 100.004 77.1369C100.242 77.0861 100.557 76.8979 100.638 76.6935C100.738 76.4435 100.838 76.1935 100.938 75.9435C101.502 74.534 102.068 73.1224 102.52 71.6764C103.255 69.3243 103.803 66.9161 103.802 64.4315C103.801 62.7672 103.752 61.1028 103.703 59.4386L103.703 59.4381C103.691 59.0164 103.678 58.5946 103.667 58.1729C103.661 57.9726 103.656 57.7722 103.652 57.5717C103.63 56.6588 103.608 55.7448 103.517 54.8386C103.351 53.2034 103.138 51.5728 102.925 49.9425L102.924 49.9381C102.889 49.6656 102.853 49.3931 102.818 49.1206C102.714 48.3174 102.592 47.5164 102.471 46.7155C102.431 46.4506 102.39 46.1858 102.351 45.9209L102.265 45.347C102.075 44.0737 101.886 42.8004 101.685 41.5288C101.677 41.4791 101.67 41.4277 101.663 41.3756C101.626 41.1109 101.587 40.8275 101.438 40.6485C101.304 40.4887 101.171 40.3285 101.038 40.1681L101.038 40.168C100.186 39.1417 99.3314 38.1126 98.381 37.1839C97.6354 36.4553 96.7367 35.8703 95.8541 35.2957L95.7394 35.221C93.3278 33.6498 90.6267 32.9424 87.7874 32.7558C87.0094 32.7046 86.2274 32.7164 85.4452 32.7282C84.9769 32.7353 84.5086 32.7424 84.0409 32.7359C83.6139 32.73 83.3827 32.866 83.1056 33.2385C82.738 33.7327 82.1885 34.1303 81.6461 34.4481C80.2914 35.2419 79.0992 36.1742 78.1836 37.4849C76.9808 39.2065 75.8789 40.9777 75.1587 42.9525C74.6032 44.4756 74.2189 46.0399 74.0863 47.6783C74.0435 48.2073 73.9369 48.7294 73.8302 49.2517C73.6238 50.2624 73.4171 51.2743 73.6722 52.34C73.7821 52.7992 73.846 53.2702 73.9099 53.7409C73.9848 54.2927 74.0597 54.844 74.2085 55.3753L74.2908 55.6683C74.7654 57.3559 75.2311 59.0118 75.1384 60.8279C75.0388 62.7799 74.3462 64.4854 73.5439 66.3331C73.4413 66.5598 73.3404 66.7874 73.2395 67.0149L73.2395 67.015C72.9957 67.5646 72.7519 68.1142 72.4856 68.6527ZM104.235 55.7997C104.236 55.8164 104.234 55.8346 104.232 55.8526V55.8526C104.229 55.8848 104.225 55.9165 104.239 55.9386C104.28 56.0071 104.329 56.0706 104.379 56.1342L104.379 56.1346C104.399 56.1595 104.418 56.1844 104.437 56.2096C104.458 56.1909 104.48 56.1729 104.502 56.1549L104.502 56.1549C104.549 56.116 104.596 56.0771 104.635 56.0307C104.743 55.8988 104.853 55.7675 104.962 55.6362C105.274 55.2627 105.585 54.8891 105.878 54.501C106.522 53.6449 107.153 52.7778 107.77 51.9019C108.134 51.3855 107.772 51.1715 107.34 51.1409C106.441 51.0771 105.68 51.457 104.908 51.9009C104.356 52.2181 103.95 52.4837 104.094 53.321L104.115 53.6814L104.115 53.6825C104.155 54.3882 104.195 55.0939 104.235 55.7997ZM73.4555 56.197C73.436 56.2287 73.4165 56.2605 73.4024 56.2911C73.018 56.1079 72.6616 55.889 72.3087 55.6723C71.9998 55.4827 71.6936 55.2947 71.3738 55.1337C70.6511 54.7699 70.3967 54.1091 70.1653 53.4524C69.8989 52.6966 70.4917 51.9747 71.2954 51.9801C71.3312 51.9804 71.3672 51.9805 71.4031 51.9806C71.6896 51.9816 71.9805 51.9827 72.2559 52.0431C72.7971 52.1617 72.8508 52.5812 72.9025 52.9853C72.9186 53.1107 72.9345 53.2346 72.9647 53.3477C73.1579 54.0709 73.2991 54.8084 73.4401 55.5452C73.4693 55.6976 73.4985 55.85 73.5281 56.0023C73.5394 56.0603 73.4974 56.1286 73.4555 56.197Z" fill="white"/>
<circle cx="99.2346" cy="64.5842" r="1.89159" fill="#F7821F"/>
<circle cx="79.508" cy="62.9629" r="1.89159" fill="#F7821F"/>
<path fill-rule="evenodd" clip-rule="evenodd" d="M88.4506 40.1703C89.5285 40.4018 90.6974 40.6828 91.7867 40.0913C92.1556 39.8909 92.5024 39.6443 92.8385 39.3913C93.0436 39.237 93.2281 39.0454 93.3893 38.8444C94.6687 37.2494 95.6129 37.4876 97.3747 38.529C99.6287 39.8613 102.239 43.7423 95.2505 43.7423C91.7306 43.7423 77.6715 41.8256 79.6345 39.9203C80.4368 39.1416 81.4878 38.6204 82.419 37.9726C82.7697 37.7286 83.1268 37.4843 83.4363 37.1928C83.8847 36.7705 84.1568 36.9935 84.4367 37.3817C84.8046 37.892 85.1887 38.3906 85.6012 38.9296C86.5715 39.3813 87.4715 39.96 88.4506 40.1703Z" fill="#E7EAEE"/>
<path fill-rule="evenodd" clip-rule="evenodd" d="M126.116 113.135C125.751 113.355 125.386 113.575 124.994 113.724C124.045 114.083 123.084 114.408 122.113 114.737L122.112 114.737L122.111 114.738L122.111 114.738C121.495 114.946 120.876 115.156 120.253 115.376C120.065 115.449 119.901 115.497 119.741 115.544L119.698 115.556L119.629 115.577C119.073 115.742 118.517 115.909 117.962 116.076L117.961 116.076L117.961 116.077L117.961 116.077L117.96 116.077L117.96 116.077L117.96 116.077L117.959 116.077L117.959 116.077L117.959 116.077L117.958 116.077L117.958 116.077L117.958 116.077L117.957 116.078L117.957 116.078C116.564 116.497 115.172 116.916 113.771 117.309C113.204 117.468 112.735 117.289 112.426 116.676C111.66 115.151 110.84 113.653 110.015 112.16C109.958 112.056 109.817 111.999 109.675 111.942C109.61 111.915 109.544 111.888 109.487 111.857C109.465 111.929 109.431 112.008 109.397 112.087C109.324 112.257 109.25 112.427 109.304 112.53C110.224 114.297 111.168 116.053 112.156 117.783C112.278 117.997 112.72 118.193 112.965 118.145C114.262 117.889 115.549 117.576 116.827 117.237C117.32 117.107 117.808 116.954 118.296 116.801L118.296 116.801L118.297 116.801L118.297 116.801L118.297 116.801L118.297 116.801L118.297 116.801L118.298 116.801L118.298 116.801L118.298 116.8L118.298 116.8L118.299 116.8L118.299 116.8L118.299 116.8L118.299 116.8C119.004 116.579 119.708 116.359 120.426 116.205C122.894 115.677 125.254 114.914 127.372 113.503C128.133 112.997 128.341 112.222 127.972 111.419C127.843 111.14 127.712 110.861 127.58 110.582L127.58 110.582L127.579 110.579L127.579 110.579C127.125 109.615 126.671 108.65 126.316 107.651C125.226 104.587 124 101.582 122.556 98.6716C121.642 96.8297 120.671 95.0118 119.64 93.2331C118.262 90.8567 116.819 88.4823 114.604 86.7914C113.065 85.617 111.418 84.511 109.666 83.7083C107.105 82.5351 104.293 82.2781 101.494 82.083C100.923 82.0431 100.322 81.8286 99.8165 81.5469C98.8039 80.9819 98.3924 79.9811 97.9782 78.9733L97.9782 78.9733L97.9781 78.9732C97.9328 78.8629 97.8874 78.7526 97.8412 78.6427C97.6369 78.1565 97.9658 78.0656 98.1729 78.0227C98.706 77.9124 99.2692 77.825 99.8052 77.8792C100.64 77.9635 101.1 77.5747 101.406 76.8824C102.158 75.184 102.816 73.4568 103.313 71.6594C104.001 69.1709 104.589 66.6826 104.526 64.0747C104.499 62.9443 104.505 61.8131 104.512 60.6819C104.515 60.0921 104.518 59.5023 104.517 58.9126C104.516 58.7517 104.497 58.5835 104.477 58.4157L104.477 58.4156C104.438 58.0782 104.399 57.743 104.517 57.4742C104.805 56.813 105.28 56.2197 105.74 55.6495C106.104 55.1985 106.484 54.7605 106.865 54.3225L106.865 54.3224L106.865 54.3223L106.865 54.3223L106.865 54.3222L106.865 54.3221L106.865 54.3221L106.865 54.322L106.865 54.3219L106.865 54.3219L106.865 54.3218L106.865 54.3217L106.865 54.3217L106.865 54.3216L106.865 54.3215C107.326 53.7911 107.786 53.2608 108.218 52.7075C108.565 52.2617 108.824 51.6938 108.474 51.1017C108.133 50.5235 107.584 50.2888 106.947 50.4325C106.838 50.4571 106.728 50.4803 106.618 50.5036L106.618 50.5037C105.817 50.6731 105.008 50.8443 104.443 51.5542C104.171 51.8952 104.014 51.8964 103.943 51.4018C103.891 51.0344 103.817 50.6701 103.742 50.3059C103.665 49.9286 103.588 49.5514 103.536 49.1708C103.471 48.7018 103.428 48.2299 103.385 47.758L103.385 47.7579L103.385 47.7579L103.385 47.7578L103.385 47.7577L103.385 47.7577L103.385 47.7576L103.384 47.7575L103.384 47.7574L103.384 47.7574L103.384 47.7573L103.384 47.7572L103.384 47.7571L103.384 47.7571L103.384 47.757C103.342 47.3007 103.3 46.8444 103.239 46.3907C103.153 45.7533 103.056 45.1173 102.959 44.4813C102.813 43.5186 102.666 42.556 102.558 41.589C102.493 41.0147 102.334 40.5548 101.949 40.1362C101.749 39.9191 101.546 39.704 101.343 39.4888C100.72 38.8293 100.097 38.169 99.5598 37.4455C98.0781 35.449 95.9739 34.402 93.7902 33.4523C92.3832 32.8404 90.9283 32.4027 89.3811 32.3144C88.7002 32.2756 88.0199 32.2271 87.3396 32.1786C86.6449 32.129 85.9502 32.0795 85.2548 32.0402C84.6829 32.0079 84.1012 31.9849 83.5364 32.056C83.2555 32.0914 82.9746 32.316 82.7429 32.5128C82.5141 32.7072 82.2964 32.9151 82.0788 33.1229C81.7984 33.3907 81.5182 33.6583 81.2147 33.8966C80.8947 34.1478 80.5558 34.3784 80.2174 34.6088C79.6617 34.9869 79.1072 35.3643 78.6395 35.8306C78.102 36.3666 77.6725 37.0126 77.2439 37.6574L77.2439 37.6574L77.2438 37.6575L77.2438 37.6575L77.2438 37.6576L77.2437 37.6576L77.2437 37.6577L77.2437 37.6577L77.2436 37.6578L77.2436 37.6578L77.2435 37.6579L77.2435 37.6579L77.2434 37.6581C77.0858 37.8952 76.9283 38.1321 76.7655 38.3634C75.5563 40.0814 74.6273 41.9382 74.1158 43.9822C73.7992 45.2473 73.5311 46.5251 73.265 47.8022L73.2228 48.0042C73.0276 48.9391 72.832 49.8762 72.709 50.8217L72.7036 50.8635C72.6064 51.6124 72.599 51.6693 71.8806 51.4036C71.1387 51.1293 70.4993 51.3146 69.977 51.8179C69.4638 52.3124 69.4073 52.9796 69.5857 53.652C70.1082 55.6215 71.6135 56.4461 73.413 56.9374C73.5701 56.9803 73.7435 57.1335 73.8184 57.2815C74.5942 58.8161 74.6278 60.4483 74.1367 62.0311C73.6846 63.4884 73.149 64.9198 72.6135 66.3513L72.6135 66.3513L72.6134 66.3513L72.6134 66.3514L72.6134 66.3514L72.6134 66.3514L72.6134 66.3515L72.6134 66.3515L72.6134 66.3515L72.6134 66.3516L72.6133 66.3516L72.6133 66.3517L72.6133 66.3517L72.6133 66.3517L72.6133 66.3518C72.3769 66.9835 72.1406 67.6152 71.9114 68.2491C71.6754 68.9019 71.546 69.5004 72.0867 70.1327C73.2495 71.4926 74.36 72.9001 75.1988 74.4953C75.5314 75.1278 76.0419 75.5832 76.7266 75.7207C77.3789 75.8516 77.4674 76.1741 77.5442 76.7861C77.6454 77.5927 77.9139 78.4404 78.3497 79.1162C78.488 79.3307 78.8611 79.3887 79.243 79.4481L79.243 79.4481L79.2431 79.4481C79.4452 79.4796 79.6498 79.5114 79.8233 79.567C79.9651 79.6124 80.1901 79.8014 80.1727 79.8783C80.1417 80.015 80.1115 80.1522 80.0813 80.2896C79.9366 80.9483 79.7912 81.6104 79.5467 82.2322C79.0114 83.5937 77.8726 84.4454 76.7674 85.2721C76.6164 85.3851 76.466 85.4976 76.3178 85.6109C74.3882 87.0861 72.0929 87.8962 69.7867 88.5953C68.7031 88.9237 67.6039 89.2001 66.5046 89.4765L66.5045 89.4766L66.5044 89.4766L66.5044 89.4766L66.5043 89.4766L66.5042 89.4766L66.5042 89.4767L66.5041 89.4767L66.504 89.4767L66.504 89.4767L66.5039 89.4768L66.5038 89.4768L66.5038 89.4768L66.5037 89.4768L66.5036 89.4768L66.5033 89.4769C65.7901 89.6563 65.0767 89.8357 64.3676 90.0293C63.9257 90.1499 63.489 90.2926 63.0526 90.4353L63.0523 90.4354L63.0523 90.4354L63.0522 90.4354C62.4049 90.6469 61.7581 90.8584 61.0955 90.9974C58.5501 91.5314 56.3047 92.6298 54.3326 94.3121C53.007 95.4428 52.2955 96.9633 51.58 98.4923L51.4756 98.7152C50.5086 100.776 49.6607 102.974 49.5412 105.204C49.5077 105.829 49.5555 106.459 49.6033 107.089C49.6275 107.407 49.6516 107.726 49.6653 108.044C49.6961 108.759 49.7224 109.475 49.7487 110.19C49.806 111.746 49.8633 113.302 49.9659 114.856C50.0231 115.722 50.1771 116.582 50.3309 117.442L50.3309 117.442C50.3751 117.688 50.4192 117.935 50.4611 118.182C50.5749 118.853 50.702 119.522 50.829 120.191L50.829 120.191C50.9138 120.637 50.9986 121.084 51.0795 121.531C51.1322 121.822 51.1888 122.113 51.2454 122.405C51.3977 123.188 51.55 123.972 51.6273 124.763C51.6984 125.49 51.6777 126.226 51.6571 126.961C51.651 127.179 51.6449 127.397 51.6411 127.614C51.6346 127.996 51.7015 128.306 52.1613 128.202C52.6157 128.1 53.0622 127.962 53.5085 127.824L53.511 127.823C53.6504 127.78 53.7899 127.737 53.9295 127.695C54.4032 127.552 54.6935 127.719 54.7545 128.206C54.815 128.688 54.8682 129.171 54.9215 129.654C55.0023 130.386 55.0831 131.119 55.189 131.848C55.4464 133.62 55.7296 135.389 56.035 137.154C56.5957 140.393 57.4039 143.575 58.4658 146.683C59.4098 149.447 60.4309 152.185 61.4619 154.918C62.0556 156.492 62.6908 158.05 63.3258 159.608C63.4881 160.007 63.6504 160.405 63.812 160.803C64.4668 162.418 65.1356 164.027 65.8054 165.635C65.9608 166.008 66.1144 166.382 66.268 166.756L66.2681 166.757C66.7185 167.853 67.1689 168.951 67.6661 170.026C68.0978 170.959 68.5884 171.866 69.0787 172.772L69.0789 172.772C69.2235 173.04 69.3682 173.307 69.5113 173.575C69.5558 173.658 69.6451 173.718 69.7345 173.777C69.776 173.804 69.8174 173.832 69.8544 173.862C69.8722 173.813 69.893 173.764 69.9137 173.715C69.9623 173.601 70.0109 173.487 70.022 173.369C70.0307 173.277 69.9785 173.176 69.9285 173.08C69.9153 173.055 69.9022 173.03 69.8905 173.005C69.7239 172.656 69.5515 172.309 69.3791 171.962L69.3787 171.961C69.0169 171.233 68.6552 170.505 68.3464 169.755C67.2766 167.158 66.2503 164.542 65.2277 161.925C64.7683 160.749 64.3191 159.569 63.8699 158.389C63.4277 157.228 62.9855 156.066 62.5335 154.908C62.2524 154.189 61.9553 153.474 61.6583 152.76L61.6582 152.76C61.1264 151.482 60.5948 150.204 60.1556 148.894C59.2233 146.115 58.3891 143.298 57.6338 140.465C57.2082 138.868 56.9157 137.235 56.6237 135.604L56.6236 135.603C56.5711 135.31 56.5187 135.017 56.4654 134.725C56.3182 133.915 56.2244 133.095 56.1307 132.276L56.1306 132.275C56.0986 131.996 56.0667 131.716 56.0325 131.437C55.8843 130.224 55.7446 129.009 55.6087 127.794C55.5634 127.389 55.7427 127.197 56.156 127.067C57.7382 126.566 59.3129 126.041 60.8876 125.516C61.4466 125.33 62.0057 125.144 62.5651 124.958C62.98 124.821 63.4218 124.689 63.8759 124.554L63.8768 124.554L63.8776 124.553L63.8782 124.553L63.8787 124.553L63.8791 124.553C65.5647 124.05 67.42 123.497 68.7029 122.418C68.7773 122.355 68.9717 122.32 69.0183 122.365C69.1021 122.448 69.1613 122.604 69.1525 122.724C69.1082 123.323 69.0545 123.921 69.0007 124.52L69.0007 124.52L69.0007 124.52L69.0007 124.52L69.0007 124.52L69.0007 124.52L69.0007 124.52L69.0007 124.52L69.0007 124.52L69.0007 124.52L69.0007 124.52L69.0007 124.52L69.0007 124.521L69.0007 124.521L69.0007 124.521C68.8946 125.701 68.7886 126.882 68.7554 128.065C68.7133 129.565 68.7853 131.07 68.8572 132.573C68.8667 132.771 68.8762 132.969 68.8854 133.168C68.9297 134.121 69.0009 135.082 69.1718 136.019C69.6069 138.403 70.5097 140.634 71.5698 142.801C71.7239 143.116 71.9071 143.419 72.0901 143.722L72.0902 143.722C72.3639 144.174 72.6369 144.626 72.8106 145.115C73.0762 145.861 73.3569 146.603 73.6376 147.345L73.6377 147.345C74.4086 149.382 75.1797 151.42 75.6375 153.563C75.7815 154.238 75.9497 154.907 76.1178 155.576L76.1178 155.576C76.3044 156.318 76.491 157.061 76.6445 157.81C76.8814 158.966 77.0658 160.132 77.2502 161.298C77.2927 161.567 77.3351 161.836 77.3782 162.104C77.4309 162.432 77.4897 162.76 77.5485 163.088L77.5485 163.089C77.7081 163.979 77.8679 164.871 77.9063 165.767C77.9829 167.551 78.0072 169.336 78.0315 171.122C78.0445 172.075 78.0575 173.028 78.0784 173.981C78.0815 174.123 78.1419 174.264 78.2023 174.405C78.2303 174.47 78.2584 174.536 78.2807 174.601C78.3181 174.535 78.3646 174.469 78.411 174.404C78.5116 174.261 78.6121 174.119 78.6206 173.972C78.6673 173.168 78.6947 172.363 78.7221 171.558L78.7222 171.558L78.7222 171.558L78.7222 171.558L78.7222 171.558L78.7222 171.558L78.7222 171.557L78.7222 171.557L78.7222 171.557L78.7222 171.557L78.7222 171.557L78.7222 171.557L78.7222 171.557L78.7222 171.557L78.7222 171.556L78.7222 171.556C78.7399 171.038 78.7575 170.519 78.7804 170.001C78.7913 169.753 78.817 169.506 78.8427 169.259C78.8813 168.889 78.9198 168.519 78.9082 168.15C78.896 167.764 78.885 167.377 78.874 166.99C78.8237 165.222 78.7733 163.451 78.6072 161.693C78.4958 160.514 78.2164 159.347 77.9384 158.186L77.9384 158.186L77.9381 158.185C77.8848 157.963 77.8316 157.74 77.7795 157.518C77.6548 156.985 77.533 156.45 77.4112 155.916L77.4111 155.916C76.9792 154.021 76.547 152.125 75.9795 150.271C75.0473 147.226 73.782 144.304 72.3284 141.46C71.6676 140.167 71.1138 138.787 70.7427 137.385C70.0141 134.632 69.951 131.787 69.8882 128.958L69.8823 128.692C69.8531 127.39 69.9067 126.086 69.9602 124.782L69.9602 124.782L69.9602 124.782L69.9602 124.782L69.9602 124.782L69.9602 124.781L69.9602 124.781L69.9602 124.781L69.9602 124.781L69.9602 124.781L69.9603 124.781L69.9603 124.781L69.9603 124.781L69.9603 124.78L69.9603 124.78C69.9785 124.336 69.9968 123.891 70.0117 123.447C70.0314 122.863 70.0763 122.28 70.1211 121.697C70.1309 121.569 70.1407 121.441 70.1503 121.313C70.1938 120.733 70.2468 120.152 70.2999 119.572L70.2999 119.572L70.2999 119.572L70.2999 119.572L70.2999 119.571L70.2999 119.571L70.2999 119.571L70.2999 119.571L70.2999 119.571L70.2999 119.571L70.2999 119.571L70.2999 119.571L70.2999 119.571L70.2999 119.571L70.2999 119.571C70.4159 118.301 70.5319 117.032 70.5477 115.761C70.5605 114.739 70.4941 113.716 70.4278 112.693C70.3728 111.846 70.3178 110.998 70.3077 110.15C70.2935 108.954 69.9482 107.848 69.6027 106.742C69.4931 106.391 69.3835 106.04 69.2845 105.686C69.2464 105.55 69.1057 105.442 68.965 105.335C68.8998 105.286 68.8346 105.236 68.7796 105.183C68.7582 105.26 68.7272 105.339 68.6963 105.417C68.6288 105.589 68.5613 105.761 68.5921 105.913C68.6539 106.217 68.7461 106.517 68.8382 106.816C68.967 107.235 69.0955 107.653 69.1399 108.08C69.3388 109.996 69.5273 111.92 69.5581 113.843C69.571 114.648 69.5082 115.455 69.4454 116.261C69.3753 117.161 69.3052 118.061 69.3405 118.957C69.3908 120.235 68.7387 120.915 67.8656 121.563C66.7171 122.416 65.0766 122.909 63.6039 123.352L63.603 123.352L63.6017 123.352C63.2123 123.47 62.8346 123.583 62.4808 123.699C60.2797 124.419 58.0918 125.179 55.9038 125.939L55.9036 125.939L55.9035 125.939L55.9034 125.939L55.9032 125.94L55.9031 125.94L55.9029 125.94L55.9028 125.94L55.9026 125.94L55.9025 125.94L55.9024 125.94L55.9022 125.94L55.9021 125.94L55.9019 125.94L55.9018 125.94C54.9988 126.254 54.0957 126.568 53.1918 126.878L53.1765 126.884C52.8742 126.988 52.6248 127.074 52.6252 126.558C52.6257 125.929 52.5605 125.298 52.4956 124.67L52.4921 124.637C52.4551 124.279 52.4189 123.922 52.3827 123.565C52.2427 122.184 52.1028 120.802 51.9207 119.427C51.8094 118.587 51.6743 117.749 51.5393 116.912L51.5392 116.912C51.3778 115.912 51.2164 114.911 51.0957 113.906C50.9261 112.493 50.8254 111.063 50.8139 109.64C50.8023 108.199 50.8467 106.757 50.891 105.315C50.9084 104.749 50.9259 104.183 50.9399 103.618C50.9775 102.099 51.7231 100.706 52.4501 99.3479C52.7221 98.8396 52.9915 98.3362 53.2203 97.8328C54.3808 95.2799 56.5659 93.8723 59.0255 92.8779C60.2076 92.4 61.4407 92.0469 62.6731 91.694L62.6733 91.694L62.6737 91.6939L62.6741 91.6937C63.1266 91.5642 63.579 91.4346 64.0287 91.299C65.0367 90.9949 66.0472 90.6987 67.0577 90.4025L67.0584 90.4023C69.0524 89.8179 71.0463 89.2335 73.0204 88.5883C74.7811 88.0129 76.4577 87.1886 77.8444 85.9127C78.2243 85.5632 78.4112 85.6252 78.7462 85.9454C79.84 86.9909 80.9599 88.0094 82.0796 89.0276L82.2723 89.2029C84.1813 90.9392 86.306 92.3589 88.6684 93.3943C89.0184 93.5477 89.5916 93.5263 89.9169 93.3371C90.6504 92.9104 91.3365 92.4001 92.0211 91.8908C92.1622 91.7859 92.3032 91.681 92.4445 91.5769C92.7287 91.3676 93.0134 91.1589 93.298 90.9501C94.4811 90.0825 95.6645 89.2148 96.8151 88.3058C98.0374 87.3403 98.9121 86.0681 99.7836 84.8004L99.7839 84.8L99.7842 84.7997C99.9234 84.5971 100.063 84.3947 100.203 84.1937C100.258 84.1147 100.063 83.7073 99.9385 83.682C99.4486 83.5828 99.2237 83.902 98.9879 84.2366C98.9431 84.3003 98.8978 84.3645 98.8503 84.4265C98.6549 84.6813 98.4643 84.9429 98.2734 85.205L98.2733 85.2051L98.2732 85.2052L98.2732 85.2053L98.2731 85.2054L98.273 85.2055L98.273 85.2056L98.2729 85.2057L98.2728 85.2058L98.2728 85.2059L98.2727 85.2059L98.2726 85.206L98.2726 85.2061L98.2725 85.2062L98.2724 85.2063C97.6798 86.0197 97.084 86.8375 96.3351 87.4689C95.1399 88.4765 93.8846 89.4122 92.6289 90.3482L92.6288 90.3483C91.7361 91.0137 90.8432 91.6792 89.9716 92.3709C89.4291 92.8013 89.0299 92.7698 88.5056 92.4739L88.2853 92.3498L88.1609 92.2799C86.9379 91.593 85.725 90.9117 84.6669 89.9394C83.3073 88.69 81.8803 87.5135 80.4537 86.3373L80.4536 86.3372L80.4536 86.3372L80.4536 86.3372L80.4535 86.3371L80.4535 86.3371L80.4534 86.3371L80.4534 86.337L80.4533 86.337L80.4533 86.337L80.4532 86.3369L80.4532 86.3369L80.4531 86.3369L80.453 86.3367L80.4529 86.3367L80.452 86.3359L80.4511 86.3352L80.4508 86.3349L80.4506 86.3347L80.4503 86.3345L80.45 86.3343L80.4498 86.3341L80.4495 86.3339L80.4493 86.3336L80.449 86.3334L80.4488 86.3332L80.4485 86.333L80.4482 86.3328L80.448 86.3326C80.0416 85.9976 79.6353 85.6626 79.2306 85.326C78.8538 85.0125 78.9215 84.8187 79.2456 84.5224C80.3314 83.5291 80.9139 82.3004 81.0719 80.8177C81.0815 80.7273 81.0847 80.6278 81.0881 80.5244C81.1032 80.057 81.1209 79.5108 81.7462 79.365C82.3472 79.2248 82.7954 79.6176 83.1541 80.053C83.3839 80.3318 83.6031 80.6194 83.8224 80.907L83.8225 80.9072L83.8227 80.9074L83.8228 80.9076L83.8229 80.9077L83.8231 80.9079L83.8232 80.9081L83.8233 80.9082L83.8235 80.9084L83.8236 80.9086L83.8237 80.9088L83.8239 80.9089L83.824 80.9091L83.8242 80.9093L83.8243 80.9094C84.0978 81.2682 84.3713 81.6268 84.6648 81.9684L84.7199 82.0327C85.281 82.6872 85.8989 83.4081 86.8743 83.0708C88.2379 82.5993 89.6144 82.5115 91.0316 82.4948C91.4345 82.4901 91.994 82.1888 92.2006 81.8514C92.5419 81.2938 92.7941 80.6815 93.0462 80.0694L93.0463 80.0693L93.0463 80.0693L93.0463 80.0692L93.0463 80.0692L93.0464 80.0691L93.0464 80.0691L93.0464 80.069L93.0464 80.069L93.0464 80.0689L93.0465 80.0689L93.0465 80.0689L93.0465 80.0688L93.0465 80.0688L93.0466 80.0687L93.0466 80.0687L93.0466 80.0686L93.0466 80.0686L93.0466 80.0685L93.0467 80.0685L93.0467 80.0684L93.0467 80.0684L93.0467 80.0683L93.0468 80.0683L93.0468 80.0683L93.0468 80.0682L93.0468 80.0682L93.0469 80.0681C93.1443 79.8315 93.2417 79.5949 93.3443 79.3615C93.706 78.5387 94.0822 78.2312 94.9879 78.561C95.3814 78.7043 95.9023 78.8184 96.2584 78.6768C96.9635 78.3963 97.0969 78.7363 97.2947 79.2406L97.3191 79.3028C97.781 80.4725 98.2508 81.6456 99.3653 82.4084C100.1 82.9114 100.932 83.0506 101.764 83.1899C101.841 83.2028 101.919 83.2158 101.996 83.229C102.72 83.353 103.447 83.4643 104.173 83.5755L104.173 83.5755C105.217 83.7354 106.262 83.8953 107.299 84.0933C110.001 84.609 112.316 85.9967 114.301 87.7923C115.687 89.0466 116.807 90.626 117.898 92.1662L117.93 92.2106C118.723 93.3291 119.367 94.558 120.008 95.7794L120.009 95.7812L120.01 95.7831L120.011 95.7849L120.177 96.1008L120.23 96.2015C120.429 96.5798 120.63 96.9575 120.831 97.3353L120.831 97.3355L120.831 97.3357L120.831 97.3359L120.831 97.336L120.832 97.3362L120.832 97.3364L120.832 97.3366L120.832 97.3368L120.832 97.337L120.832 97.3371L120.832 97.3373L120.832 97.3375L120.832 97.3377L120.832 97.3379C121.75 99.063 122.668 100.79 123.446 102.577C124.346 104.646 125.168 106.75 125.989 108.854C126.387 109.875 126.786 110.897 127.194 111.914C127.33 112.255 127.374 112.471 126.96 112.666C126.67 112.802 126.393 112.969 126.116 113.135ZM73.2395 67.0149C73.3404 66.7874 73.4413 66.5599 73.5438 66.3331C74.3462 64.4854 75.0388 62.7799 75.1384 60.8279C75.2311 59.0118 74.7653 57.3559 74.2907 55.6683L74.2084 55.3753C74.0597 54.844 73.9848 54.2927 73.9099 53.7409V53.7409C73.846 53.2702 73.782 52.7992 73.6721 52.34C73.417 51.2743 73.6237 50.2624 73.8302 49.2517C73.9369 48.7294 74.0435 48.2073 74.0863 47.6783C74.2188 46.0399 74.6031 44.4756 75.1586 42.9525C75.8788 40.9778 76.9808 39.2065 78.1835 37.4849C79.0992 36.1743 80.2913 35.2419 81.6461 34.4481C82.1885 34.1303 82.7379 33.7327 83.1056 33.2385C83.3827 32.866 83.6139 32.73 84.0408 32.7359C84.5085 32.7424 84.9769 32.7353 85.4452 32.7282C86.2274 32.7164 87.0093 32.7047 87.7874 32.7558C90.6267 32.9424 93.3278 33.6498 95.7394 35.221L95.8541 35.2957L95.8541 35.2957C96.7366 35.8703 97.6353 36.4554 98.381 37.1839C99.3314 38.1126 100.186 39.1417 101.038 40.1679L101.038 40.168L101.038 40.168L101.038 40.1682C101.171 40.3285 101.304 40.4888 101.438 40.6486C101.587 40.8275 101.626 41.111 101.663 41.3756C101.67 41.4277 101.677 41.4791 101.685 41.5288C101.886 42.8003 102.075 44.0735 102.265 45.3466L102.265 45.3474L102.351 45.9209C102.39 46.1856 102.43 46.4503 102.471 46.715L102.471 46.7157C102.592 47.5166 102.714 48.3175 102.818 49.1206C102.853 49.3931 102.889 49.6656 102.924 49.9381L102.925 49.9425C103.138 51.5728 103.351 53.2034 103.517 54.8386C103.608 55.7449 103.63 56.6588 103.652 57.5717C103.656 57.7722 103.661 57.9726 103.667 58.1729C103.678 58.593 103.691 59.0131 103.703 59.4332L103.703 59.4339L103.703 59.4345L103.703 59.4351L103.703 59.4358L103.703 59.4364L103.703 59.437L103.703 59.4377L103.703 59.4383L103.703 59.4388V59.439V59.4391V59.4393V59.4394V59.4396V59.4397V59.4398V59.44V59.4401V59.4403V59.4404V59.4406V59.4407C103.752 61.1042 103.801 62.7679 103.802 64.4316C103.803 66.9161 103.255 69.3243 102.52 71.6764C102.068 73.1225 101.502 74.534 100.938 75.9436C100.838 76.1936 100.738 76.4435 100.638 76.6936C100.557 76.898 100.242 77.0861 100.004 77.1369C99.346 77.2776 98.6737 77.3715 98.0023 77.4212C97.731 77.4413 97.3957 77.3688 97.1828 77.2118C96.9198 77.0178 96.8722 77.0139 96.7284 77.317C96.3885 78.0333 95.9798 78.2047 95.192 77.9253C94.492 77.677 93.8091 77.5881 93.2822 78.1668C92.9906 78.4872 92.7973 78.9042 92.6083 79.312C92.5738 79.3865 92.5394 79.4607 92.5046 79.5339C92.4128 79.727 92.358 79.9374 92.3031 80.1481L92.3031 80.1482L92.3031 80.1483L92.3031 80.1484L92.303 80.1485C92.2747 80.2574 92.2463 80.3665 92.2127 80.4732C91.8855 81.5146 91.47 81.8749 90.4065 81.8057C89.2469 81.7302 88.1227 81.8963 87.0537 82.2671C86.1535 82.5795 85.7324 82.0931 85.2794 81.5696C85.2331 81.5161 85.1864 81.4623 85.1389 81.4088C85.0103 81.2641 84.8821 81.1189 84.7539 80.9737C84.1335 80.2709 83.5125 79.5673 82.838 78.9204C82.5856 78.6782 82.0986 78.5801 81.7231 78.5891C81.3313 78.5985 80.9414 78.6646 80.551 78.7309L80.5509 78.7309C80.2973 78.7739 80.0434 78.8169 79.7886 78.8445C79.2449 78.9033 78.8181 78.5986 78.6567 78.1388C78.4311 77.4963 78.3046 76.8076 78.2273 76.1282C78.1718 75.64 77.9966 75.2692 77.5327 75.1855C76.3896 74.9793 75.7597 74.2613 75.2158 73.2876C74.8309 72.5986 74.3401 71.9682 73.8498 71.3383L73.8496 71.338C73.6629 71.0982 73.4763 70.8585 73.2956 70.6156C73.1759 70.4548 73.0449 70.3025 72.9138 70.1501L72.9138 70.1501C72.7917 70.0083 72.6696 69.8664 72.5568 69.7176C72.3048 69.3856 72.2923 69.0435 72.4856 68.6527C72.7519 68.1142 72.9957 67.5646 73.2395 67.0149ZM104.115 53.6814L104.094 53.321C103.95 52.4837 104.356 52.2181 104.908 51.9009C105.68 51.457 106.441 51.0771 107.34 51.1409C107.772 51.1715 108.134 51.3855 107.77 51.9019C107.152 52.7778 106.522 53.6449 105.878 54.501C105.585 54.8891 105.274 55.2626 104.962 55.6361L104.962 55.6363L104.962 55.6365L104.962 55.6368L104.962 55.6371C104.852 55.7681 104.743 55.8991 104.635 56.0307C104.596 56.0771 104.549 56.116 104.502 56.1549C104.48 56.1729 104.458 56.1909 104.437 56.2096C104.418 56.1843 104.398 56.1592 104.379 56.1342C104.329 56.0706 104.28 56.0071 104.239 55.9386C104.225 55.9165 104.229 55.8848 104.232 55.8526V55.8526L104.234 55.8329C104.235 55.8215 104.236 55.8103 104.235 55.7997C104.195 55.0964 104.155 54.3932 104.115 53.69L104.115 53.6889L104.115 53.6878L104.115 53.6868L104.115 53.6857L104.115 53.6846L104.115 53.6835L104.115 53.6825L104.115 53.6814ZM73.4554 56.197C73.436 56.2287 73.4165 56.2605 73.4024 56.2911C73.018 56.1079 72.6615 55.889 72.3087 55.6723L72.3086 55.6723C71.9997 55.4827 71.6936 55.2947 71.3738 55.1337C70.651 54.7699 70.3967 54.1091 70.1653 53.4524C69.8989 52.6966 70.4917 51.9747 71.2954 51.9801L71.4031 51.9806C71.6896 51.9817 71.9804 51.9827 72.2559 52.0431C72.7971 52.1617 72.8508 52.5812 72.9025 52.9853L72.9025 52.9853L72.9025 52.9853L72.9025 52.9854L72.9025 52.9854L72.9025 52.9854L72.9025 52.9854L72.9025 52.9855L72.9025 52.9855L72.9025 52.9855L72.9026 52.9856L72.9026 52.9856V52.9856C72.9186 53.1109 72.9344 53.2348 72.9646 53.3477C73.1579 54.071 73.299 54.8084 73.4401 55.5452L73.4401 55.5455L73.4402 55.5457L73.4402 55.5459L73.4403 55.5461L73.4403 55.5464L73.4404 55.5466L73.4404 55.5468L73.4405 55.5471L73.4405 55.5473L73.4405 55.5475L73.4406 55.5478L73.4406 55.548L73.4407 55.5482L73.4407 55.5484C73.4697 55.6998 73.4987 55.8511 73.5281 56.0023C73.5394 56.0603 73.4974 56.1286 73.4554 56.197ZM116.305 122.774C117.424 124.564 118.545 126.36 119.687 128.176C119.979 128.467 120.266 128.756 120.55 129.042L120.551 129.043L120.554 129.046C121.179 129.675 121.793 130.292 122.416 130.901C123.913 132.365 125.694 132.723 127.7 132.262C129.443 131.863 131.036 131.155 132.438 130.046C132.66 129.87 132.889 129.699 133.119 129.528L133.119 129.528C133.794 129.024 134.472 128.518 134.988 127.883C136.165 126.435 137.248 124.889 138.194 123.28C139.457 121.133 140.712 118.954 141.676 116.665C142.574 114.532 143.322 112.335 144.069 110.139L144.069 110.138L144.069 110.138L144.069 110.138L144.069 110.138L144.069 110.138L144.069 110.138L144.069 110.138L144.069 110.138L144.069 110.138L144.069 110.137L144.069 110.137L144.07 110.137L144.07 110.137L144.07 110.137L144.07 110.136C144.349 109.317 144.627 108.499 144.913 107.684C145.017 107.387 145.122 107.091 145.227 106.794L145.227 106.794L145.227 106.793L145.227 106.792L145.228 106.791L145.228 106.79C145.82 105.112 146.412 103.434 146.936 101.735C147.19 100.911 147.404 100.074 147.618 99.2377L147.618 99.2375L147.618 99.2372L147.618 99.2368L147.619 99.2365L147.619 99.2362L147.619 99.2359L147.619 99.2356L147.619 99.2352C147.895 98.1569 148.171 97.079 148.532 96.0297C148.946 94.8251 149.461 93.6553 149.976 92.4853C150.243 91.8794 150.509 91.2735 150.762 90.6627C151.028 90.0199 151.295 89.3775 151.562 88.7351C152.582 86.2807 153.601 83.8261 154.569 81.3513C154.953 80.3702 155.221 79.343 155.489 78.318L155.489 78.3179C155.56 78.048 155.63 77.7783 155.703 77.5097C155.735 77.3878 155.67 77.2394 155.605 77.091C155.574 77.0223 155.544 76.9536 155.523 76.8875C155.453 76.9101 155.377 76.9269 155.301 76.9438L155.301 76.9438C155.137 76.9804 154.973 77.017 154.858 77.1127C154.134 77.7133 153.635 78.474 153.304 79.3621C153.135 79.8171 152.908 80.2514 152.682 80.6843L152.6 80.8422L152.542 80.9541C152.514 81.0089 152.437 81.039 152.361 81.069C152.326 81.0829 152.291 81.0968 152.26 81.1132C152.26 81.0829 152.257 81.0519 152.254 81.0209C152.248 80.9543 152.242 80.8877 152.26 80.8279C152.396 80.3589 152.538 79.8913 152.68 79.4236L152.68 79.4231L152.68 79.4227L152.68 79.4222L152.68 79.4218L152.68 79.4213L152.681 79.4208L152.681 79.4204L152.681 79.4199L152.681 79.4195L152.681 79.4187L152.681 79.418L152.682 79.4172L152.682 79.417L152.682 79.4168L152.682 79.4167L152.682 79.4165L152.682 79.4163L152.682 79.4161L152.682 79.4159L152.682 79.4157L152.682 79.4156L152.682 79.4154L152.682 79.4152L152.682 79.415L152.682 79.4148L152.682 79.4146C152.984 78.4177 153.286 77.4209 153.538 76.4114C153.744 75.585 153.811 74.7165 153.866 73.8622C153.906 73.2438 153.34 72.886 152.843 73.2079C152.586 73.3749 152.373 73.6117 152.161 73.8482C152.075 73.9436 151.989 74.0389 151.901 74.1295C151.831 74.2013 151.768 74.2799 151.705 74.3585C151.676 74.3945 151.647 74.4304 151.618 74.4657C151.603 74.4247 151.586 74.384 151.57 74.3433C151.533 74.2538 151.496 74.1642 151.479 74.0711C151.42 73.7629 151.376 73.4516 151.335 73.1404C151.257 72.5535 150.919 71.9937 150.4 71.9819C150.048 71.9739 149.547 72.4855 149.348 72.8827C148.745 74.0881 148.214 75.3347 147.734 76.5955C147.362 77.5755 147.03 78.5712 146.698 79.5669L146.698 79.5673L146.698 79.5676L146.698 79.568L146.698 79.5684L146.698 79.5688L146.698 79.5692L146.697 79.5696L146.697 79.57L146.697 79.5704L146.697 79.5708L146.697 79.5711L146.697 79.5715L146.697 79.5719C146.546 80.024 146.395 80.4761 146.241 80.9268C146.207 81.0252 146.168 81.1216 146.128 81.218C146.11 81.2627 146.091 81.3074 146.074 81.3523C146.037 81.3246 145.997 81.2991 145.957 81.2735C145.871 81.2184 145.785 81.1632 145.728 81.0865C145.138 80.287 144.293 79.8661 143.436 79.4383L143.331 79.3864C142.549 78.9956 141.776 79.1029 141.09 79.4417C140.162 79.9005 140.194 81.5656 141.01 82.3117C142.268 83.462 143.138 84.8316 143.51 86.5104C144.014 88.7903 143.536 90.8508 142.189 92.7382L141.988 93.0184C141.316 93.958 140.644 94.8988 140.026 95.8734C138.443 98.3708 136.875 100.879 135.343 103.408L135.252 103.558C133.836 105.896 132.418 108.237 131.109 110.635C130.517 111.72 130.037 112.866 129.558 114.011C129.388 114.416 129.219 114.82 129.045 115.222C128.889 115.58 128.779 115.706 128.482 115.342C128.261 115.069 128.007 114.813 127.729 114.598C127.644 114.532 127.515 114.523 127.386 114.515C127.327 114.51 127.268 114.506 127.214 114.497C127.211 114.537 127.201 114.583 127.192 114.629C127.172 114.727 127.152 114.826 127.192 114.871C127.22 114.902 127.248 114.934 127.276 114.966L127.35 115.049L127.35 115.05C127.623 115.361 127.9 115.676 128.231 115.91C129.265 116.641 129.388 116.556 129.845 115.351C129.902 115.2 129.959 115.049 130.016 114.897C130.412 113.844 130.81 112.783 131.35 111.806C132.817 109.153 134.365 106.543 135.924 103.942C137.465 101.369 139.033 98.812 140.639 96.2799C141.002 95.7081 141.405 95.1601 141.808 94.6125C142.372 93.8456 142.936 93.0797 143.387 92.2509C145.061 89.1706 144.816 86.1056 142.866 83.2047C142.673 82.9169 142.422 82.6667 142.171 82.4168L142.171 82.4168L142.171 82.4168C141.895 82.1413 141.619 81.8665 141.422 81.5425C141.209 81.1935 141.186 80.561 141.365 80.1996C141.487 79.9559 142.167 79.7834 142.501 79.8876C144.108 80.3883 145.635 81.0391 145.973 82.9958C145.989 83.0875 146.095 83.1635 146.202 83.2395C146.252 83.2748 146.301 83.3101 146.342 83.347C146.361 83.3177 146.383 83.2892 146.405 83.2607C146.452 83.1991 146.5 83.1376 146.521 83.068C146.72 82.4153 146.911 81.7603 147.102 81.1052L147.191 80.8C147.336 80.3039 147.477 79.8063 147.617 79.3086C147.946 78.14 148.276 76.9715 148.666 75.8238C148.911 75.1043 149.268 74.4217 149.623 73.7407C149.733 73.5292 149.844 73.3178 149.95 73.1056C150.024 72.9599 150.216 72.8586 150.375 72.7825C150.417 72.7627 150.606 72.9071 150.616 72.9898C150.634 73.1333 150.659 73.2792 150.684 73.4255L150.684 73.4257C150.755 73.8338 150.826 74.2458 150.741 74.6207C150.569 75.3814 150.333 76.1275 150.098 76.8739L150.098 76.8744L150.097 76.8748L150.097 76.8753L150.097 76.8758L150.097 76.8762L150.097 76.8767L150.097 76.8771L150.097 76.8776L150.097 76.8781L150.096 76.8785L150.096 76.8791C149.963 77.3007 149.83 77.7224 149.708 78.147C149.43 79.1184 149.174 80.0968 148.947 81.0812C148.927 81.1658 149.02 81.2762 149.112 81.3866L149.112 81.3867C149.155 81.4378 149.198 81.4889 149.23 81.5375C149.272 81.5002 149.323 81.4655 149.373 81.4307C149.481 81.3555 149.59 81.2803 149.624 81.1796C149.853 80.5194 150.061 79.8523 150.269 79.1852C150.341 78.955 150.412 78.7248 150.485 78.4949C150.971 76.9553 151.488 75.4299 152.64 74.2279C152.711 74.1529 152.808 74.1013 152.904 74.0497C152.949 74.0258 152.993 74.0018 153.036 73.9755C153.05 74.0294 153.072 74.0849 153.093 74.1404C153.14 74.2598 153.186 74.3793 153.162 74.4821C152.758 76.1972 152.336 77.9083 151.907 79.6173C151.843 79.8697 151.769 80.1199 151.694 80.3699C151.574 80.7726 151.454 81.1749 151.381 81.5859C151.349 81.7683 151.429 81.9707 151.509 82.1732C151.545 82.2653 151.582 82.3575 151.607 82.4478C151.679 82.4226 151.759 82.4041 151.84 82.3856C152.015 82.3453 152.19 82.3051 152.274 82.1951C152.704 81.6335 153.101 81.0399 153.446 80.4222C153.648 80.0594 153.824 79.682 154.001 79.3046L154.001 79.3045L154.001 79.3045L154.001 79.3044L154.001 79.3044L154.001 79.3043L154.001 79.3042L154.001 79.3042L154.001 79.3041L154.001 79.3041L154.001 79.304L154.001 79.304L154.001 79.3039L154.001 79.3038L154.001 79.3035C154.148 78.9892 154.295 78.6748 154.456 78.3687C154.515 78.2588 154.639 78.1837 154.763 78.1086C154.82 78.0741 154.877 78.0395 154.928 78.0016C154.921 78.0581 154.919 78.1161 154.916 78.174C154.911 78.299 154.906 78.424 154.864 78.5352L154.677 79.0295C154.232 80.2097 153.786 81.39 153.307 82.5566C153.11 83.0365 152.889 83.5066 152.668 83.9768L152.668 83.977L152.668 83.9772L152.668 83.9775L152.668 83.9777L152.668 83.9779L152.668 83.9781L152.668 83.9783L152.668 83.9785L152.668 83.9788L152.668 83.979L152.667 83.9792L152.667 83.9794L152.667 83.9796L152.667 83.9798L152.667 83.9801C152.453 84.4362 152.239 84.8924 152.046 85.3576C151.687 86.2256 151.341 87.0992 150.994 87.9728L150.994 87.9731C150.377 89.5293 149.76 91.0853 149.071 92.609C148.095 94.767 147.316 96.9808 146.664 99.2492C146.404 100.153 146.138 101.056 145.84 101.948C145.521 102.901 145.191 103.85 144.862 104.799L144.862 104.8L144.862 104.8C144.218 106.655 143.574 108.51 143.012 110.39C142.184 113.157 141.263 115.879 140.042 118.495C138.741 121.284 137.135 123.904 135.263 126.332C134.384 127.474 133.274 128.531 132.06 129.294C130.674 130.165 129.189 130.969 127.527 131.302C126.423 131.524 125.309 131.654 124.296 131.07C122.432 129.995 121.039 128.392 119.809 126.676C118.883 125.382 118.006 124.052 117.13 122.723L117.129 122.722L117.129 122.722L117.129 122.722L117.129 122.721L117.128 122.721L117.128 122.72L117.128 122.72L117.128 122.72L117.127 122.719L117.127 122.719L117.127 122.719L117.126 122.718L117.126 122.718L117.126 122.718C116.623 121.954 116.12 121.191 115.607 120.434C115.523 120.31 115.377 120.229 115.231 120.148C115.163 120.11 115.095 120.072 115.034 120.03C115.031 120.1 115.027 120.17 115.023 120.24L115.023 120.242C115.013 120.429 115.002 120.617 115.012 120.804C115.014 120.843 115.059 120.878 115.105 120.914C115.141 120.942 115.179 120.972 115.2 121.006L115.638 121.706L116.305 122.774ZM110.097 162.614L110.097 162.614C109.934 163.651 109.775 164.664 109.425 165.606C108.781 167.339 107.291 168.386 105.569 168.919C103.877 169.443 102.14 169.827 100.406 170.209L100.398 170.211C100.197 170.256 99.9967 170.3 99.7964 170.344C99.3361 170.446 98.856 170.461 98.3765 170.476C98.1864 170.482 97.9964 170.488 97.8078 170.5C96.8568 170.557 95.9058 170.613 94.9547 170.668H94.9543H94.954H94.9537H94.9533H94.953H94.9526H94.9523H94.9519H94.9516H94.9513H94.9509H94.9506H94.9502C93.5101 170.753 92.0701 170.837 90.6303 170.927C90.0444 170.964 89.459 171.009 88.8735 171.053L88.8704 171.054H88.8703H88.8701H88.8699H88.8698H88.8696H88.8694H88.8692H88.8691H88.8689H88.8687H88.8686H88.8684H88.8682C88.1514 171.108 87.4345 171.163 86.7168 171.203L86.3672 171.223C85.2314 171.287 84.0934 171.351 82.9578 171.333C82.1659 171.321 81.3748 171.225 80.585 171.129C80.3782 171.104 80.1715 171.079 79.9649 171.056C79.8817 171.046 79.8064 170.967 79.731 170.888C79.6961 170.852 79.6612 170.815 79.6255 170.785C79.6532 170.756 79.6797 170.719 79.7062 170.683C79.7639 170.604 79.8216 170.525 79.8916 170.512C79.9646 170.498 80.0383 170.483 80.1123 170.468L80.1124 170.468C80.4433 170.401 80.7814 170.332 81.1018 170.373C83.3172 170.659 85.5146 170.472 87.7163 170.224C88.7931 170.103 89.8757 170.029 90.9574 169.955L91.2046 169.938C91.9555 169.886 92.7072 169.843 93.459 169.801L93.4594 169.801L93.4598 169.801L93.4602 169.801L93.4607 169.801L93.4611 169.801L93.4615 169.801L93.4619 169.801L93.4624 169.801L93.4628 169.801L93.4632 169.801L93.4636 169.8L93.4641 169.8L93.4645 169.8L93.4661 169.8C94.8943 169.719 96.3223 169.639 97.7442 169.495C100.504 169.217 103.235 168.721 105.818 167.661C107.311 167.048 108.339 165.882 108.728 164.344L108.768 164.188C109.198 162.494 109.635 160.772 109.462 158.99C109.421 158.575 109.352 158.16 109.284 157.746C109.178 157.111 109.073 156.477 109.07 155.842C109.067 155.007 109.128 154.171 109.19 153.336L109.19 153.336C109.243 152.608 109.297 151.879 109.308 151.151C109.317 150.501 109.232 149.85 109.147 149.199C109.111 148.922 109.075 148.645 109.046 148.369C109.021 148.128 108.998 147.887 108.974 147.647C108.912 147.006 108.85 146.366 108.756 145.73C108.419 143.442 108.288 141.146 108.326 138.834C108.336 138.228 108.299 137.622 108.261 137.015V137.015V137.015V137.015V137.015V137.015V137.015V137.015V137.015V137.015V137.015V137.014V137.014V137.014C108.235 136.604 108.21 136.193 108.199 135.782C108.175 134.857 108.158 133.933 108.141 133.009V133.009V133.008V133.008V133.008V133.008V133.008V133.008V133.008V133.008V133.008V133.007V133.007V133.007L108.141 133.007C108.116 131.688 108.092 130.37 108.047 129.053C108.011 127.97 107.949 126.889 107.887 125.807L107.886 125.806C107.847 125.113 107.807 124.419 107.774 123.725C107.747 123.156 107.728 122.587 107.708 122.018C107.685 121.334 107.662 120.65 107.626 119.966C107.599 119.48 107.554 118.994 107.51 118.509V118.508V118.508V118.508V118.508V118.508V118.508V118.508V118.508V118.508V118.508V118.508V118.508V118.508C107.425 117.593 107.341 116.68 107.381 115.771C107.424 114.785 107.598 113.805 107.772 112.825L107.772 112.825L107.772 112.825L107.772 112.825L107.772 112.825L107.772 112.825L107.772 112.825L107.772 112.824L107.772 112.824L107.772 112.824L107.772 112.824L107.772 112.824L107.772 112.824L107.772 112.824C107.849 112.387 107.927 111.95 107.993 111.512C108.037 111.22 108.082 110.927 108.127 110.635L108.127 110.634C108.25 109.84 108.373 109.045 108.473 108.248C108.529 107.798 108.571 107.346 108.613 106.894C108.661 106.371 108.709 105.848 108.78 105.328C108.796 105.213 108.926 105.113 109.056 105.014C109.116 104.968 109.176 104.922 109.224 104.874C109.25 104.929 109.285 104.985 109.319 105.04C109.393 105.16 109.467 105.279 109.455 105.389C109.29 106.893 109.1 108.394 108.902 109.894C108.828 110.453 108.736 111.011 108.645 111.569L108.645 111.57C108.455 112.727 108.265 113.884 108.233 115.046C108.188 116.703 108.287 118.365 108.386 120.025V120.025V120.025V120.025V120.025V120.026V120.026V120.026V120.026V120.026V120.026V120.026V120.026L108.386 120.026L108.386 120.027C108.42 120.598 108.454 121.169 108.483 121.74C108.524 122.578 108.581 123.416 108.638 124.254C108.681 124.885 108.723 125.517 108.76 126.148C108.784 126.576 108.809 127.004 108.834 127.432L108.834 127.434L108.834 127.436L108.834 127.439L108.834 127.441L108.834 127.444L108.834 127.446L108.835 127.449L108.835 127.449L108.835 127.45L108.835 127.45L108.835 127.45L108.835 127.451L108.835 127.451L108.835 127.452L108.835 127.452L108.835 127.453L108.835 127.453L108.835 127.453L108.835 127.454L108.835 127.454C108.959 129.6 109.083 131.745 109.179 133.892C109.214 134.679 109.228 135.468 109.241 136.256C109.259 137.288 109.276 138.319 109.342 139.347C109.421 140.566 109.555 141.781 109.688 142.996L109.688 142.996C109.758 143.635 109.828 144.273 109.891 144.912C109.997 146.003 110.094 147.095 110.172 148.189C110.184 148.357 110.197 148.526 110.21 148.695L110.21 148.696C110.268 149.45 110.326 150.205 110.304 150.958C110.283 151.73 110.235 152.502 110.188 153.274L110.188 153.274C110.126 154.286 110.064 155.297 110.059 156.31C110.057 156.831 110.154 157.352 110.251 157.873L110.251 157.874L110.251 157.874L110.251 157.874L110.251 157.874L110.251 157.874L110.251 157.874L110.251 157.874L110.251 157.874L110.251 157.874L110.251 157.874L110.251 157.874L110.251 157.875L110.251 157.875C110.327 158.285 110.404 158.696 110.432 159.108C110.465 159.582 110.421 160.062 110.376 160.563L110.376 160.563C110.354 160.805 110.332 161.053 110.317 161.307C110.234 161.744 110.165 162.18 110.098 162.612L110.098 162.612L110.098 162.613L110.098 162.613L110.097 162.613L110.097 162.613L110.097 162.613L110.097 162.613L110.097 162.613L110.097 162.614L110.097 162.614L110.097 162.614L110.097 162.614ZM58.3098 163.893C58.9037 166.412 60.5311 168.279 62.6179 169.829L62.7918 169.899L62.7933 169.899C63.7025 170.263 64.5771 170.613 65.4695 170.91C65.6406 170.967 65.8408 170.936 66.041 170.905C66.133 170.891 66.2249 170.877 66.3141 170.871C66.2625 170.817 66.2113 170.762 66.16 170.707C66.0098 170.547 65.8596 170.387 65.7017 170.235C65.6814 170.215 65.6422 170.218 65.6009 170.221C65.5654 170.224 65.5283 170.227 65.5002 170.215C65.2668 170.122 65.0221 170.042 64.7772 169.962C64.2169 169.778 63.6559 169.595 63.2299 169.247C62.1907 168.398 61.243 167.4 60.4141 166.341C59.595 165.295 59.1774 164.038 59.2545 162.659C59.2825 162.16 59.2974 161.66 59.3124 161.16C59.3335 160.454 59.3546 159.748 59.4123 159.045C59.4561 158.51 59.5394 157.979 59.6226 157.448C59.6961 156.979 59.7696 156.51 59.816 156.039C59.9176 155.007 59.981 153.972 60.0444 152.937C60.0596 152.69 60.0747 152.442 60.0904 152.195C60.0964 152.101 60.0347 151.97 59.9607 151.914C59.8998 151.868 59.7277 151.866 59.6851 151.915C59.6553 151.949 59.6233 151.984 59.5908 152.02C59.4487 152.174 59.2966 152.339 59.2751 152.514C59.1856 153.245 59.1234 153.98 59.0612 154.714C59.0328 155.048 59.0045 155.382 58.9737 155.716C58.9644 155.816 58.9436 155.916 58.9228 156.015L58.9228 156.015C58.907 156.09 58.8912 156.166 58.8804 156.242C58.8203 156.665 58.7555 157.088 58.6907 157.51L58.6907 157.51C58.5339 158.533 58.3772 159.555 58.2877 160.583L58.2668 160.819C58.1754 161.847 58.0801 162.919 58.3098 163.893ZM96.231 92.808L96.2312 92.8078C97.7639 91.7731 99.2774 90.7513 100.518 89.3975C101.172 88.6838 101.751 87.9022 102.331 87.1206C102.586 86.7764 102.842 86.4323 103.103 86.094C103.132 86.0564 103.157 86.0119 103.181 85.9677L103.181 85.9677C103.226 85.8878 103.269 85.809 103.337 85.775C103.473 85.7064 103.625 85.6683 103.776 85.6302C103.839 85.6143 103.902 85.5984 103.964 85.5803C103.944 85.6426 103.929 85.7083 103.913 85.7739C103.879 85.9157 103.846 86.0575 103.767 86.1662C103.604 86.3897 103.442 86.6141 103.28 86.8384L103.28 86.8385L103.28 86.8385L103.28 86.8386L103.28 86.8386L103.28 86.8387L103.28 86.8387L103.28 86.8388L103.28 86.8388L103.28 86.8389L103.28 86.8389L103.28 86.8389C102.627 87.7442 101.973 88.65 101.261 89.507C100.619 90.2799 99.9118 91.0275 99.1208 91.6409C97.7477 92.7056 96.3367 93.7397 94.8505 94.6352C93.2247 95.6147 91.5184 96.4705 89.8018 97.2847C88.9511 97.6882 88.0237 97.6358 87.1814 97.0871C84.6348 95.4282 82.1519 93.6864 80.0352 91.4833C79.4496 90.8738 78.9085 90.2171 78.3965 89.5444C78.3136 89.4354 78.3246 89.255 78.3355 89.0746C78.3406 88.9916 78.3456 88.9086 78.3415 88.8325C78.4175 88.8468 78.5022 88.8528 78.5868 88.8587C78.771 88.8717 78.9551 88.8846 79.0502 88.9834C79.3066 89.2496 79.5413 89.5372 79.7759 89.8247C80.0478 90.1579 80.3196 90.491 80.6249 90.7903C81.4125 91.5626 82.2409 92.3006 83.106 92.9848C84.1434 93.8054 85.2103 94.5888 86.277 95.372L86.2774 95.3722C86.5142 95.5461 86.7511 95.72 86.9876 95.8943C87.1438 96.0094 87.3121 96.1083 87.4804 96.2071L87.4805 96.2072L87.4805 96.2072C87.6556 96.3101 87.8307 96.413 87.9921 96.5341C88.6656 97.0396 89.2459 96.7083 89.778 96.4046L89.7781 96.4045C89.9101 96.3292 90.0392 96.2555 90.166 96.1967C91.4277 95.6119 92.6474 94.9366 93.885 94.2514C94.28 94.0327 94.6768 93.813 95.0774 93.5949C95.4598 93.3286 95.845 93.0686 96.229 92.8093L96.2308 92.8081L96.231 92.808ZM149.453 86.4605L149.454 86.4602C149.662 86.204 149.875 85.9431 150.096 85.6745C150.247 85.6577 150.39 85.6558 150.529 85.6539C150.682 85.6519 150.829 85.6499 150.973 85.6281C151.094 85.6098 151.208 85.5406 151.322 85.4714C151.372 85.4404 151.423 85.4093 151.475 85.3829C151.434 85.3354 151.396 85.2801 151.358 85.2249C151.276 85.1054 151.193 84.986 151.082 84.9445C150.031 84.5526 148.175 85.9942 148.231 87.153C148.236 87.2613 148.299 87.3668 148.361 87.4724C148.39 87.5213 148.419 87.5701 148.443 87.6192C148.479 87.5834 148.516 87.5485 148.553 87.5136C148.635 87.4375 148.716 87.3615 148.786 87.2764C149.008 87.0076 149.228 86.7372 149.453 86.4614L149.453 86.4605ZM96.7747 67.0049C97.1145 67.0854 97.4189 67.2013 97.7234 67.3172L97.7234 67.3172C97.6774 67.3944 97.6357 67.4761 97.5941 67.5577L97.594 67.5577C97.5042 67.7338 97.4144 67.9099 97.2805 68.041C95.6392 69.6482 93.6402 70.5871 91.4161 71.0535C91.1466 71.11 90.8463 71.036 90.5528 70.9636C90.464 70.9417 90.3758 70.92 90.2892 70.9021C90.2089 70.8854 90.0879 70.6668 90.1025 70.6513C90.1338 70.618 90.1656 70.5813 90.198 70.5439L90.1984 70.5435L90.1986 70.5433C90.3178 70.4056 90.4451 70.2588 90.5875 70.2374C92.8168 69.9037 94.6863 68.8797 96.3018 67.3418C96.3781 67.2691 96.468 67.2107 96.5673 67.1462L96.5674 67.1462C96.6328 67.1037 96.7023 67.0585 96.7747 67.0049ZM146.518 87.6105C146.852 86.7821 146.582 85.9966 146.277 85.1795C146.196 85.0861 146.118 84.9949 146.041 84.9056L146.04 84.9053C145.82 84.649 145.612 84.4081 145.395 84.1764C145.381 84.1614 145.116 84.3333 145.124 84.3524C145.234 84.612 145.363 84.8644 145.503 85.1101C145.931 85.8639 145.987 86.683 145.971 87.525C145.969 87.6423 146.039 87.7609 146.108 87.8796C146.141 87.9343 146.173 87.989 146.198 88.0435C146.232 87.9982 146.27 87.9545 146.309 87.9107C146.391 87.8158 146.474 87.7209 146.518 87.6105ZM85.6012 38.9299C85.8778 39.0586 86.1487 39.1977 86.4174 39.3356C87.0911 39.6815 87.7506 40.0201 88.4506 40.1705L88.5598 40.194C89.6071 40.42 90.7341 40.6631 91.7867 40.0915C92.1556 39.8912 92.5024 39.6445 92.8385 39.3915C93.0435 39.2372 93.2281 39.0456 93.3893 38.8447C94.6687 37.2497 95.6129 37.4878 97.3747 38.5292C99.6287 39.8616 100.45 42.1357 101.243 44.3982C101.64 45.5284 101.889 46.7137 102.137 47.8927L102.137 47.8927L102.137 47.8928L102.137 47.8928L102.137 47.8928L102.137 47.8929L102.137 47.8929L102.137 47.8929C102.17 48.0513 102.204 48.2095 102.237 48.3675C102.401 49.1379 102.47 49.9322 102.531 50.7197C102.603 51.6538 102.637 52.5912 102.671 53.5279L102.678 53.6999C102.696 54.2127 102.706 54.7263 102.716 55.2398V55.2399V55.2399V55.24V55.24V55.24V55.2401V55.2401C102.735 56.24 102.754 57.2396 102.839 58.2339C102.968 59.7549 102.725 61.221 102.385 62.6753C101.994 64.35 100.721 65.1575 99.1783 65.5337C98.5284 65.6922 97.85 65.738 97.1731 65.7837C96.9392 65.7995 96.7056 65.8153 96.4733 65.8357C94.0844 66.0455 91.7104 66.3411 89.4023 67.0254C88.6865 67.2376 88.0026 67.1399 87.4024 66.741C86.1907 65.9355 84.822 65.641 83.4262 65.4153C80.8233 64.9944 78.3522 64.2843 76.4446 62.3044C75.9411 61.7818 75.6181 61.2224 75.6505 60.4353C75.708 59.0394 75.5065 57.6655 75.3053 56.2931L75.3052 56.2931L75.3052 56.293C75.1903 55.5092 75.0754 54.7259 75.0089 53.9393C74.8078 51.5607 74.896 49.1712 75.6232 46.8022C76.4342 44.16 77.6715 41.8258 79.6345 39.9206C80.1737 39.3972 80.8252 38.9902 81.4772 38.5829C81.7953 38.3841 82.1136 38.1853 82.419 37.9728L82.4704 37.9371C82.8045 37.7049 83.1419 37.4703 83.4363 37.193C83.8846 36.7708 84.1567 36.9937 84.4366 37.382C84.7709 37.8456 85.1186 38.2995 85.4887 38.7829L85.6012 38.9299ZM100.063 43.2083C100.026 43.1191 99.988 43.03 99.9503 42.9409C99.8692 42.7491 99.7881 42.5574 99.71 42.3645C98.9654 40.5262 97.6499 39.2362 95.8485 38.4603C95.5687 38.3398 95.0818 38.4097 94.8294 38.5881C94.6194 38.7365 94.4719 38.9697 94.3231 39.2049C94.239 39.338 94.1544 39.4716 94.058 39.5909C93.1961 40.6566 92.1856 41.4899 90.7107 41.3585C89.7981 41.2772 88.876 41.1601 87.9923 40.9285C86.6072 40.5654 85.3461 39.914 84.4501 38.7525L84.3627 38.6389C83.774 37.8726 83.7668 37.8632 82.9644 38.4017C82.6999 38.5792 82.4279 38.7493 82.1558 38.9195C81.4777 39.3437 80.7986 39.7684 80.2322 40.3098C78.317 42.1406 77.0592 44.3412 76.3045 46.9462C75.6243 49.294 75.5833 51.6218 75.6948 53.976C75.7854 55.8876 76.0897 57.7944 76.3934 59.6882L76.4134 59.8136C76.5464 60.6525 76.6831 61.5152 77.4153 62.1645C78.8022 63.3945 80.4456 64.0563 82.2125 64.4084C82.452 64.4561 82.6917 64.5021 82.9312 64.5481L82.9317 64.5482C84.6168 64.8716 86.2914 65.193 87.8091 66.0995C88.1632 66.311 88.699 66.3576 89.1215 66.2915C90.0719 66.1428 91.0184 65.9695 91.965 65.7963L91.9652 65.7962L91.9655 65.7962L91.9658 65.7961L91.9661 65.7961L91.9663 65.796L91.9666 65.796L91.9669 65.7959L91.9671 65.7959C92.9485 65.6163 93.9299 65.4367 94.9155 65.2844C95.4742 65.198 96.0403 65.1515 96.6059 65.1049L96.606 65.1049L96.6061 65.1049L96.6062 65.1049L96.6063 65.1049L96.6064 65.1049L96.6064 65.1049L96.6065 65.1048L96.6066 65.1048C97.3787 65.0413 98.1499 64.9779 98.9 64.8134C99.9334 64.5868 101.095 64.2365 101.43 63.0272C101.756 61.8519 102.037 60.6299 102.081 59.419C102.143 57.7451 102.073 56.065 102.002 54.3872C101.989 54.0821 101.976 53.7769 101.964 53.472C101.94 52.8506 101.888 52.2303 101.835 51.61C101.778 50.9271 101.72 50.2442 101.7 49.5602C101.636 47.4287 100.908 45.4747 100.151 43.4442L100.151 43.4442L100.063 43.2083ZM98.6211 50.2618C97.4237 49.3263 96.0196 49.1347 94.4763 49.29C94.3331 49.3157 94.2112 49.3443 94.0986 49.3708C94.0041 49.393 93.9161 49.4137 93.8272 49.4299C92.3688 49.695 91.1186 50.2903 90.2596 51.5703C90.1695 51.7045 89.8326 51.7726 89.6467 51.726C88.8272 51.5206 88.0665 51.5033 87.4299 52.1659C87.3511 52.2479 87.2779 52.3352 87.2048 52.4226L87.2047 52.4226L87.2047 52.4227L87.2047 52.4227L87.2046 52.4228L87.2046 52.4228L87.2046 52.4228C87.1708 52.4631 87.1371 52.5033 87.1028 52.5431C87.0899 52.4845 87.0721 52.4254 87.0542 52.3664C87.0157 52.239 86.9773 52.1117 86.9879 51.9886C87.1152 50.5243 86.4139 49.6125 85.1367 48.9969C83.9413 48.4207 82.6858 48.2978 81.3946 48.2994C79.4278 48.3018 77.7527 49.5753 77.0613 51.4379C76.6391 52.5753 76.7536 53.6812 77.1177 54.7319C77.4731 55.7574 77.8771 56.8536 78.9334 57.4222C79.0671 57.4942 79.2017 57.5697 79.3372 57.6457C79.9576 57.9938 80.5963 58.3521 81.2567 58.4311C81.3159 58.4382 81.3754 58.4455 81.4352 58.4528C82.4149 58.5728 83.4656 58.7016 84.391 58.0404C85.7898 57.041 86.5528 55.6283 86.9578 54.0252C87.1489 53.2687 87.5349 52.8135 88.2094 52.5112C89.2245 52.0561 89.8612 52.4563 89.9672 53.5075C90.0912 54.7371 90.3617 55.9466 91.0823 56.9999C91.9265 58.234 93.0729 58.9844 94.4882 59.5063C96.1939 60.1352 97.4195 59.752 98.6562 58.7519C100.954 56.8935 101.183 52.2636 98.6211 50.2618ZM93.2832 50.3175C94.2473 50.03 95.2938 49.9371 96.315 50.2093C97.4746 50.2966 98.2362 50.9504 98.798 51.7445C99.362 52.5415 99.8735 53.4451 99.8375 54.4783C99.7989 55.5864 99.3821 56.5843 98.6858 57.4561C98.0882 58.2042 97.3099 58.6823 96.3866 58.8873C96.193 58.9303 95.9753 58.8743 95.7607 58.8191C95.6839 58.7993 95.6075 58.7797 95.5328 58.7647C93.0753 58.272 91.4302 56.9263 90.9408 54.3744C90.9095 54.2117 90.8699 54.0503 90.8304 53.8893C90.6716 53.2423 90.5146 52.6024 90.9115 51.9111C91.4548 50.9651 92.3759 50.5881 93.2832 50.3175ZM86.1296 51.9843C86.2828 53.2846 85.862 54.4538 85.283 55.5839C85.1666 55.7386 85.0666 55.8858 84.9721 56.0249L84.9721 56.025L84.972 56.0251C84.8337 56.2286 84.7073 56.4146 84.5589 56.581C83.741 57.4971 82.7634 57.785 81.523 57.5232C80.6535 57.3398 79.8799 57.1147 79.157 56.5616C78.2861 55.8953 77.9126 54.9757 77.6627 54.0081C77.2645 52.4664 77.807 51.1724 78.912 50.0654C79.8043 49.1716 80.9328 49.0605 82.0603 49.1737C83.1457 49.2828 84.2055 49.5521 85.1632 50.1944C85.8497 50.6547 86.0449 51.2648 86.1296 51.9843ZM85.8487 46.6028C86.5683 46.6433 87.1658 46.5672 87.7105 46.1274C87.8103 46.0468 88.0196 46.1019 88.229 46.1571C88.3251 46.1824 88.4212 46.2077 88.5067 46.2199C88.4664 46.2664 88.4274 46.3144 88.3885 46.3624L88.3884 46.3624C88.3042 46.4662 88.22 46.5699 88.122 46.6585C87.2105 47.4824 86.2075 47.4248 85.0979 47.0815C84.1281 46.7815 83.1097 46.55 82.1004 46.4874C80.5847 46.3933 79.2884 46.983 78.2747 48.1517C78.1872 48.2526 78.0517 48.3119 77.9162 48.3713C77.8534 48.3988 77.7906 48.4263 77.7326 48.4579C77.7511 48.3761 77.7615 48.2874 77.7719 48.1988L77.7719 48.1987C77.7943 48.0078 77.8167 47.8168 77.9202 47.6945C79.6116 45.6948 81.8141 45.612 84.1459 46.1108C84.4726 46.1807 84.7927 46.2814 85.1264 46.3865C85.3583 46.4595 85.5969 46.5346 85.8487 46.6028ZM97.012 47.1087C95.6342 46.8974 94.2629 46.9213 93.0266 47.8403C92.8461 47.9738 92.6681 48.1014 92.493 48.227C92.1423 48.4785 91.8036 48.7214 91.4813 48.9844C91.4086 49.0438 91.3974 49.1785 91.3862 49.3132C91.3811 49.3752 91.3759 49.4372 91.3647 49.4919C91.4131 49.4856 91.4639 49.4835 91.5147 49.4815C91.627 49.4769 91.7393 49.4723 91.8254 49.4224C92.072 49.2795 92.296 49.0941 92.5172 48.9112L92.5172 48.9112L92.5276 48.9025C93.8995 47.768 95.4237 47.31 97.1804 47.8183C97.791 47.995 98.407 48.1577 99.0288 48.2873C99.1296 48.3083 99.246 48.2547 99.3625 48.201L99.3625 48.201C99.416 48.1764 99.4696 48.1517 99.5216 48.1343C99.4821 48.0923 99.4449 48.0434 99.4077 47.9945C99.327 47.8883 99.2463 47.7822 99.1415 47.7461C99.0081 47.7001 98.8747 47.6526 98.7411 47.6051C98.1724 47.4026 97.6 47.1988 97.012 47.1087ZM89.5614 61.9132C88.7323 61.9722 87.9378 62.0205 87.1454 61.9978C87.0404 61.9948 86.9391 61.8618 86.8378 61.7288C86.7911 61.6674 86.7444 61.606 86.6973 61.5574C86.7583 61.5317 86.8189 61.4999 86.8796 61.468C87.0118 61.3987 87.1439 61.3293 87.279 61.3232C88.0088 61.29 88.7407 61.2925 89.4716 61.3006C89.6461 61.3025 89.8204 61.3305 89.9946 61.3585C90.0742 61.3713 90.1537 61.3841 90.2333 61.3944C90.0211 61.5556 89.8089 61.7167 89.5614 61.9132ZM93.945 51.7307C93.4415 52.2903 93.4964 53.4684 94.0874 54.0635C95.2855 54.0989 96.0043 52.8976 95.4464 51.8866C95.1367 51.3254 94.3805 51.2469 93.945 51.7307ZM83.3029 50.9873C83.5551 51.7323 83.3902 52.5038 82.8278 52.9195C82.6643 53.0403 82.2501 53.078 82.1348 52.9654C81.4847 52.3309 81.3757 51.257 82.306 50.6996C82.7296 50.4457 83.0318 50.5634 83.3029 50.9873ZM129.132 47.5812C129.498 48.1303 129.866 48.6833 130.365 49.1565C130.398 50.2291 130.408 51.2294 130.132 52.2074C130.083 52.3828 130.12 52.5479 130.157 52.7146C130.187 52.8505 130.383 52.9483 130.497 52.8832C130.646 52.7989 130.791 52.7095 130.931 52.6111C131.024 52.545 131.117 52.478 131.21 52.411C131.604 52.1265 131.998 51.8422 132.438 51.6283C132.492 51.6023 132.545 51.5765 132.599 51.5508C132.804 51.4528 133.008 51.3547 133.203 51.2402C133.419 51.1135 133.628 51.0957 133.859 51.1746C134.656 51.4465 135.479 51.615 136.301 51.7834C136.432 51.8103 136.563 51.8372 136.694 51.8645C136.734 51.8727 136.773 51.8815 136.812 51.8904C136.912 51.9129 137.013 51.9354 137.114 51.948C137.441 51.9888 137.769 52.0204 138.097 52.052C138.623 52.1026 139.148 52.1532 139.669 52.2417C139.781 52.2609 139.9 52.269 140.012 52.2541C140.277 52.219 140.543 52.1952 140.809 52.1715C141.341 52.124 141.873 52.0765 142.392 51.9382C142.747 51.8436 143.1 51.7377 143.452 51.6318C143.593 51.5895 143.734 51.5472 143.874 51.5056C143.94 51.4863 144.005 51.4671 144.07 51.4478C144.444 51.3378 144.817 51.2277 145.189 51.1143C145.298 51.0814 145.405 51.0408 145.507 50.99C145.594 50.946 145.682 50.9023 145.77 50.8585C146.5 50.4951 147.228 50.1323 147.889 49.6402C147.973 49.5783 148.057 49.5181 148.142 49.4579C148.405 49.2697 148.668 49.0821 148.894 48.8431C149.031 48.6983 149.183 48.5674 149.334 48.4374L149.336 48.4358C149.774 48.0594 150.126 47.6092 150.451 47.1369C150.858 46.5459 151.024 45.8625 151.189 45.18L151.199 45.1407C151.179 44.898 151.226 44.6642 151.273 44.4303C151.293 44.3283 151.313 44.2262 151.328 44.1233C151.536 42.6876 151.351 41.3297 150.495 40.1102C150.39 39.9613 150.304 39.7996 150.218 39.6379C150.182 39.5719 150.147 39.5059 150.11 39.4408C149.9 39.0646 149.664 38.7069 149.357 38.4015C148.684 37.7346 147.974 37.1206 147.136 36.6583C146.542 36.3301 145.922 36.0626 145.301 35.7947C145.161 35.7341 145.021 35.6735 144.881 35.6122C143.793 35.1361 142.659 34.8713 141.487 34.7521C141.126 34.7154 140.763 34.6965 140.4 34.6776C140.219 34.6682 140.039 34.6588 139.859 34.6472C138.858 34.5827 137.856 34.5605 136.855 34.6405C136 34.7087 135.146 34.7901 134.292 34.8715C134.121 34.8878 133.95 34.904 133.78 34.9202C133.697 34.928 133.613 34.9604 133.537 34.9967C133.136 35.187 132.722 35.3461 132.309 35.5052C132.083 35.5919 131.858 35.6787 131.634 35.7706C130.661 36.1705 129.826 36.7445 129.234 37.636C129.149 37.7649 129.055 37.8882 128.961 38.0114C128.881 38.1158 128.802 38.2202 128.727 38.328C128.188 39.1098 127.728 39.9318 127.538 40.8757C127.501 41.0609 127.479 41.2489 127.457 41.4371C127.442 41.5615 127.428 41.6859 127.409 41.8096C127.313 42.4344 127.308 43.0483 127.434 43.6782C127.65 44.757 128.094 45.7436 128.549 46.7304C128.56 46.7561 128.577 46.7802 128.594 46.8031C128.782 47.0555 128.957 47.3179 129.132 47.5812ZM130.893 51.6212C130.889 51.6216 130.884 51.6221 130.88 51.6226C130.877 51.6278 130.884 51.635 130.9 51.6442C130.898 51.6366 130.895 51.6289 130.893 51.6212ZM130.964 51.6187C130.94 51.619 130.916 51.6192 130.893 51.6212C130.845 51.4585 130.871 51.2939 130.917 51.1376C131.029 50.7549 131.078 50.3621 131.127 49.9694C131.156 49.7375 131.184 49.5057 131.226 49.276C131.252 49.1314 131.22 48.9839 131.067 48.9128C130.578 48.6874 130.26 48.2783 129.955 47.8651C129.701 47.5206 129.459 47.1606 129.261 46.7815C129.078 46.4289 128.941 46.0478 128.817 45.6687C128.656 45.1799 128.517 44.6832 128.388 44.1849C128.272 43.739 128.26 43.2788 128.264 42.8203C128.265 42.7208 128.272 42.6212 128.279 42.5217C128.287 42.3922 128.296 42.2627 128.292 42.1336C128.246 40.7246 128.812 39.5192 129.535 38.3666C129.99 37.6424 130.642 37.1133 131.386 36.7383C132.252 36.3018 133.152 35.9192 134.11 35.7149C135.005 35.5239 135.906 35.3655 136.826 35.3347C137.166 35.3234 137.502 35.305 137.838 35.1893C138.07 35.1095 138.336 35.1116 138.591 35.1136C138.623 35.1139 138.655 35.1141 138.686 35.1142C139.029 35.1153 139.374 35.1383 139.715 35.1761C139.744 35.1794 139.774 35.1827 139.804 35.186C140.144 35.224 140.482 35.2619 140.826 35.2663C141.055 35.2695 141.284 35.3195 141.511 35.3688C141.536 35.3744 141.562 35.38 141.588 35.3855C142.188 35.5148 142.77 35.7046 143.353 35.8944C143.722 36.0148 144.091 36.1352 144.465 36.2402C144.68 36.3448 144.894 36.449 145.108 36.5531C145.588 36.7862 146.067 37.0192 146.544 37.2571C147.475 37.7209 148.215 38.4302 148.954 39.1387L149.032 39.2138C149.541 39.7016 149.844 40.3242 150.069 40.9738C150.284 41.594 150.433 42.2344 150.478 42.8986C150.553 44.0055 150.363 45.0583 149.971 46.0922C149.562 47.169 148.902 48.0632 147.991 48.7355C146.815 49.604 145.535 50.3072 144.137 50.7676C143.541 50.9641 142.945 51.16 142.327 51.2892C141.394 51.4837 140.452 51.5002 139.507 51.5102C139.469 51.5106 139.43 51.5087 139.391 51.5069C139.344 51.5047 139.297 51.5025 139.25 51.5043C137.533 51.5683 135.903 51.1459 134.291 50.622C134.137 50.5719 133.981 50.5273 133.826 50.4826C133.734 50.4565 133.643 50.4303 133.552 50.4031C133.376 50.3501 133.21 50.3798 133.061 50.4804C132.773 50.6745 132.464 50.8327 132.155 50.9909C131.802 51.1719 131.449 51.3529 131.126 51.5878C131.086 51.6172 131.025 51.6179 130.964 51.6187Z" fill="#00160A"/>
<path fill-rule="evenodd" clip-rule="evenodd" d="M110.466 96.9647L110.466 96.9646L110.466 96.9646C110.589 96.856 110.716 96.7454 110.848 96.6357C110.935 96.5204 111.025 96.4104 111.112 96.3027L111.112 96.3027C111.325 96.0411 111.527 95.7929 111.668 95.514C112.019 94.8225 111.832 94.5733 111.093 94.2416C110.757 94.0903 110.447 93.8791 110.138 93.6675C109.935 93.5289 109.732 93.3902 109.52 93.268L109.473 93.2404L109.473 93.2404C109.187 93.0746 108.875 92.8938 108.564 92.8681C106.935 92.7336 105.539 94.8828 106.188 96.4393C106.859 98.0484 108.196 98.5353 109.595 97.6527C109.901 97.4595 110.177 97.2177 110.466 96.9647ZM106.778 95.7844C106.735 95.2417 106.809 94.7449 107.206 94.3374C107.308 94.2593 107.394 94.2027 107.47 94.1532C107.544 94.1051 107.607 94.0636 107.665 94.0153C108.35 93.4446 108.79 93.4819 109.472 94.0357C109.874 94.3629 110.355 94.6171 110.836 94.8174C111.206 94.9713 111.244 95.1814 111.016 95.4C110.871 95.5391 110.728 95.6823 110.584 95.8258L110.584 95.8259C110.079 96.3313 109.569 96.8408 108.97 97.1893C108.057 97.7197 106.866 96.8736 106.778 95.7844ZM65.3405 96.8125L65.4451 96.7197C66.0313 96.1993 66.5935 95.7002 67.2224 95.3077C67.9208 94.8718 68.7145 95.0586 69.3287 95.6332C70.2731 96.5166 70.8996 96.4139 71.5157 95.66C71.575 95.5875 71.6404 95.5154 71.7158 95.4611C71.7978 95.4022 71.879 95.3372 71.9607 95.2719C72.3266 94.9791 72.7029 94.6781 73.2056 94.8713C73.8254 95.1096 74.0745 95.6724 74.2701 96.3136C74.7158 97.7742 73.8098 99.0147 72.6752 99.6616C71.3717 100.405 69.9675 100.695 68.5271 100.91C67.4923 101.065 65.4984 100.166 65.0499 99.4332C64.4709 98.4879 64.8241 97.6847 65.3405 96.8125ZM71.4223 99.4291C71.4828 99.3988 71.5435 99.3688 71.6041 99.3388C72.6707 98.8114 73.731 98.2871 73.5517 96.7533C73.5422 96.6723 73.5377 96.5874 73.5331 96.5024V96.5024C73.5126 96.1169 73.4919 95.7281 73.0088 95.6788C72.7013 95.6473 72.2957 95.905 72.0411 96.1451C70.9862 97.1403 70.1112 97.2346 69.0051 96.1915C68.6677 95.8734 68.2898 95.5435 67.6482 95.7973C66.5314 96.2391 66.0347 97.1593 65.6535 98.1427C65.4796 98.5912 65.5245 99.2211 66.1967 99.4327C66.3962 99.4955 66.5966 99.5707 66.7974 99.646C67.3104 99.8385 67.8259 100.032 68.3358 100.022C69.1421 100.007 69.9448 99.8027 70.7843 99.5887C70.9944 99.5351 71.2069 99.481 71.4223 99.4291ZM95.1013 135.627L95.0643 135.703C94.6054 136.648 94.1618 137.562 93.131 137.964C92.0575 138.383 90.324 138.521 89.4806 137.449C88.9809 136.814 88.9479 135.971 89.5079 135.368C89.6852 135.178 89.8733 134.993 90.0615 134.807C90.5386 134.337 91.0168 133.866 91.3227 133.303C91.6151 132.765 91.7457 132.139 91.8764 131.512C91.9367 131.223 91.997 130.934 92.0732 130.653C92.3155 129.761 92.5695 128.856 93.4462 128.361C94.0778 128.003 94.5807 128.236 95.0527 128.811C95.9097 129.856 95.8279 131.036 95.7469 132.205L95.7469 132.205C95.7259 132.508 95.7049 132.81 95.7004 133.109C95.6916 133.691 95.5178 134.27 95.3399 134.863C95.2738 135.083 95.2072 135.306 95.1482 135.531L95.1013 135.627ZM93.062 130.969C93.0474 131.059 93.0333 131.148 93.0192 131.238C92.8675 132.199 92.7144 133.169 92.0618 133.944C91.5672 134.531 91.0084 135.075 90.4212 135.571C89.8668 136.038 89.7713 136.59 90.2703 137.088C91.1488 137.966 93.2792 137.567 93.8999 136.366C94.2685 135.653 94.5817 134.901 94.8296 134.137C95.2883 132.724 95.0041 131.342 94.483 130.002C94.4042 129.799 94.1823 129.533 94.0094 129.52C93.8469 129.507 93.6206 129.763 93.496 129.95C93.3164 130.219 93.2034 130.533 93.062 130.969ZM93.1572 101.457C92.5087 100.991 91.8922 100.983 91.2265 101.136C90.1368 101.385 88.959 102.655 88.959 103.954C88.959 105.263 89.5411 106.22 90.6141 106.837C91.6497 107.433 92.7396 107.849 94.0241 107.731C95.5282 107.594 96.665 107.005 97.2801 105.63C97.4081 105.344 97.3961 104.995 97.384 104.646C97.3785 104.486 97.373 104.326 97.3809 104.172C97.2487 104.173 97.1125 104.163 96.9763 104.153C96.6698 104.13 96.3633 104.108 96.1023 104.206C95.6162 104.389 95.3564 104.221 95.193 103.858C94.7416 102.856 94.0579 102.104 93.1572 101.457ZM90.8727 102.2C91.4993 101.905 92.6539 101.576 93.339 102.2C94.0241 102.823 94.2837 103.408 94.4558 103.807C94.8713 104.772 95.4554 105.089 96.442 104.823C96.535 104.798 96.6348 104.798 96.7346 104.798C96.7808 104.798 96.827 104.798 96.8726 104.795C96.8586 104.841 96.846 104.887 96.8334 104.934C96.8063 105.033 96.7792 105.133 96.738 105.226C95.7633 107.434 92.6305 107.105 91.1659 106.173C90.2725 105.604 89.7648 104.863 89.808 103.782C89.8379 103.033 90.2279 102.504 90.8727 102.2ZM96.7898 120.127L96.7897 120.127C96.4387 120.459 96.0996 120.78 95.6985 120.969C94.8221 121.383 93.8867 121.17 93.0342 120.751C91.5953 120.043 90.7078 118.967 90.7967 117.265C90.8601 116.051 91.5847 115.344 92.5633 114.76C93.3884 114.268 94.1942 114.165 95.0571 114.58C95.702 114.89 95.8796 115.492 96.0549 116.086C96.0901 116.205 96.1251 116.324 96.1638 116.44C96.214 116.59 96.2277 116.754 96.2413 116.917C96.256 117.094 96.2708 117.272 96.3326 117.431C96.4223 117.662 96.6399 117.948 96.8564 118.008C97.923 118.304 98.0291 118.565 97.3576 119.465C97.3395 119.489 97.3305 119.52 97.3198 119.557L97.3198 119.557L97.3198 119.557C97.3088 119.595 97.296 119.64 97.2697 119.69C97.1031 119.831 96.9453 119.98 96.7898 120.127L96.7898 120.127ZM95.9851 119.752L95.9852 119.752C96.054 119.721 96.1229 119.69 96.1791 119.644C96.853 119.094 96.8509 119.092 96.203 118.531L96.1689 118.501C95.9793 118.337 95.8259 118.077 95.761 117.833C95.694 117.581 95.6478 117.321 95.6018 117.062C95.5273 116.643 95.453 116.225 95.2905 115.843C95.1463 115.504 94.6802 115.16 94.3082 115.09C93.5476 114.947 91.87 116.303 91.8027 117.078C91.7119 118.123 92.0257 119.013 92.9954 119.598C93.9056 120.147 94.8125 120.464 95.8907 119.796C95.9213 119.78 95.9532 119.766 95.9851 119.752ZM57.0585 106.6C58.6181 105.599 59.6164 104.27 59.8245 102.329C59.8245 102.156 59.8304 101.99 59.8361 101.829C59.8482 101.484 59.8596 101.162 59.8109 100.849C59.705 100.169 59.4812 99.5085 58.5436 99.6604C58.085 99.7347 57.6138 99.9454 57.2277 100.21C56.4291 100.758 56.1596 101.664 55.9032 102.526L55.8802 102.604C55.5004 103.877 54.9111 104.774 53.4013 104.773C53.1381 104.773 52.7101 105.267 52.6429 105.592C52.4599 106.477 53.3423 107.385 54.2908 107.421C55.3072 107.46 56.1977 107.153 57.0585 106.6ZM55.0487 106.656C54.9665 106.674 54.8843 106.692 54.8035 106.713C54.1206 106.789 53.795 106.432 53.4809 106.087L53.4808 106.087L53.4802 106.087L53.48 106.086C53.4556 106.059 53.4313 106.033 53.4069 106.006C53.3564 105.952 53.3832 105.73 53.4461 105.684L53.4917 105.651C53.6898 105.507 53.9052 105.35 54.1324 105.311C55.2811 105.115 55.9167 104.447 56.314 103.361C56.6485 102.446 57.1515 101.577 57.6927 100.763C57.8657 100.503 58.4068 100.379 58.7641 100.405C58.9036 100.415 59.095 101.007 59.1024 101.338C59.161 103.95 57.7091 105.577 55.5661 106.509C55.4031 106.58 55.2259 106.618 55.0487 106.656ZM58.0919 112.901C58.3705 112.058 58.9767 111.518 59.5746 110.986L59.5747 110.986C59.7862 110.797 59.9966 110.61 60.1912 110.41C60.5772 110.014 61.4664 110.533 61.6635 111.204C61.7458 111.484 61.8261 111.765 61.9063 112.046L61.9064 112.046L61.9064 112.046C62.1086 112.754 62.3108 113.462 62.5455 114.159C62.7492 114.763 62.6649 115.236 62.2318 115.709C61.9037 116.068 61.6071 116.477 61.3909 116.911C60.8596 117.978 60.0778 118.243 58.8916 117.315C57.3251 116.089 57.5334 114.548 58.0919 112.901ZM61.8046 114.421L61.5408 113.761C61.2985 113.154 61.0562 112.548 60.8153 111.941C60.7658 111.817 60.7207 111.691 60.6755 111.565C60.6547 111.507 60.6339 111.449 60.6128 111.391C60.5516 111.42 60.4884 111.446 60.4253 111.473C60.2883 111.53 60.1514 111.588 60.0349 111.673C59.1712 112.306 58.7626 113.248 58.5817 114.233C58.4375 115.017 58.4031 115.91 59.0256 116.559C59.3114 116.857 59.7672 117.035 60.1784 117.138C60.2412 117.154 60.3537 116.958 60.4731 116.75C60.5407 116.632 60.6106 116.51 60.6748 116.421C60.7837 116.27 60.8967 116.122 61.0097 115.974L61.0097 115.974L61.0097 115.974L61.0098 115.974L61.0098 115.974L61.0098 115.974L61.0099 115.973L61.0099 115.973L61.0099 115.973L61.01 115.973C61.1957 115.73 61.3814 115.486 61.5487 115.23C61.6629 115.056 61.7114 114.838 61.7798 114.532L61.8046 114.421ZM77.7417 110.314C76.3171 109.775 74.898 110.101 74.8167 111.946C74.9027 112.144 74.9822 112.341 75.0605 112.536C75.2828 113.089 75.4962 113.62 75.8254 114.066C77.0132 115.673 78.5157 116.155 80.1866 115.486C81.249 115.061 81.2537 114.088 80.5424 113.478C79.874 112.905 79.2984 112.26 78.9446 111.392C78.759 110.937 78.2211 110.496 77.7417 110.314ZM79.1597 114.787C78.3916 114.927 77.6182 115.068 77.009 114.351C76.2519 113.606 75.7288 112.85 75.6614 111.847C75.6343 111.443 75.7938 111.224 76.1713 111.074C76.7014 110.863 77.9212 111.121 78.0388 111.644C78.2055 112.386 78.6447 112.923 79.0843 113.461C79.2579 113.674 79.4315 113.886 79.5885 114.112C79.6798 114.242 79.777 114.48 79.719 114.576C79.6479 114.693 79.421 114.74 79.253 114.77L79.1597 114.787ZM74.251 129.201C74.2792 129.03 74.2961 128.857 74.3126 128.689C74.3512 128.296 74.3875 127.925 74.5614 127.638C75.0119 126.895 74.9067 126.256 74.5373 125.567C74.5011 125.5 74.4812 125.424 74.4614 125.348C74.4422 125.274 74.4231 125.2 74.3892 125.135C74.0889 124.551 74.2298 123.978 74.7541 123.735C75.1228 123.564 75.7393 123.617 76.1115 123.818C77.3215 124.471 77.8702 125.63 78.0568 126.936C78.2198 128.077 77.964 129.186 77.4996 130.233C76.9006 131.583 75.6912 131.411 74.9198 130.611C74.6775 130.359 74.5474 130 74.4097 129.62C74.3597 129.482 74.3087 129.341 74.251 129.201ZM76.6554 125.453C76.5832 125.381 76.5122 125.307 76.4413 125.234L76.4413 125.234C76.2666 125.052 76.0919 124.87 75.8983 124.712C75.8164 124.645 75.6982 124.622 75.5801 124.6C75.5264 124.589 75.4727 124.579 75.4225 124.565C75.4106 124.621 75.3896 124.682 75.3687 124.744L75.3686 124.744C75.3234 124.876 75.2782 125.009 75.324 125.089C75.8316 125.985 75.7159 126.81 75.1842 127.653C75.072 127.831 75.031 128.053 74.9899 128.276L74.9899 128.276C74.9696 128.386 74.9492 128.497 74.9202 128.602C74.7622 129.175 75.1834 130.262 75.7197 130.427L75.7654 130.442C76.0513 130.532 76.4367 130.653 76.664 130.175C77.3957 128.639 77.6385 127.12 76.6554 125.453ZM118.288 110.789C119.198 111.189 120.728 111.055 121.88 109.789C121.965 109.658 122.05 109.531 122.133 109.404C122.395 109.011 122.645 108.634 122.856 108.237C123.385 107.244 122.468 105.715 121.336 105.738C121.014 105.744 120.694 105.805 120.373 105.866C120.074 105.923 119.776 105.98 119.476 105.993C118.566 106.032 117.845 106.355 117.338 107.118C116.46 108.438 116.79 110.13 118.288 110.789ZM119.73 106.998C119.775 106.997 119.819 106.996 119.864 106.996C119.971 106.978 120.072 106.966 120.168 106.954C120.427 106.923 120.638 106.898 120.756 106.78C121.143 106.395 121.48 106.574 121.779 106.808C122.101 107.062 122.28 107.373 122.125 107.868C121.759 109.036 121.098 109.897 119.89 110.208C119.212 110.382 118.579 110.215 118.11 109.629C117.686 109.099 117.621 108.538 117.934 107.938C118.25 107.33 118.693 106.92 119.44 106.994C119.536 107.003 119.633 107.001 119.73 106.998ZM102.22 108.658C103.112 108.068 103.963 108.03 104.773 108.699C105.002 108.889 105.204 109.132 105.357 109.387C105.425 109.499 105.465 109.632 105.505 109.763C105.556 109.932 105.607 110.099 105.715 110.218C106.194 110.747 105.894 111.221 105.503 111.414C104.513 111.904 103.47 112.303 102.415 112.632C101.86 112.805 101.118 112.149 100.983 111.521C100.687 110.144 101.245 109.236 102.22 108.658ZM104.66 110.603C104.591 110.509 104.523 110.415 104.455 110.321C104.291 110.092 104.126 109.864 103.948 109.645L103.932 109.626C103.813 109.479 103.659 109.291 103.506 109.274C102.356 109.149 101.37 110.478 101.839 111.517C101.977 111.823 102.261 112.151 102.597 111.792C103.061 111.296 103.635 111.195 104.242 111.088L104.283 111.081C104.451 111.051 104.582 110.815 104.66 110.603ZM99.832 139.627C99.8083 139.742 99.7835 139.862 99.7448 139.986C99.7508 140.077 99.7755 140.159 99.7989 140.237L99.7989 140.237C99.8218 140.313 99.8435 140.385 99.8451 140.457C99.885 142.204 102.167 143.554 103.591 143.348C104.586 143.203 105.131 142.841 105.275 141.925C105.402 141.109 105.202 140.217 104.563 139.696C103.827 139.096 102.939 138.645 102.057 138.274C101.008 137.833 100.346 138.186 99.935 139.238C99.8873 139.36 99.8604 139.49 99.832 139.627ZM100.876 139.315C100.939 139.197 101.001 139.079 101.053 138.96C101.18 138.991 101.307 139.02 101.433 139.048C102.613 139.317 103.707 139.566 104.233 140.74C104.483 141.297 104.767 141.965 104.083 142.398C103.753 142.607 103.249 142.672 102.85 142.617C101.858 142.479 100.447 141.409 100.578 140.097C100.604 139.829 100.74 139.572 100.876 139.315ZM101.548 121.988C102.699 122.096 103.612 122.605 103.802 123.818C103.869 124.248 104.14 124.305 104.439 124.367C104.482 124.376 104.526 124.386 104.57 124.396C105.231 124.554 105.757 125.099 105.653 125.958C105.577 126.58 105.257 126.834 104.366 126.784C103.769 126.75 103.143 126.687 102.593 126.474C100.813 125.785 100.303 124.32 100.429 122.771C100.476 122.189 100.905 121.952 101.548 121.988ZM104.165 125.1C103.402 125.148 103.037 124.691 102.978 124.025C102.915 123.321 102.411 123.097 101.915 122.875L101.858 122.85C101.504 122.691 101.086 123.104 101.144 123.493C101.362 124.949 103.019 126.213 104.506 126.099C105.054 126.057 104.985 125.774 104.787 125.485C104.722 125.39 104.603 125.332 104.463 125.264C104.37 125.218 104.268 125.168 104.165 125.1ZM87.2631 149.427C87.2802 149.24 87.2814 149.051 87.2825 148.866C87.285 148.459 87.2873 148.074 87.4609 147.797C87.8845 147.121 88.3951 146.5 88.9057 145.878L88.9058 145.878C89.1137 145.625 89.3216 145.372 89.5237 145.115C89.8711 144.674 90.4102 144.418 90.8498 144.657C91.2964 144.899 91.7298 145.393 91.9 145.872C92.3046 147.012 91.7944 147.991 91.0312 148.827C90.8148 149.064 90.5694 149.274 90.3239 149.485C90.1304 149.651 89.9368 149.817 89.7571 149.996C88.76 150.99 87.8713 150.527 87.2631 149.427ZM89.7382 149.144C90.7572 148.474 91.4146 147.604 91.3714 146.313C91.3563 145.862 91.1873 145.561 90.7781 145.37C90.3482 145.17 90.0551 145.44 89.9228 145.73C89.5885 146.465 89.111 147.092 88.6327 147.72L88.6326 147.72C88.4671 147.937 88.3014 148.155 88.1415 148.377C87.9788 148.603 88.0793 149.15 88.2437 149.446C88.4353 149.792 88.8185 149.734 89.1422 149.469C89.2213 149.404 89.3167 149.359 89.4269 149.307C89.5204 149.263 89.6245 149.214 89.7382 149.144ZM83.851 140.98C84.2918 139.958 84.3584 138.861 84.1162 137.723C84.096 137.703 84.0804 137.688 84.0683 137.677C84.049 137.659 84.0383 137.649 84.0315 137.637C83.5429 136.767 83.0315 136.378 82.4573 136.569C81.7306 136.809 81.4597 137.353 81.4339 138.142C81.4155 138.705 81.1921 139.202 80.4354 139.423C79.3122 139.751 79.3931 140.757 80.0861 141.302C80.3507 141.51 80.6874 141.631 81.0206 141.75C81.1254 141.787 81.2299 141.825 81.3317 141.864C81.969 142.114 83.5365 141.709 83.851 140.98ZM83.357 138.184C83.3854 138.231 83.4137 138.279 83.4443 138.324C83.4443 138.577 83.4607 138.821 83.4764 139.055C83.5093 139.544 83.5391 139.988 83.4096 140.38C83.0775 141.383 81.1044 141.562 80.475 140.693C80.4077 140.6 80.5951 140.146 80.7241 140.116C81.7673 139.873 82.1545 139.197 82.1903 138.189C82.198 137.97 82.4082 137.709 82.6002 137.573C82.6723 137.522 82.9766 137.75 83.1398 137.891C83.2294 137.969 83.2932 138.076 83.357 138.184Z" fill="#F7821F"/>
</svg>
