<svg width="183" height="169" viewBox="0 0 183 169" fill="none" xmlns="http://www.w3.org/2000/svg">
<g id="Group">
<path id="Blob" fill-rule="evenodd" clip-rule="evenodd" d="M101.104 0.564697C148.486 0.564697 158.461 66.2291 158.655 66.7694C158.855 67.3261 159.043 67.8991 159.225 68.4552C159.595 69.5846 160.07 70.672 160.44 71.794C160.666 72.4785 161.082 73.0454 161.36 73.6918C161.9 74.9268 162.562 76.1051 163.336 77.2092C163.656 77.6466 163.907 78.1298 164.081 78.6425C164.203 79.0347 164.608 79.1395 164.783 79.4857C165.066 80.0462 165.444 80.5584 165.77 81.0965C165.844 81.2858 166.015 81.4203 166.217 81.4485L166.153 81.9827C166.271 82.1752 166.312 81.915 166.435 81.9608C166.59 82.1693 166.811 82.3545 166.833 82.672C166.854 82.9703 167.202 82.9984 167.321 83.2587C167.583 83.8237 168.31 84.1117 168.299 84.8531C168.821 85.181 169.078 85.7442 169.473 86.186C169.675 86.3894 169.798 86.6573 169.822 86.9417L169.825 87.0076C169.823 87.2904 170.369 87.2269 170.222 87.6128C171.058 88.2402 171.275 89.2653 171.716 90.1145C172.424 91.4772 173.24 92.7937 173.721 94.2859C173.962 95.0322 174.429 95.7383 174.688 96.4941C175.272 98.1931 175.973 99.855 176.353 101.624C176.509 102.355 176.829 103.051 176.978 103.784L177.151 104.631C177.408 105.902 177.652 107.177 177.814 108.465C177.897 108.755 177.897 109.063 177.814 109.354C177.674 109.685 178.044 109.897 178.074 110.228C178.111 110.622 177.954 110.995 178.067 111.412C178.13 111.643 178.067 112.012 178.139 112.28C178.372 113.148 178.077 114.044 178.33 114.907C178.37 115.24 178.335 115.578 178.228 115.896C178.052 116.958 178.373 118.043 178.053 119.08C177.903 119.591 177.875 120.13 177.969 120.653L178.009 120.855C178.037 121.004 178.056 121.15 177.982 121.251C177.691 121.649 177.766 122.119 177.708 122.554L177.697 122.626C177.613 123.114 177.699 123.625 177.552 124.122C177.351 124.609 177.238 125.127 177.219 125.653C177.293 126.545 176.993 127.345 176.809 128.173C176.717 128.587 176.793 129.078 176.338 129.386C176.106 129.543 176.653 129.846 176.321 130.076L176.283 130.1C176.039 130.237 176.05 130.458 176.118 130.724C176.181 130.966 175.758 131.134 175.879 131.382C176 131.63 176.055 131.991 175.913 132.037C175.559 132.153 175.919 132.538 175.622 132.611C175.593 132.627 175.572 132.655 175.567 132.688C175.466 133.619 174.866 134.384 174.718 135.315C174.605 135.871 174.389 136.4 174.079 136.876C173.823 137.335 173.606 137.815 173.429 138.31C173.096 139.142 172.527 139.837 172.206 140.666C172.119 140.89 171.538 140.815 171.833 141.275C171.495 141.395 171.598 141.746 171.461 141.965C171.311 142.131 171.136 142.272 170.943 142.385C170.818 142.878 170.578 143.335 170.243 143.718C169.658 144.574 169.019 145.392 168.33 146.167L167.761 146.804C167.001 147.654 166.216 148.485 165.214 149.07C164.956 149.221 165.074 149.506 164.862 149.661C163.633 150.568 162.502 151.597 161.104 152.284C160.519 152.572 160.017 153.083 159.419 153.383C158.286 153.952 157.234 154.66 156.022 155.103L155.806 155.178C155.034 155.435 154.274 155.824 153.49 156.107C151.881 156.74 150.2 157.176 148.486 157.407L147.428 157.525C146.488 157.629 145.547 157.724 144.597 157.75C144.148 157.763 143.717 157.62 143.305 157.672C142.905 157.722 142.498 157.689 142.111 157.575C141.804 157.49 141.546 157.753 141.216 157.611C140.963 157.453 140.649 157.43 140.377 157.545L140.323 157.57C140.167 157.66 139.859 157.493 139.621 157.439C139.274 157.391 138.933 157.307 138.603 157.188C138.348 157.07 138.022 157.449 137.844 157.046C137.521 157.296 115.569 152.08 95.4047 162.673C93.7625 163.761 91.841 164.239 90.0864 165.084C89.2706 165.477 88.3537 165.657 87.4756 165.926L87.2881 165.985C85.7382 166.486 84.1486 166.828 82.5614 167.185C81.1031 167.5 79.6255 167.72 78.1384 167.842C77.0691 167.939 75.9949 167.984 74.9282 168.1C74.4956 168.147 74.0716 167.842 73.6484 168.104C72.6974 167.845 71.699 168.16 70.7506 167.867C70.1199 168.054 69.5273 167.822 68.9475 167.652C68.5051 167.52 68.0882 167.793 67.6411 167.599C67.2341 167.387 66.7783 167.286 66.3196 167.306C65.5581 167.423 64.8954 167.143 64.2018 166.996C62.5902 166.653 60.9844 166.282 59.3844 165.883C58.8604 165.752 58.2718 165.802 57.8228 165.402C57.429 165.05 56.8075 165.27 56.4205 164.855C56.2793 164.704 56.0991 164.997 55.8864 164.882C55.4715 164.66 54.9382 164.807 54.5505 164.405C54.2633 164.107 53.7213 164.308 53.4033 163.949L53.3614 163.897C53.1738 163.636 52.6786 164.25 52.5321 163.67C51.9403 163.624 51.4499 163.302 50.923 163.081C50.4865 162.899 49.9713 163.002 49.5773 162.621C49.2417 162.297 48.6073 162.536 48.3165 162.05C47.6052 162.044 47.0805 161.512 46.4026 161.372C45.888 161.237 45.3938 161.034 44.9333 160.767C44.2033 160.392 43.462 160.038 42.7152 159.703C42.4473 159.578 42.1864 159.439 41.9339 159.286C41.7923 159.203 41.7579 159.019 41.5556 158.975C40.275 158.691 39.198 157.945 38.1041 157.292C37.4804 156.97 36.8836 156.598 36.3193 156.181L36.1325 156.04C35.9674 155.898 35.6244 155.828 35.4792 155.631C35.0745 155.081 34.469 154.812 33.9201 154.482L33.8292 154.426C33.5199 154.244 33.2387 154.018 32.9946 153.755C32.9484 153.705 32.9296 153.596 32.8805 153.584C31.9692 153.359 31.4254 152.606 30.7287 152.08C30.1294 151.628 29.6052 151.077 29.015 150.616L28.7904 150.448C27.4093 149.46 12.2977 132.832 10.5854 129.962L10.0954 129.141C9.60603 128.318 9.12233 127.489 8.67698 126.644L8.29772 125.924C7.91906 125.203 7.54634 124.477 7.21683 123.738L6.77596 122.752C5.89638 120.778 5.03569 118.795 4.3021 116.758C3.64795 114.94 3.10641 113.092 2.55969 111.243C2.2095 110.055 1.9136 108.863 1.66362 107.653C1.26423 105.72 0.908095 103.778 0.59521 101.829C0.303385 99.9942 0.411332 98.1322 0.0216226 96.3179C0.276944 95.2036 -0.192466 94.073 0.0990009 92.9599C-0.117213 92.4105 0.072908 91.8401 0.0932294 91.2986C0.114073 90.7393 -0.0113692 90.1535 0.211948 89.5868C0.314249 89.3294 0.0777711 89.02 0.2059 88.7056C0.346558 88.444 0.362791 88.1333 0.250164 87.8585C0.629853 87.684 0.177279 87.4153 0.334955 87.1666C0.504954 86.8968 0.580052 86.5781 0.548385 86.2609C0.437818 85.5509 0.846786 84.8953 0.77499 84.2539C0.700127 83.5979 1.02407 83.0419 1.02305 82.454L1.01888 82.3434C0.962967 81.5716 1.51469 80.9905 1.53309 80.2603C1.53483 80.1963 1.68584 80.1374 1.76863 80.0739C1.74207 79.9097 1.56045 79.9469 1.43161 79.8192C1.63729 79.6407 1.81725 79.4346 1.96639 79.2069C2.07927 78.8946 2.15945 78.5714 2.20562 78.2427L1.68261 77.568C1.87561 77.1821 1.80832 76.831 2.066 76.5283C2.17815 76.3961 2.11561 75.9919 2.12946 75.7129C2.14771 75.3464 2.61869 75.1281 2.50508 74.8386C2.41743 74.5057 2.44583 74.1529 2.58559 73.8383C3.25941 70.8677 3.94576 67.9 4.64464 64.9352C4.71814 64.6173 4.65419 64.2176 5.04527 64.0315C4.61793 63.5903 5.28904 63.4363 5.29945 63.0865C5.35393 62.7596 5.4799 62.4487 5.66842 62.1759C5.93534 61.6655 5.95989 61.0321 6.11193 60.4569C6.15197 60.0503 6.30599 59.6632 6.55634 59.3399C6.81667 59.0703 6.77915 58.6008 6.97518 58.2223C7.25211 57.7649 7.46673 57.2727 7.61339 56.7587C7.65757 56.3894 7.80481 56.0398 8.03832 55.75C8.24568 55.5211 8.07537 55.0471 8.4784 54.8743C8.59143 54.21 8.98811 53.6764 9.28178 53.0943L9.33554 52.9846C10.0569 51.4867 10.8677 50.0333 11.7635 48.6324C12.5078 47.4534 13.2319 46.2618 13.9875 45.0901C14.2334 44.712 14.4948 44.3351 14.7651 43.9761C15.7041 42.6555 16.7156 41.3878 17.7948 40.1788C18.7819 39.1328 19.7228 38.0398 20.7592 37.034C21.3102 36.499 21.761 35.842 22.296 35.2736C23.5565 33.9321 24.8509 32.6269 26.2124 31.3882C27.3622 30.2523 28.6196 29.2303 29.9669 28.3366C30.3332 28.1139 30.6344 27.7873 30.988 27.5407C31.4173 27.3043 31.8291 27.0377 32.2206 26.743C32.6759 26.3147 33.2347 26.0423 33.6946 25.6456C34.0517 25.3378 34.6228 25.5133 34.8784 24.9595C35.0646 24.5566 35.7618 24.7042 35.9966 24.2334C36.6401 24.2121 36.9407 23.5889 37.5251 23.3841L37.603 23.3598C38.2188 23.1919 38.7443 22.6948 39.3092 22.3424C39.8541 21.9566 40.4242 21.6076 41.0158 21.2978C42.1265 20.7977 43.0851 20.0356 44.1707 19.519C45.2058 19.0272 46.1373 18.3071 47.2662 18.0329C47.5329 17.9683 47.4832 17.7331 47.6668 17.6327C47.8577 17.5277 48.0669 17.5973 48.2395 17.4762C48.9534 17.0105 53.7229 0.564697 101.104 0.564697Z" fill="#D2D4E6"/>
<path id="Shape" fill-rule="evenodd" clip-rule="evenodd" d="M47.6577 35.8157C46.0727 36.7098 43.7521 35.5692 43.4919 33.7681C44.5027 33.7141 45.5833 33.6353 46.3825 33.0139C47.1816 32.3924 47.4614 31.0163 46.6603 30.3974C40.1386 29.5965 33.7944 27.3806 28.1922 23.9471C32.0175 22.7945 35.309 20.3632 38.9021 18.6162C42.4951 16.8693 46.8408 15.8362 50.4243 17.6026C53.943 19.3371 57.9937 17.1246 61.6655 15.7435C68.0502 13.3419 75.3716 13.5433 81.6147 16.2921C86.1695 18.2976 93.8878 15.0424 98.8083 14.2958C106.846 13.0764 114.692 18.7096 122.763 17.734C121.897 18.3065 121.031 18.879 120.165 19.4515C121.018 19.3736 121.875 19.3421 122.731 19.3571C116.034 22.5623 109.336 25.7674 102.638 28.9725C104.335 29.6589 106.031 30.3452 107.728 31.0315C107.329 32.3103 105.899 33.1739 104.582 32.9318C105.642 33.7754 106.702 34.6191 107.762 35.4628C106.631 36.2664 105.198 36.6357 103.819 36.4793C105.288 37.4275 106.5 38.7692 107.295 40.3262C110.794 39.1606 114.627 39.0171 118.203 39.9178C114.972 40.3414 111.741 40.765 108.51 41.1886C108.998 42.5171 109.485 43.8456 109.973 45.1741C114.194 44.2081 118.68 44.4277 122.787 45.8014C118.715 45.905 114.643 46.0087 110.571 46.1123C110.475 51.5148 107.786 57.0242 103.063 59.6495C98.3407 62.2749 88.9038 64.6093 85.7779 56.9651C83.3849 58.5357 83.5543 62.311 85.2605 64.6093C86.9667 66.9076 89.6774 68.1797 92.129 69.6572C100.272 74.5649 106.415 82.6925 108.913 91.8664C111.411 101.04 110.238 111.16 105.708 119.519C111.816 120.469 117.492 123.945 121.113 128.954C128.913 125.325 133.232 117.045 139.206 110.856C146.002 103.815 155.383 99.3275 165.129 98.4547C170.896 97.9384 177.472 99.0502 180.835 103.762C185.207 109.887 181.177 119.41 174.198 122.226C168.666 124.458 162.426 123.335 156.476 123.757C144.511 124.605 134.006 131.661 124.139 138.483C123.737 140.692 124.545 143.083 126.204 144.596C129.733 140.948 134.185 138.2 139.028 136.679C140.818 136.117 143.501 136.264 143.7 138.129C143.775 138.836 143.404 139.505 143.028 140.108C139.799 145.284 135.247 149.626 129.924 152.607C127.115 154.18 123.975 155.4 120.76 155.22C117.545 155.04 114.271 153.184 113.179 150.155C112.673 148.751 112.618 147.126 111.66 145.982C110.039 144.047 106.925 144.627 104.652 145.726C102.379 146.825 99.9569 148.319 97.5183 147.667C91.4219 146.037 85.0773 145.338 78.7722 145.601C70.7426 145.938 62.5611 147.807 54.7816 145.79C52.1827 145.117 49.2745 144.054 46.9722 145.435C42.4351 148.157 45.4954 156.87 40.8407 159.386C39.1919 160.277 37.1713 159.948 35.3524 159.497C27.3142 157.501 19.7746 153.529 13.5845 148.026C12.9879 147.496 12.3733 146.901 12.206 146.12C11.7044 143.779 15.1599 142.805 17.5145 143.239C21.5142 143.975 25.3395 145.642 28.6015 148.071C29.745 148.922 31.4849 147.929 31.9693 146.588C32.4537 145.247 32.1204 143.771 31.9313 142.358C30.7372 133.433 36.3364 124.049 44.7581 120.862C39.6592 113.421 37.7203 103.888 39.5079 95.0463C41.2955 86.205 46.7858 78.1734 54.3748 73.2979C57.4065 71.3503 60.8897 69.7572 62.8219 66.7156C64.754 63.674 63.906 58.5711 60.3714 57.8699C57.0412 61.4767 51.6244 63.0022 46.9013 61.6635C42.1782 60.3248 38.3675 56.1838 37.4251 51.366C34.2903 52.4247 31.1554 53.4834 28.0206 54.5421C30.803 52.3977 34.0982 50.9233 37.5512 50.2777C37.8826 48.8417 38.214 47.4058 38.5454 45.9699C32.5637 45.584 26.4978 46.5685 20.9452 48.8262C24.362 46.2542 28.7094 44.9473 32.9781 45.2088C37.3198 45.4747 41.7333 43.3504 44.2338 39.791C42.6694 39.241 41.2633 38.2481 40.2217 36.9577C41.8172 36.0916 43.7496 35.8672 45.5012 36.3445M78.3436 129.991C78.0588 130.268 77.7525 130.598 77.7725 130.994C77.7926 131.391 78.388 131.688 78.5934 131.347C79.7144 129.49 81.6638 128.155 83.8004 127.781C85.937 127.407 88.224 128.001 89.9091 129.367C90.497 129.843 91.0218 130.413 91.6935 130.761C91.9353 130.887 92.3491 130.89 92.3592 130.618C92.3624 130.528 92.3113 130.447 92.2611 130.373C91.0511 128.589 89.2417 127.22 87.1964 126.541C85.4036 125.945 83.3262 125.907 81.7228 126.906C81.1404 127.269 80.6439 127.752 80.1523 128.23C79.5494 128.817 78.9464 129.404 78.3436 129.991ZM69.6492 126.746C67.328 126.439 64.829 127.218 63.2833 128.977C63.0108 129.287 62.7632 129.635 62.6695 130.037C62.5758 130.439 62.6639 130.904 62.9753 131.175C64.1709 129.318 66.2957 128.093 68.5023 127.989C70.709 127.884 72.9397 128.904 74.3049 130.641C74.5184 130.912 74.722 131.209 75.0251 131.375C75.3281 131.541 75.7691 131.52 75.9536 131.228C76.1738 130.879 75.9074 130.433 75.6357 130.122C74.0935 128.361 71.9704 127.053 69.6492 126.746ZM86.0222 124.37C85.9863 124.762 86.5047 125.006 86.8773 124.878C87.2499 124.749 87.497 124.406 87.7465 124.101C89.8215 121.563 93.7727 120.799 96.6448 122.379C97.0214 122.061 97.0429 121.451 96.7908 121.027C96.5387 120.603 96.0785 120.343 95.6088 120.193C94.5915 119.868 93.487 119.979 92.4402 120.191C89.9627 120.692 87.4599 121.866 86.1575 124.033C86.0946 124.137 86.0333 124.248 86.0222 124.37ZM76.282 132.603C75.2638 132.674 74.2672 132.944 73.314 133.309C71.9965 133.813 70.6994 134.547 69.9282 135.728C71.0592 136.049 72.1433 135.205 73.1764 134.645C75.4938 133.387 78.4999 133.517 80.7001 134.97C81.3905 135.426 82.2774 136.015 82.9506 135.534C81.3758 133.56 78.8011 132.428 76.282 132.603ZM80.4652 131.967C81.2375 131.564 81.855 130.911 82.621 130.496C83.6761 129.926 84.9903 129.86 86.0972 130.322C86.6982 130.573 87.2303 130.966 87.8226 131.237C88.4148 131.508 89.1202 131.649 89.7101 131.373C89.7757 131.342 89.8434 131.302 89.8711 131.235C89.9159 131.127 89.8362 131.01 89.7588 130.921C88.4386 129.414 86.3698 128.598 84.3762 128.797C82.3825 128.996 80.516 130.205 79.5197 131.943C79.7276 132.217 80.1603 132.126 80.4652 131.967ZM64.998 132.039C65.4118 131.803 65.7355 131.44 66.1138 131.151C66.8703 130.573 67.8559 130.307 68.8015 130.417C69.8552 130.539 70.8054 131.097 71.6769 131.702C71.9318 131.879 72.1918 132.065 72.4941 132.135C72.7963 132.205 73.1562 132.129 73.3272 131.87C73.4963 131.614 73.4285 131.257 73.2475 131.009C73.0665 130.761 72.7947 130.598 72.53 130.443C71.4529 129.811 70.3145 129.18 69.0675 129.115C67.5087 129.035 66.0598 129.847 64.7117 130.634C64.165 130.953 63.5371 131.436 63.6529 132.059C64.0271 132.353 64.5842 132.274 64.998 132.039ZM72.0182 125.996C72.2996 126.36 72.8507 125.97 73.1613 125.631C74.1183 124.585 75.4978 123.937 76.9136 123.869C78.3294 123.802 79.7645 124.314 80.8173 125.263C81.0828 125.502 81.3629 125.785 81.7203 125.795C82.0777 125.805 82.3997 125.306 82.1162 125.088C80.5985 123.922 78.8326 122.969 76.9229 122.843C75.0131 122.717 72.9548 123.574 72.0707 125.271C71.9522 125.499 71.8615 125.793 72.0182 125.996ZM88.9038 125.677C89.1558 125.57 89.3406 125.354 89.5335 125.159C91.0029 123.681 93.4923 123.351 95.2964 124.395C95.7477 124.656 96.4263 124.943 96.6885 124.493C96.9071 124.117 96.5174 123.68 96.1457 123.455C93.7191 121.983 90.2599 122.544 88.422 124.706C88.2348 124.926 88.0552 125.228 88.1838 125.487C88.3056 125.732 88.6517 125.784 88.9038 125.677ZM90.2453 125.816C90.141 125.903 90.037 126.001 89.9931 126.129C89.8704 126.489 90.3071 126.825 90.6855 126.795C91.0639 126.765 91.3857 126.521 91.729 126.36C92.5662 125.965 93.5723 126.059 94.422 126.426C94.7582 126.571 95.0839 126.758 95.446 126.813C95.8081 126.867 96.2306 126.747 96.3955 126.42C94.9554 124.635 92.0053 124.346 90.2453 125.816ZM67.4763 125.131C67.6912 125.232 67.9844 125.212 68.1227 125.019C68.3108 124.757 68.1092 124.4 67.9097 124.146C67.2338 123.287 66.5068 122.44 65.5778 121.864C64.6488 121.288 63.4788 121.01 62.4442 121.364C62.3389 121.746 62.8145 122.005 63.1888 122.136C64.63 122.638 65.9379 123.517 66.9473 124.662C67.1044 124.84 67.2613 125.03 67.4763 125.131ZM80.2115 126.09C78.5108 125.005 76.1894 124.986 74.4711 126.043C74.1725 126.226 73.8656 126.484 73.8424 126.834C73.8192 127.184 74.2942 127.509 74.5298 127.249C75.4791 126.203 77.2135 125.986 78.3914 126.766C78.9697 127.149 79.8002 127.097 80.326 126.644C80.5742 126.618 80.422 126.224 80.2115 126.09ZM92.5833 131.959C90.1667 131.796 87.9181 133.217 86.164 134.888C86.2917 135.183 86.7273 135.104 87.0224 134.977C89.0199 134.112 91.0174 133.248 93.015 132.383C93.1651 132.185 92.8318 131.975 92.5833 131.959ZM69.5843 133.035C69.8815 133.203 70.1726 133.433 70.5142 133.433C70.8558 133.433 71.1945 133.022 70.9778 132.758C70.2954 131.926 69.223 131.428 68.1471 131.445C67.0712 131.461 66.0145 131.991 65.3579 132.844C65.4388 133.153 65.818 133.296 66.1348 133.25C66.4516 133.204 66.7307 133.025 67.0245 132.898C67.8372 132.546 68.8139 132.598 69.5843 133.035ZM81.5674 132.808C81.5402 133.046 81.8099 133.228 82.049 133.215C82.288 133.202 82.4981 133.062 82.7078 132.946C83.5881 132.461 84.6721 132.362 85.6259 132.679C86.2371 132.882 86.9998 133.213 87.4409 132.744C87.4796 132.476 87.2105 132.274 86.9715 132.147C86.1148 131.691 85.1717 131.347 84.2013 131.356C83.2309 131.365 82.2296 131.772 81.6756 132.569C81.6252 132.641 81.5774 132.72 81.5674 132.808ZM79.7637 122.367C80.7626 122.724 81.693 123.272 82.49 123.973C82.8186 124.261 83.1332 124.581 83.5318 124.761C83.9304 124.941 84.4478 124.946 84.7598 124.64C84.0695 124.11 83.5024 123.421 83.1157 122.642C82.9073 122.222 82.352 122.145 81.8839 122.122C81.1998 122.089 80.5156 122.055 79.8315 122.022C79.7593 122.119 79.7336 122.249 79.7637 122.367ZM70.8408 124.769C71.194 124.439 71.4547 124.023 71.781 123.666C72.287 123.114 72.9536 122.709 73.6777 122.516C73.9901 122.433 74.4009 122.273 74.3537 121.953C73.4686 121.799 72.4587 121.675 71.7607 122.241C70.7831 123.033 70.008 124.073 69.5285 125.236C70.0004 125.341 70.4876 125.099 70.8408 124.769ZM62.9731 124.368C63.6074 124.781 64.2417 125.195 64.876 125.608C65.1445 125.783 65.4874 125.962 65.766 125.804C66.0245 125.657 66.064 125.278 65.9292 125.012C65.7945 124.747 65.5376 124.57 65.2909 124.404C64.7744 124.056 64.258 123.708 63.7416 123.361C63.3091 123.069 62.6046 122.837 62.3693 123.302C62.1665 123.704 62.5965 124.123 62.9731 124.368ZM76.3285 129.336C76.5712 129.577 76.9113 129.838 77.2196 129.69C77.3603 129.623 77.4508 129.484 77.5341 129.352C77.8091 128.918 78.0841 128.483 78.3591 128.049C77.6391 127.248 76.2258 127.227 75.482 128.005C75.4248 128.065 75.3691 128.133 75.3589 128.215C75.3428 128.346 75.4432 128.458 75.5363 128.55C75.8004 128.812 76.0644 129.074 76.3285 129.336ZM65.2286 135.551C65.7445 135.732 66.3533 135.786 66.8083 135.483C66.1234 134.695 65.3206 134.01 64.4351 133.457C64.1838 133.3 63.9006 133.149 63.6074 133.191C63.3142 133.232 63.0547 133.566 63.1967 133.826C63.6325 134.623 64.371 135.25 65.2286 135.551ZM93.53 129.22C93.7738 128.925 94.0176 128.63 94.2614 128.336C94.3454 128.234 94.434 128.12 94.4288 127.988C94.4221 127.821 94.2691 127.701 94.1235 127.619C93.6169 127.334 93.0187 127.215 92.4417 127.285C92.221 127.311 91.9911 127.371 91.8359 127.531C91.6808 127.69 91.6361 127.972 91.7922 128.131C92.1461 128.489 92.5 128.848 92.8539 129.206C92.9695 129.323 93.1161 129.45 93.2769 129.415C93.3832 129.392 93.4606 129.303 93.53 129.22ZM68.0923 122.856C68.311 123.091 68.5857 123.332 68.9058 123.306C69.5924 123.249 69.8138 122.064 70.4997 122.129C70.6839 121.825 70.1813 121.583 69.8263 121.577C68.9076 121.562 67.9889 121.548 67.0702 121.533C67.3701 122.004 67.7126 122.447 68.0923 122.856ZM73.7663 135.769C75.6774 135.76 77.5884 135.752 79.4995 135.744C79.332 135.366 78.8837 135.212 78.4791 135.129C77.153 134.854 75.7623 134.896 74.4552 135.25C74.1625 135.329 73.8284 135.472 73.7663 135.769ZM85.5662 133.758C84.9339 133.786 84.3016 133.815 83.6693 133.843C83.4652 133.853 83.2032 133.912 83.178 134.115C83.1668 134.205 83.2123 134.292 83.2563 134.372C83.4235 134.676 83.6014 134.991 83.8905 135.183C84.1796 135.374 84.6147 135.393 84.8396 135.129C85.012 134.927 85.0256 134.611 85.2311 134.443C85.3636 134.335 85.5473 134.313 85.6939 134.224C85.8404 134.136 85.9337 133.906 85.7978 133.801C85.7341 133.753 85.6465 133.754 85.5662 133.758ZM69.1937 134.815C69.3627 134.552 69.2029 134.179 68.9396 134.009C68.6764 133.839 68.3474 133.819 68.0347 133.804C67.6893 133.786 67.2345 133.85 67.1726 134.19C67.143 134.352 67.2256 134.511 67.3054 134.656C67.5397 135.079 67.8845 135.564 68.3658 135.516C68.7389 135.479 68.9915 135.131 69.1937 134.815ZM94.1721 131.023C94.4559 131.047 94.7103 130.854 94.9094 130.651C95.5166 130.03 95.9028 129.197 95.9844 128.333C95.7834 128.204 95.5377 128.403 95.3837 128.585C94.8666 129.197 94.3496 129.808 93.8325 130.42C93.6486 130.637 93.8884 131 94.1721 131.023ZM62.5418 126.692C62.8301 127.053 63.3863 127.166 63.7926 126.946C64.0007 126.834 64.1763 126.611 64.1349 126.378C64.0981 126.17 63.9094 126.03 63.7353 125.911C63.4839 125.74 63.2325 125.568 62.981 125.397C62.9042 125.345 62.816 125.29 62.725 125.309C62.6622 125.321 62.6118 125.368 62.5697 125.416C62.2658 125.764 62.2534 126.331 62.5418 126.692ZM84.8727 122.883C85.1747 123.137 85.6222 122.875 85.9218 122.619C86.247 122.341 86.5721 122.063 86.8973 121.785C86.7133 121.61 86.4192 121.649 86.17 121.701C85.446 121.85 84.7221 122 83.9981 122.15C84.2897 122.394 84.5812 122.639 84.8727 122.883ZM96.2411 119.332C96.4234 119.559 96.8072 119.51 97.0161 119.308C97.225 119.105 97.3022 118.805 97.3621 118.52C97.3765 118.452 97.3899 118.378 97.3612 118.314C97.2882 118.152 97.0474 118.201 96.8862 118.276C96.4523 118.478 95.9414 118.959 96.2411 119.332Z" fill="white"/>
<path id="Shape_2" fill-rule="evenodd" clip-rule="evenodd" d="M39.5077 95.0462C41.2953 86.2049 47.4073 78.8037 54.9963 73.9282C51.1593 79.1882 39.3843 87.8138 43.169 97.4237C49.2187 112.785 72.7532 115.201 71.9345 115.368C58.0148 118.206 38.1768 101.629 39.5077 95.0462Z" fill="#E7EAEE"/>
<g id="Food">
<path id="Combined Shape" fill-rule="evenodd" clip-rule="evenodd" d="M84.0323 18.3226C83.064 18.4401 82.2108 19.2156 82.0017 20.1683C89.8404 15.9538 99.3082 14.8702 107.896 17.2049C107.904 21.536 104.865 25.7018 100.739 27.0182L91.7936 29.872C94.1535 30.1337 96.5782 29.7877 98.7707 28.8763C99.5496 30.1037 100.833 31.0001 102.253 31.3092L99.5034 31.9122C99.9088 33.1475 100.737 34.2399 101.816 34.9642C100.9 34.6504 99.8806 34.6472 98.9624 34.9552L99.578 37.191C95.5234 36.6286 91.191 37.1807 87.7759 39.4375C84.3609 41.6944 82.0676 45.8431 82.683 49.89C83.4032 45.4901 86.4184 41.5315 90.4688 39.6682C94.5193 37.8049 99.4872 38.0911 103.297 40.4072L100.713 42.3214C101.705 42.7162 102.881 42.6153 103.792 42.0573C105.781 42.9373 105.23 46.5767 103.07 46.8288L105.928 47.0275C106.423 51.8869 103.421 56.8982 98.9029 58.7544C94.3847 60.6106 88.7269 59.157 85.663 55.3527C81.8598 57.295 82.1264 63.1813 84.8369 66.4812C86.7291 68.7848 89.3348 70.2814 91.9448 71.7804L91.9449 71.7804L91.945 71.7805C93.0738 72.4288 94.2035 73.0776 95.2765 73.7924C100.977 77.5893 105.226 83.5105 106.999 90.1265C103.903 92.1992 101.15 94.7815 98.8827 97.7377C102.237 97.5812 105.522 96.213 107.995 93.9421L108.523 99.0509C105.808 99.8871 103.368 101.594 101.651 103.858C104.071 104.105 106.567 103.539 108.644 102.274C107.9 108.153 106.557 113.955 104.643 119.562L98.4016 119.511C99.8824 115.419 101.382 111.017 100.291 106.804C99.2004 102.591 94.3074 99.1135 90.4563 101.14C94.8856 97.5698 98.2396 92.6827 99.9779 87.2659L88.8241 101.663L80.265 101.736C79.9958 97.703 79.7369 93.5697 80.8833 89.694C82.0298 85.8183 84.8922 82.1901 88.8361 81.3064C89.2641 81.2105 89.7196 81.1324 90.1811 81.0534C92.1088 80.7231 94.1413 80.3749 94.7073 78.6329C88.3139 78.261 81.9052 82.3538 79.5536 88.3106C77.8779 92.5553 78.1732 97.2865 78.4942 101.839C72.5837 100.986 66.5318 101.123 60.666 102.242C59.6476 98.7712 58.5917 95.2222 56.4556 92.3028C54.3195 89.3834 50.8518 87.1692 47.2524 87.5296C53.0491 88.3911 55.9206 94.8325 58.1064 100.27C60.2923 105.708 64.2602 111.918 70.0959 111.38C71.7579 111.227 72.2869 113.957 71.0132 115.036C69.7394 116.114 67.8468 115.909 66.2164 115.552C57.8178 113.714 49.9765 109.401 43.9265 103.293C42.7485 102.104 41.6094 100.802 41.0651 99.2192C40.3936 97.266 40.7064 95.1091 41.2839 93.1261C44.234 82.9955 53.3129 76.0544 61.9409 69.9808C66.5828 66.7132 66.4163 58.6159 61.644 55.5419C58.1114 58.752 53.4011 60.9967 48.6566 60.473C43.9121 59.9493 39.4217 56.0646 39.2687 51.2937C40.7589 51.1624 42.2194 50.705 43.5182 49.9627C42.2434 49.5097 40.8066 49.5291 39.5444 50.0162C39.2012 48.7305 39.4519 47.2988 40.2114 46.206L42.9165 45.917C42.3727 45.3021 41.6142 44.881 40.8048 44.7444C42.757 41.4914 47.2882 40.601 50.9193 41.7002C54.5505 42.7995 57.4913 45.4185 60.3047 47.9637C57.371 41.5315 49.416 39.4582 42.4704 38.1401L45.5012 36.3445C43.7496 35.8672 41.8172 36.0916 40.2217 36.9577C41.2633 38.2481 42.6694 39.241 44.2338 39.791C41.7333 43.3504 37.3198 45.4747 32.9781 45.2088C28.7094 44.9473 24.362 46.2542 20.9452 48.8262C26.4978 46.5685 32.5637 45.584 38.5454 45.9699L37.5512 50.2777C34.0982 50.9233 30.803 52.3977 28.0206 54.5421L37.4251 51.366C38.3675 56.1838 42.1782 60.3248 46.9013 61.6635C51.6244 63.0022 57.0412 61.4767 60.3714 57.8699C63.906 58.5711 64.754 63.674 62.8219 66.7156C61.292 69.124 58.7896 70.6242 56.3089 72.1113C55.6567 72.5023 55.006 72.8924 54.3748 73.2979C46.7858 78.1734 41.2955 86.205 39.5079 95.0463C37.7203 103.888 39.6592 113.421 44.7581 120.862C36.3364 124.049 30.7372 133.433 31.9313 142.358C31.9582 142.559 31.9882 142.762 32.0182 142.965L32.0182 142.966L32.0183 142.966L32.0183 142.966L32.0184 142.967L32.0184 142.967L32.0184 142.967L32.0185 142.967L32.0185 142.968L32.0186 142.968L32.0186 142.968L32.0186 142.968L32.0187 142.969L32.0187 142.969L32.0188 142.969L32.0188 142.97L32.0188 142.97L32.0189 142.97L32.0189 142.97L32.019 142.971L32.019 142.971L32.019 142.971L32.0191 142.971L32.0191 142.972L32.0192 142.972L32.0192 142.972L32.0192 142.973L32.0193 142.973L32.0193 142.973L32.0194 142.973L32.0194 142.974L32.0194 142.974L32.0195 142.974L32.0195 142.974C32.1997 144.195 32.3837 145.441 31.9693 146.588C31.4849 147.929 29.745 148.922 28.6015 148.071C25.3395 145.642 21.5142 143.975 17.5145 143.239C15.1599 142.805 11.7044 143.779 12.206 146.12C12.3733 146.901 12.9879 147.496 13.5845 148.026C19.7746 153.529 27.3142 157.501 35.3524 159.497C37.1713 159.948 39.1919 160.277 40.8407 159.386C43.188 158.117 43.5733 155.272 43.9604 152.415C44.3409 149.606 44.7231 146.785 46.9722 145.435C49.0032 144.217 51.5057 144.9 53.8515 145.541L53.8518 145.541L53.8521 145.541L53.8527 145.541C54.1656 145.626 54.4757 145.711 54.7816 145.79C60.3594 147.236 66.1438 146.684 71.9307 146.132C74.215 145.915 76.4997 145.697 78.7722 145.601C85.0773 145.338 91.4219 146.037 97.5183 147.667C99.6415 148.235 101.752 147.176 103.763 146.167C104.062 146.017 104.358 145.868 104.652 145.726C106.925 144.627 110.039 144.047 111.66 145.982C112.301 146.747 112.538 147.728 112.776 148.713C112.894 149.201 113.012 149.69 113.179 150.155C114.271 153.184 117.545 155.04 120.76 155.22C123.975 155.4 127.115 154.18 129.924 152.607C135.247 149.626 139.799 145.284 143.028 140.108C143.404 139.505 143.775 138.836 143.7 138.129C143.501 136.264 140.818 136.117 139.028 136.679C134.185 138.2 129.733 140.948 126.204 144.596C124.545 143.083 123.737 140.692 124.139 138.483C134.006 131.661 144.511 124.605 156.476 123.757C158.351 123.624 160.254 123.645 162.155 123.665H162.155H162.155H162.155H162.155H162.155H162.155H162.156H162.156H162.156H162.156H162.156H162.156H162.156H162.157H162.157H162.157H162.157H162.157H162.157H162.157H162.158H162.158H162.158H162.158H162.158H162.158H162.158H162.158H162.159H162.159H162.159H162.159H162.159H162.159C166.291 123.71 170.41 123.754 174.198 122.226C181.177 119.41 185.207 109.887 180.835 103.762C177.472 99.0502 170.896 97.9384 165.129 98.4547C155.383 99.3275 146.002 103.815 139.206 110.856C137.318 112.812 135.595 114.977 133.875 117.138C130.154 121.814 126.447 126.472 121.113 128.954C117.492 123.945 111.816 120.469 105.708 119.519C110.238 111.16 111.411 101.04 108.913 91.8664C106.415 82.6925 100.272 74.5649 92.129 69.6572C91.6852 69.3897 91.2329 69.129 90.7797 68.8677C88.729 67.6855 86.6579 66.4916 85.2605 64.6093C83.5543 62.311 83.3849 58.5357 85.7779 56.9651C88.9603 61.3319 95.6384 62.2749 100.361 59.6495C105.084 57.0242 107.773 51.5148 107.868 46.1123L120.084 45.8014C115.978 44.4277 111.492 44.2081 107.271 45.1741L105.807 41.1886L115.5 39.9178C111.924 39.0171 108.092 39.1606 104.593 40.3262C103.798 38.7692 102.586 37.4275 101.117 36.4793C102.496 36.6357 103.928 36.2664 105.06 35.4628L101.88 32.9318C103.197 33.1739 104.627 32.3103 105.026 31.0315L99.9355 28.9725L120.029 19.3571C119.173 19.3421 118.316 19.3736 117.463 19.4515L120.061 17.734C116.095 18.2134 112.183 17.0971 108.277 15.9822C104.233 14.8282 100.194 13.6756 96.106 14.2958C94.5 14.5395 92.8837 15.0505 91.2767 15.5585C87.9602 16.607 84.6828 17.6431 81.6147 16.2921C75.3716 13.5433 68.0502 13.3419 61.6655 15.7435C61.1009 15.9559 60.5274 16.1879 59.9482 16.4222L59.9481 16.4222C56.7605 17.7117 53.4019 19.0704 50.4243 17.6026C46.8408 15.8362 42.4951 16.8693 38.9021 18.6162C37.6408 19.2295 36.4166 19.9271 35.1935 20.6241C32.9323 21.9126 30.6747 23.1991 28.1922 23.9471C33.7944 27.3806 40.1386 29.5965 46.6603 30.3974C47.4614 31.0163 47.1816 32.3924 46.3825 33.0139C45.5833 33.6353 44.5027 33.7141 43.4919 33.7681C43.7521 35.5692 46.0727 36.7098 47.6577 35.8157C46.9916 35.9394 46.9419 34.8574 47.2186 34.239L48.9454 30.3802C50.2864 30.8726 51.9554 30.0826 52.4246 28.7333C49.1037 29.133 45.658 29.5218 42.4768 28.4887C39.2955 27.4555 36.4531 24.5734 36.6022 21.2319C43.6866 17.1273 53.1972 17.683 59.7553 22.5849C59.2489 21.1071 58.0042 19.9031 56.5104 19.4462C58.2352 17.7481 60.5248 16.6337 62.9253 16.3239C61.4992 17.4522 60.8457 19.4694 61.3392 21.2196L67.742 15.3305C66.6917 17.2135 66.1034 19.3521 66.0428 21.5073C68.4174 19.9555 70.3093 17.6758 71.3968 15.0558L74.2452 15.4557C72.5014 16.929 71.5299 19.2701 71.7182 21.5452C73.8885 20.1959 75.5712 18.0797 76.3966 15.6611C79.0712 16.0932 81.6686 16.9986 84.0323 18.3226ZM162.712 122.574C161.28 122.526 159.847 122.479 158.422 122.519C147.818 122.82 137.96 127.985 129.211 133.984L129.056 134.091L128.843 134.237C127.182 135.379 125.506 136.532 123.61 137.206L121.384 130.717C121.264 130.368 121.191 129.89 121.515 129.715C124.919 127.874 128.028 125.487 130.686 122.674C132.457 120.799 134.028 118.739 135.597 116.682L135.597 116.682C137.819 113.768 140.038 110.859 142.816 108.489C147.252 104.703 152.836 102.536 158.44 100.92C162.587 99.7242 166.932 98.7859 171.198 99.4428C175.463 100.1 179.663 102.645 181.227 106.668C182.469 109.863 181.861 113.631 179.947 116.475C178.033 119.319 174.926 121.254 171.595 122.066C168.699 122.772 165.708 122.673 162.712 122.574ZM40.7036 136.32C40.9277 136.854 41.0692 137.565 40.6216 137.932C40.0451 138.404 39.2271 137.796 38.7427 137.23L34.6137 132.405C33.6251 134.974 33.1716 137.748 33.2904 140.499C33.3142 141.051 33.3592 141.611 33.4044 142.174C33.577 144.322 33.7518 146.499 32.7567 148.362C32.3203 149.18 31.5775 149.93 30.653 149.99C30.129 150.024 29.6187 149.832 29.135 149.628C27.8093 149.067 26.5031 148.378 25.1972 147.689C21.8358 145.916 18.477 144.144 14.7962 144.567C14.2936 144.625 13.6676 144.873 13.6873 145.378C13.6961 145.605 13.8438 145.799 13.9874 145.975C19.2942 152.456 27.593 155.599 35.6264 157.972C36.9402 158.36 38.3249 158.738 39.6628 158.443C41.0007 158.148 42.2426 156.942 42.081 155.582C41.6536 151.982 42.7814 148.225 45.1202 145.456C46.0539 144.35 47.2345 143.366 48.6512 143.072C50.3915 142.711 52.0923 143.428 53.7672 144.134L53.7675 144.134L53.7677 144.134L53.7679 144.134L53.7681 144.134L53.7684 144.134L53.7686 144.134L53.7688 144.134L53.7691 144.134L53.7693 144.135L53.7695 144.135L53.7697 144.135L53.77 144.135L53.7702 144.135L53.7704 144.135L53.7707 144.135L53.7709 144.135L53.7711 144.135L53.7713 144.135L53.7716 144.135L53.7718 144.136C54.2006 144.316 54.6277 144.496 55.0534 144.657C58.3276 145.895 62.0079 146.03 65.364 145.036C64.0519 145.019 63.4217 143.445 63.1498 142.162C61.3879 133.845 60.4512 125.354 60.3579 116.853C60.3478 115.928 59.6994 115.111 58.9173 114.618C58.2552 114.201 57.5004 113.969 56.7498 113.738L56.7497 113.738L56.7486 113.738C56.6129 113.696 56.4773 113.655 56.3424 113.612C53.609 112.746 51.0334 111.385 48.7781 109.614C48.4942 109.391 48.2145 109.161 47.9348 108.931L47.934 108.931L47.934 108.931C47.0708 108.221 46.207 107.511 45.2161 107.003C43.9038 106.33 42.2797 106.055 40.9644 106.723C40.671 107.422 41.2015 108.234 41.8804 108.572C42.3946 108.827 42.9706 108.897 43.5453 108.966C43.7294 108.988 43.9134 109.01 44.0952 109.038C44.9596 109.173 45.8009 109.454 46.5721 109.867C47.3822 110.301 48.1495 111.447 47.4276 112.015C47.1315 112.248 46.7165 112.232 46.3406 112.204L42.1009 111.893C43.1345 114.705 44.4522 117.412 46.0275 119.961C46.1689 120.189 46.3576 120.444 46.6266 120.446C50.7803 120.483 55.4187 121.065 58.051 124.278C58.5499 124.887 58.9592 125.768 58.5314 126.429C56.1185 123.515 52.3443 121.78 48.562 121.845C44.7796 121.911 41.0675 123.775 38.7567 126.77C40.7963 128.135 42.4177 130.116 43.3524 132.386C43.6347 133.071 43.5827 134.192 42.8417 134.177L38.3911 128.727C38.1922 128.484 37.9532 128.22 37.639 128.21C37.3869 128.202 37.1648 128.363 36.9649 128.517C36.532 128.85 36.0827 129.202 35.8568 129.699C35.6308 130.196 35.7149 130.88 36.1856 131.157C38.1919 132.335 39.802 134.175 40.7036 136.32ZM91.4438 144.848C94.302 142.464 95.2342 138.538 96.0017 134.896L98.8142 121.551C98.8443 121.408 98.8787 121.257 98.9814 121.154C99.1168 121.017 99.3291 121.002 99.5214 120.996C104.648 120.841 110.106 121.33 114.235 124.372C112.55 125.208 111.078 126.467 109.99 128.001C109.685 128.432 109.431 129.079 109.823 129.431C109.97 129.564 110.176 129.61 110.373 129.624C111.357 129.694 112.256 129.08 112.976 128.404C113.131 128.259 113.283 128.108 113.435 127.957L113.435 127.957L113.435 127.957C113.99 127.408 114.547 126.857 115.251 126.535C116.148 126.124 117.395 126.239 117.89 127.093C116.29 127.908 114.971 129.264 114.201 130.887C114.001 131.309 113.835 131.797 113.997 132.236C114.16 132.674 114.799 132.931 115.112 132.585L118.204 129.172C118.354 129.007 118.561 128.826 118.771 128.902C118.884 128.943 118.957 129.05 119.022 129.151C120.66 131.722 121.312 134.716 121.966 137.722L121.966 137.722L121.966 137.723L121.966 137.723L121.966 137.723L121.966 137.723L121.966 137.723L121.966 137.723L121.966 137.723L121.966 137.723L121.966 137.723L121.966 137.723L121.966 137.723L121.966 137.723L121.966 137.723L121.966 137.723L121.966 137.724L121.966 137.724L121.966 137.724L121.966 137.724L121.966 137.724L121.966 137.724L121.966 137.724L121.966 137.724L121.966 137.724L121.966 137.724L121.966 137.724L121.966 137.724L121.966 137.724L121.966 137.724L121.966 137.724L121.966 137.725L121.966 137.725C122.349 139.484 122.733 141.249 123.316 142.935C123.784 144.287 124.687 145.805 126.117 145.806C126.908 145.807 127.607 145.32 128.233 144.837C128.901 144.321 129.567 143.78 130.235 143.236L130.235 143.236L130.236 143.235L130.236 143.235C133.38 140.677 136.595 138.06 140.555 137.747C141.179 137.697 141.98 137.835 142.127 138.444C142.212 138.797 142.021 139.153 141.832 139.463C138.888 144.281 134.474 148.079 129.597 150.923C127.1 152.378 124.362 153.629 121.471 153.651C118.581 153.673 115.52 152.196 114.428 149.52C114.205 148.974 114.069 148.397 113.933 147.822C113.775 147.156 113.618 146.49 113.327 145.874C112.578 144.284 110.917 143.165 109.162 143.068C107.491 142.975 105.955 143.72 104.422 144.462C103.883 144.723 103.345 144.984 102.801 145.208C99.1932 146.696 94.9506 146.562 91.4438 144.848ZM72.3653 116.118C71.2895 117.036 69.8423 117.402 68.4318 117.506C65.8906 117.692 63.2973 117.097 61.0914 115.822L62.0016 119.267C62.0408 119.415 62.0875 119.575 62.2108 119.667C62.3179 119.746 62.4597 119.756 62.5928 119.763L75.6709 120.45C77.5775 120.551 79.4866 120.651 81.3951 120.596C86.748 120.441 92.0612 119.043 96.7975 116.544C97.0707 116.4 97.3491 116.247 97.5459 116.009C97.7804 115.725 97.8732 115.353 97.9516 114.993C98.615 111.95 98.7297 108.789 98.2886 105.706C98.1803 104.949 98.0293 104.172 97.6037 103.537C97.178 102.901 96.4124 102.436 95.6609 102.579C87.9644 104.045 80.1077 103.592 72.2515 103.14L72.2511 103.14C69.2904 102.969 66.3297 102.798 63.3778 102.731C62.8508 102.718 62.2964 102.716 61.8334 102.968C61.3704 103.22 61.0517 103.819 61.2895 104.289C62.6357 106.953 65.4171 108.652 68.301 109.419C68.5082 109.474 68.7202 109.528 68.9347 109.582C70.8002 110.057 72.8547 110.58 73.5321 112.316C74.0461 113.633 73.4411 115.2 72.3653 116.118ZM93.3481 138.69C92.8205 140.785 91.7115 142.958 89.6992 143.743C88.9953 144.018 88.2331 144.1 87.4807 144.17C80.5043 144.819 73.4533 144.663 66.5126 143.705C66.0993 143.648 65.6636 143.578 65.3415 143.313C64.9493 142.99 64.8163 142.456 64.7135 141.958C64.3983 140.433 64.1542 138.893 63.982 137.345C63.9515 137.071 64.0276 136.68 64.3025 136.702C68.7438 137.047 73.1979 137.229 77.6526 137.246C80.7255 137.257 83.8228 137.188 86.824 136.528C89.8252 135.868 92.7514 134.578 94.9455 132.426C94.3217 133.736 94.0532 135.167 93.7843 136.6C93.6529 137.301 93.5213 138.002 93.3481 138.69ZM78.3436 129.991C78.0588 130.268 77.7525 130.598 77.7725 130.994C77.7926 131.391 78.388 131.688 78.5934 131.347C79.7144 129.49 81.6638 128.155 83.8004 127.781C85.937 127.407 88.224 128.001 89.9091 129.367C90.0841 129.508 90.2536 129.659 90.423 129.809L90.423 129.809C90.8225 130.163 91.2218 130.516 91.6935 130.761C91.9353 130.887 92.3491 130.89 92.3592 130.618C92.3624 130.528 92.3113 130.447 92.2611 130.373C91.0511 128.589 89.2417 127.22 87.1964 126.541C85.4036 125.945 83.3262 125.907 81.7228 126.906C81.1404 127.269 80.6439 127.752 80.1523 128.23L78.3436 129.991ZM63.2833 128.977C64.829 127.218 67.328 126.439 69.6492 126.746C71.9704 127.053 74.0935 128.361 75.6357 130.122C75.9074 130.433 76.1738 130.879 75.9536 131.228C75.7691 131.52 75.3281 131.541 75.0251 131.375C74.7607 131.23 74.572 130.986 74.3864 130.746L74.3558 130.706L74.3262 130.668L74.3049 130.641C72.9397 128.904 70.709 127.884 68.5023 127.989C66.2957 128.093 64.1709 129.318 62.9753 131.175C62.6639 130.904 62.5758 130.439 62.6695 130.037C62.7632 129.635 63.0108 129.287 63.2833 128.977ZM86.0222 124.37C85.9863 124.762 86.5047 125.006 86.8773 124.878C87.2127 124.762 87.4463 124.473 87.6715 124.193L87.7197 124.134L87.7465 124.101C89.8215 121.563 93.7727 120.799 96.6448 122.379C97.0214 122.061 97.0429 121.451 96.7908 121.027C96.5387 120.603 96.0785 120.343 95.6088 120.193C94.5915 119.868 93.487 119.979 92.4402 120.191C89.9627 120.692 87.4599 121.866 86.1575 124.033C86.0946 124.137 86.0333 124.248 86.0222 124.37ZM73.314 133.309C74.2672 132.944 75.2638 132.674 76.282 132.603C78.8011 132.428 81.3758 133.56 82.9506 135.534C82.2796 136.013 81.3963 135.43 80.7069 134.975L80.7001 134.97C78.4999 133.517 75.4938 133.387 73.1764 134.645C72.9955 134.743 72.8131 134.85 72.6292 134.957C71.7623 135.465 70.8612 135.993 69.9282 135.728C70.6994 134.547 71.9965 133.813 73.314 133.309ZM81.5693 131.218L81.5694 131.218L81.5694 131.218C81.9081 130.958 82.2468 130.699 82.621 130.496C83.6761 129.926 84.9903 129.86 86.0972 130.322C86.4201 130.457 86.7232 130.633 87.0263 130.809C87.2874 130.96 87.5485 131.112 87.8226 131.237C88.4148 131.508 89.1202 131.649 89.7101 131.373C89.7757 131.342 89.8434 131.302 89.8711 131.235C89.9159 131.127 89.8362 131.01 89.7588 130.921C88.4386 129.414 86.3698 128.598 84.3762 128.797C82.3825 128.996 80.516 130.205 79.5197 131.943C79.7276 132.217 80.1603 132.126 80.4652 131.967C80.8602 131.761 81.2147 131.489 81.5693 131.218ZM65.7073 131.493C65.4825 131.692 65.258 131.891 64.998 132.039C64.5842 132.274 64.0271 132.353 63.6529 132.059C63.5371 131.436 64.165 130.953 64.7117 130.634C66.0598 129.847 67.5087 129.035 69.0675 129.115C70.3145 129.18 71.4529 129.811 72.53 130.443C72.7947 130.598 73.0665 130.761 73.2475 131.009C73.4285 131.257 73.4963 131.614 73.3272 131.87C73.1562 132.129 72.7963 132.205 72.4941 132.135C72.2031 132.067 71.9513 131.892 71.7054 131.722L71.6769 131.702C70.8054 131.097 69.8552 130.539 68.8015 130.417C67.8559 130.307 66.8703 130.573 66.1138 131.151C65.9732 131.258 65.8402 131.376 65.7073 131.493ZM72.0182 125.996C72.2996 126.36 72.8507 125.97 73.1613 125.631C74.1183 124.585 75.4978 123.937 76.9136 123.869C78.3294 123.802 79.7645 124.314 80.8173 125.263L80.8741 125.314L80.8808 125.321L80.8819 125.322C81.1286 125.546 81.3918 125.786 81.7203 125.795C82.0777 125.805 82.3997 125.306 82.1162 125.088C80.5985 123.922 78.8326 122.969 76.9229 122.843C75.0131 122.717 72.9548 123.574 72.0707 125.271C71.9522 125.499 71.8615 125.793 72.0182 125.996ZM89.4481 125.247C89.2844 125.415 89.1185 125.586 88.9038 125.677C88.6517 125.784 88.3056 125.732 88.1838 125.487C88.0552 125.228 88.2348 124.926 88.422 124.706C90.2599 122.544 93.7191 121.983 96.1457 123.455C96.5174 123.68 96.9071 124.117 96.6885 124.493C96.4263 124.943 95.7477 124.656 95.2964 124.395C93.4923 123.351 91.0029 123.681 89.5335 125.159C89.5053 125.188 89.4773 125.217 89.4493 125.245L89.4481 125.247ZM90.2453 125.816C90.141 125.903 90.037 126.001 89.9931 126.129C89.8704 126.489 90.3071 126.825 90.6855 126.795C90.9594 126.773 91.2036 126.64 91.4478 126.506C91.541 126.455 91.6342 126.404 91.729 126.36C92.5662 125.965 93.5723 126.059 94.422 126.426C94.5026 126.461 94.5825 126.498 94.6625 126.535C94.9163 126.653 95.1707 126.772 95.446 126.813C95.8081 126.867 96.2306 126.747 96.3955 126.42C94.9554 124.635 92.0053 124.346 90.2453 125.816ZM68.1227 125.019C67.9844 125.212 67.6912 125.232 67.4763 125.131C67.2766 125.037 67.1269 124.867 66.9808 124.7L66.9473 124.662C65.9379 123.517 64.63 122.638 63.1888 122.136C62.8145 122.005 62.3389 121.746 62.4442 121.364C63.4788 121.01 64.6488 121.288 65.5778 121.864C66.5068 122.44 67.2338 123.287 67.9097 124.146C68.1092 124.4 68.3108 124.757 68.1227 125.019ZM80.2115 126.09C78.5108 125.005 76.1894 124.986 74.4711 126.043C74.1725 126.226 73.8656 126.484 73.8424 126.834C73.8192 127.184 74.2942 127.509 74.5298 127.249C75.4791 126.203 77.2135 125.986 78.3914 126.766C78.9697 127.149 79.8002 127.097 80.326 126.644C80.5742 126.618 80.422 126.224 80.2115 126.09ZM86.164 134.888C87.9181 133.217 90.1667 131.796 92.5833 131.959C92.8318 131.975 93.1651 132.185 93.015 132.383L87.0224 134.977C86.7273 135.104 86.2917 135.183 86.164 134.888ZM69.5843 133.035C69.6432 133.068 69.7018 133.104 69.7606 133.14L69.7609 133.14C69.999 133.285 70.2403 133.433 70.5142 133.433C70.8558 133.433 71.1945 133.022 70.9778 132.758C70.2954 131.926 69.223 131.428 68.1471 131.445C67.0712 131.461 66.0145 131.991 65.3579 132.844C65.4388 133.153 65.818 133.296 66.1348 133.25C66.3631 133.216 66.5719 133.114 66.7807 133.012L66.7808 133.012L66.7811 133.012C66.8618 132.973 66.9426 132.933 67.0245 132.898C67.8372 132.546 68.8139 132.598 69.5843 133.035ZM82.049 133.215C81.8099 133.228 81.5402 133.046 81.5674 132.808C81.5774 132.72 81.6252 132.641 81.6756 132.569C82.2296 131.772 83.2309 131.365 84.2013 131.356C85.1717 131.347 86.1148 131.691 86.9715 132.147C87.2105 132.274 87.4796 132.476 87.4409 132.744C87.0438 133.166 86.3863 132.94 85.8131 132.742C85.7495 132.72 85.687 132.699 85.6259 132.679C84.6721 132.362 83.5881 132.461 82.7078 132.946L82.6667 132.969L82.6169 132.997C82.4368 133.099 82.2535 133.204 82.049 133.215ZM79.7637 122.367C80.7626 122.724 81.693 123.272 82.49 123.973C82.5188 123.998 82.5475 124.024 82.5762 124.049L82.656 124.121L82.656 124.121C82.9274 124.366 83.2006 124.612 83.5318 124.761C83.9304 124.941 84.4478 124.946 84.7598 124.64C84.0695 124.11 83.5024 123.421 83.1157 122.642C82.9073 122.222 82.352 122.145 81.8839 122.122L79.8315 122.022C79.7593 122.119 79.7336 122.249 79.7637 122.367ZM71.3998 124.127C71.224 124.351 71.0484 124.575 70.8408 124.769C70.4876 125.099 70.0004 125.341 69.5285 125.236C70.008 124.073 70.7831 123.033 71.7607 122.241C72.4587 121.675 73.4686 121.799 74.3537 121.953C74.4009 122.273 73.9901 122.433 73.6777 122.516C72.9536 122.709 72.287 123.114 71.781 123.666C71.6464 123.813 71.5231 123.971 71.3998 124.127ZM62.9731 124.368L64.876 125.608C65.1445 125.783 65.4874 125.962 65.766 125.804C66.0245 125.657 66.064 125.278 65.9292 125.012C65.7945 124.747 65.5376 124.57 65.2909 124.404L63.7416 123.361C63.3091 123.069 62.6046 122.837 62.3693 123.302C62.1665 123.704 62.5965 124.123 62.9731 124.368ZM77.2196 129.69C76.9113 129.838 76.5712 129.577 76.3285 129.336L75.5363 128.55C75.4432 128.458 75.3428 128.346 75.3589 128.215C75.3691 128.133 75.4248 128.065 75.482 128.005C76.2258 127.227 77.6391 127.248 78.3591 128.049L77.5341 129.352C77.4508 129.484 77.3603 129.623 77.2196 129.69ZM65.2286 135.551C65.7445 135.732 66.3533 135.786 66.8083 135.483C66.1234 134.695 65.3206 134.01 64.4351 133.457C64.1838 133.3 63.9006 133.149 63.6074 133.191C63.3142 133.232 63.0547 133.566 63.1967 133.826C63.6325 134.623 64.371 135.25 65.2286 135.551ZM94.2614 128.336L93.53 129.22C93.4606 129.303 93.3832 129.392 93.2769 129.415C93.1161 129.45 92.9695 129.323 92.8539 129.206L91.7922 128.131C91.6361 127.972 91.6808 127.69 91.8359 127.531C91.9911 127.371 92.221 127.311 92.4417 127.285C93.0187 127.215 93.6169 127.334 94.1235 127.619C94.2691 127.701 94.4221 127.821 94.4288 127.988C94.434 128.12 94.3454 128.234 94.2614 128.336ZM68.0923 122.856C68.311 123.091 68.5857 123.332 68.9058 123.306C69.2376 123.278 69.4607 122.987 69.6801 122.702C69.9148 122.396 70.1452 122.095 70.4997 122.129C70.6839 121.825 70.1813 121.583 69.8263 121.577L67.0702 121.533C67.3701 122.004 67.7126 122.447 68.0923 122.856ZM79.4995 135.744L73.7663 135.769C73.8284 135.472 74.1625 135.329 74.4552 135.25C75.7623 134.896 77.153 134.854 78.4791 135.129C78.8837 135.212 79.332 135.366 79.4995 135.744ZM85.5662 133.758L83.6693 133.843C83.4652 133.853 83.2032 133.912 83.178 134.115C83.1668 134.205 83.2123 134.292 83.2563 134.372C83.4235 134.676 83.6014 134.991 83.8905 135.183C84.1796 135.374 84.6147 135.393 84.8396 135.129C84.917 135.038 84.9624 134.925 85.0075 134.812C85.0629 134.673 85.1179 134.536 85.2311 134.443C85.3062 134.382 85.3978 134.348 85.4897 134.314L85.4897 134.314C85.56 134.289 85.6304 134.263 85.6939 134.224C85.8404 134.136 85.9337 133.906 85.7978 133.801C85.7341 133.753 85.6465 133.754 85.5662 133.758ZM68.9396 134.009C69.2029 134.179 69.3627 134.552 69.1937 134.815C68.9915 135.131 68.7389 135.479 68.3658 135.516C67.8845 135.564 67.5397 135.079 67.3054 134.656C67.2256 134.511 67.143 134.352 67.1726 134.19C67.2345 133.85 67.6893 133.786 68.0347 133.804C68.3474 133.819 68.6764 133.839 68.9396 134.009ZM94.1721 131.023C94.4559 131.047 94.7103 130.854 94.9094 130.651C95.5166 130.03 95.9028 129.197 95.9844 128.333C95.7834 128.204 95.5377 128.403 95.3837 128.585L93.8325 130.42C93.6486 130.637 93.8884 131 94.1721 131.023ZM63.7926 126.946C63.3863 127.166 62.8301 127.053 62.5418 126.692C62.2534 126.331 62.2658 125.764 62.5697 125.416C62.6118 125.368 62.6622 125.321 62.725 125.309C62.816 125.29 62.9042 125.345 62.981 125.397L63.7353 125.911C63.9094 126.03 64.0981 126.17 64.1349 126.378C64.1763 126.611 64.0007 126.834 63.7926 126.946ZM84.8727 122.883C85.1747 123.137 85.6222 122.875 85.9218 122.619L86.8973 121.785C86.7133 121.61 86.4192 121.649 86.17 121.701L83.9981 122.15L84.8727 122.883ZM40.9661 103.781C40.7444 103.584 40.6876 103.262 40.6809 102.965C40.6734 102.63 40.7126 102.294 40.7971 101.97L42.2366 103.844C42.3225 103.956 42.393 104.149 42.2661 104.21C42.0861 104.089 41.8649 104.055 41.645 104.021C41.3963 103.982 41.1494 103.944 40.9661 103.781ZM96.2411 119.332C96.4234 119.559 96.8072 119.51 97.0161 119.308C97.225 119.105 97.3022 118.805 97.3621 118.52C97.3765 118.452 97.3899 118.378 97.3612 118.314C97.2882 118.152 97.0474 118.201 96.8862 118.276C96.4523 118.478 95.9414 118.959 96.2411 119.332ZM79.9512 36.4761C80.1274 36.0361 80.5375 35.739 80.9413 35.4909C82.1601 34.7423 83.5136 34.2137 84.9171 33.938C85.253 33.8721 85.6531 33.8399 85.8862 34.0905C86.1485 34.3724 86.0173 34.8599 85.7262 35.1119C85.4668 35.3364 85.1255 35.4285 84.7917 35.5186C84.7508 35.5297 84.71 35.5407 84.6695 35.5519C83.5471 35.8627 82.4911 36.4115 81.5917 37.1515C81.2459 37.436 80.836 37.7711 80.4046 37.6512C79.9479 37.5243 79.775 36.9161 79.9512 36.4761ZM54.7046 36.579C54.3787 36.4026 54.1587 35.9623 54.3615 35.6522C54.4794 35.4718 54.6993 35.3896 54.9082 35.3365C56.6004 34.907 58.3524 35.6653 59.8829 36.5051C60.2275 36.6942 60.5822 36.9001 60.7994 37.2276C61.0166 37.5552 61.0483 38.0405 60.7649 38.3128C60.2906 38.7686 59.5386 38.2998 59.0031 37.9177C58.0653 37.2487 56.9385 36.8478 55.789 36.774C55.7377 36.7707 55.686 36.768 55.6342 36.7653C55.3125 36.7482 54.9852 36.7309 54.7046 36.579ZM72.444 60.8405L71.3309 57.6658C70.3402 58.3808 69.5996 59.4356 69.2635 60.6101C68.9594 60.3628 68.9481 59.9446 68.9371 59.534V59.5339V59.5339C68.9338 59.4111 68.9305 59.2891 68.9194 59.1725C68.8537 58.4804 68.4191 57.8343 67.8028 57.5125C67.1866 57.1907 66.408 57.2033 65.8025 57.5448C65.9631 57.8963 66.3415 58.0079 66.731 58.1227C66.9896 58.199 67.2532 58.2767 67.4611 58.427C67.9003 58.7446 68.0262 59.3431 68.033 59.8851C68.0347 60.0209 68.0312 60.1578 68.0277 60.2947V60.2949C68.0173 60.7043 68.0068 61.1143 68.1347 61.4998C68.176 61.6242 68.2345 61.7483 68.3353 61.8322C68.6209 62.0697 69.0532 61.8723 69.3423 61.6392C69.9955 61.1126 70.5092 60.4144 70.8175 59.634C71.0894 59.9057 71.1899 60.2872 71.2896 60.6657L71.2896 60.6658L71.2896 60.6659C71.3189 60.777 71.348 60.8879 71.3815 60.9956C71.5289 61.4704 71.8813 61.978 72.378 61.9549C72.709 61.9396 72.9758 61.6905 73.2102 61.4563L74.5568 60.111C74.7191 59.9489 74.8951 59.7427 74.8429 59.5194C74.7927 59.3049 74.5386 59.1901 74.3205 59.2209C74.1025 59.2517 73.916 59.3891 73.7453 59.5283C73.2671 59.9184 72.8301 60.359 72.444 60.8405ZM69.3679 48.1064C69.4397 47.5245 69.4793 46.8466 69.0518 46.4454C68.2541 45.6967 67.5555 44.8427 66.9799 43.9124C66.7289 43.5067 66.4932 43.0327 66.6129 42.5709C66.7936 41.8733 67.6415 41.6211 68.3568 41.534C69.5012 41.3946 70.6597 41.371 71.8088 41.4635C72.3026 41.5032 72.826 41.5774 73.2039 41.8977C73.5818 42.2181 73.7181 42.8675 73.3534 43.2028C71.5655 44.8463 70.5186 47.2673 70.5457 49.6957C71.2086 50.126 71.8825 50.5615 72.6377 50.7943C73.393 51.027 74.2538 51.0346 74.9351 50.634C75.222 50.4653 75.4627 50.2345 75.7038 50.0031C75.8703 49.8434 76.0371 49.6835 76.2194 49.5436C76.6659 49.2012 77.305 48.9891 77.7834 49.2853L75.9633 50.961C75.238 51.6288 74.3372 52.3472 73.3772 52.1223C73.0593 52.0479 72.7801 51.8759 72.4999 51.7033C72.3332 51.6006 72.1661 51.4977 71.9903 51.4149C71.0502 50.9726 69.9473 51.1378 68.9314 51.3559L68.7455 51.3961C67.7868 51.6038 66.7947 51.8188 65.8538 51.5606C64.8518 51.2858 63.9729 50.2443 64.2865 49.2538C64.9172 50.177 66.0155 50.7621 67.1335 50.7706C67.5628 50.7739 68.0054 50.6917 68.3611 50.4513C69.0892 49.9591 69.2603 48.9785 69.3679 48.1064Z" fill="#00160A"/>
</g>
</g>
</svg>
