<svg width="24" height="24" viewBox="0 0 24 24" fill="white" xmlns="http://www.w3.org/2000/svg">
<g id="icon">
<path id="Vector" d="M12 4.72634V21.5995M12 4.72634L13.1001 4.31349C15.6036 3.37402 18.3964 3.37402 20.8999 4.31349C21.5643 4.56284 22 5.16658 22 5.83796V19.6886C22 20.6105 21.0075 21.2409 20.0951 20.8985C18.1082 20.1529 15.8918 20.1529 13.9049 20.8985L12.0137 21.6082C12.0071 21.6107 12 21.6061 12 21.5995M12 4.72634L10.8999 4.31349C8.39638 3.37402 5.60362 3.37402 3.10014 4.31349C2.43569 4.56284 2 5.16658 2 5.83796V19.6886C2 20.6105 2.99247 21.2409 3.90485 20.8985C5.89175 20.1529 8.10825 20.1529 10.0951 20.8985L11.9863 21.6082C11.9929 21.6107 12 21.6061 12 21.5995" stroke="white" stroke-width="1.5"/>
</g>
</svg>
