<svg width="24" height="24" viewBox="0 0 24 24" fill="white" xmlns="http://www.w3.org/2000/svg">
<g id="icon">
<path id="Vector" d="M2.49854 10.9334C2.49854 9.70923 3.05911 8.55244 4.01996 7.79388L9.51996 3.45178C10.9732 2.30448 13.0239 2.30449 14.4771 3.45178L19.9771 7.79388C20.938 8.55245 21.4985 9.70923 21.4985 10.9334V17.495C21.4985 19.7041 19.7077 21.495 17.4985 21.495H15.9985C15.4463 21.495 14.9985 21.0473 14.9985 20.495V17.495C14.9985 16.3904 14.1031 15.495 12.9985 15.495H10.9985C9.89397 15.495 8.99854 16.3904 8.99854 17.495V20.495C8.99854 21.0473 8.55082 21.495 7.99854 21.495H6.49854C4.2894 21.495 2.49854 19.7041 2.49854 17.495V10.9334Z" stroke="white" stroke-width="1.5"/>
</g>
</svg>
