<svg width="54" height="54" viewBox="0 0 64 54" fill="none" xmlns="http://www.w3.org/2000/svg">
<g id="Component 86">
<g id="Vector">
<path d="M15.6791 41.7235C28.2222 50.0157 41.6487 48.4367 54.6224 40.8402C59.2874 38.1129 63.7041 33.8288 63.9856 28.4351C64.3169 22.0862 58.8734 16.9354 53.2975 13.8824C40.4452 6.83791 24.3798 5.96563 10.8484 11.5857C6.08402 13.5622 1.20368 16.8746 0.193385 21.9316C-0.767225 26.7402 2.04835 31.3776 4.28977 35.739C6.53119 40.1004 4.55476 49.2869 1.62324 53.2177C1.62324 53.2177 14.0615 45.5659 15.6791 41.7235Z" fill="#F7821F"/>
<path d="M39.5121 31.2396C44.4272 31.2396 48.4116 27.2552 48.4116 22.3402C48.4116 17.4251 44.4272 13.4407 39.5121 13.4407C34.5971 13.4407 30.6127 17.4251 30.6127 22.3402C30.6127 27.2552 34.5971 31.2396 39.5121 31.2396Z" fill="#FBFFF8"/>
<path d="M37.4971 28.4682C39.7716 28.4682 41.6155 26.6243 41.6155 24.3497C41.6155 22.0751 39.7716 20.2312 37.4971 20.2312C35.2225 20.2312 33.3786 22.0751 33.3786 24.3497C33.3786 26.6243 35.2225 28.4682 37.4971 28.4682Z" fill="#36394C"/>
<path d="M23.7946 30.5495C28.3285 30.5495 32.0039 26.8741 32.0039 22.3402C32.0039 17.8063 28.3285 14.1308 23.7946 14.1308C19.2607 14.1308 15.5852 17.8063 15.5852 22.3402C15.5852 26.8741 19.2607 30.5495 23.7946 30.5495Z" fill="#FBFFF8"/>
<path d="M22.4696 28.4682C24.7442 28.4682 26.5881 26.6243 26.5881 24.3497C26.5881 22.0751 24.7442 20.2312 22.4696 20.2312C20.195 20.2312 18.3511 22.0751 18.3511 24.3497C18.3511 26.6243 20.195 28.4682 22.4696 28.4682Z" fill="#36394C"/>
<path d="M39.8047 6.78822C40.009 6.71093 40.2243 6.6502 40.4396 6.59499C40.6715 6.53427 40.8978 6.48458 41.1352 6.44041C41.2677 6.41281 41.4057 6.39625 41.5382 6.36864C41.759 6.33 41.4333 6.37416 41.5106 6.36864C41.6045 6.36312 41.6983 6.34656 41.7867 6.33552C42.1234 6.30239 42.4602 6.28583 42.8025 6.28583C42.9736 6.28583 43.1503 6.29687 43.3214 6.30792C43.4153 6.31344 43.5092 6.33 43.603 6.33552C43.6306 6.33552 43.7741 6.3576 43.6195 6.33552C43.4429 6.31344 43.7079 6.35208 43.7189 6.35208C44.0943 6.41833 44.4697 6.50666 44.8286 6.63916C44.8672 6.6502 45.1046 6.74957 44.9832 6.69437C44.8617 6.63916 45.1322 6.76614 45.1709 6.7827C45.3586 6.87655 45.5408 6.98145 45.7174 7.09738C45.7671 7.13051 46.0487 7.33477 45.872 7.19676C45.9604 7.263 46.0431 7.34029 46.126 7.41206C46.3137 7.57769 46.4793 7.75987 46.6449 7.94758C46.7829 8.10768 46.6946 8.0083 46.667 7.96966C46.7112 8.02487 46.7498 8.0856 46.794 8.1408C46.8768 8.26226 46.9596 8.38372 47.0314 8.51069C47.1915 8.78121 47.3295 9.06277 47.4565 9.34985C47.6939 9.8964 48.4944 10.0234 48.9692 9.74734C49.5323 9.4161 49.6041 8.78673 49.3667 8.23466C48.5109 6.28031 46.8547 4.80627 44.7623 4.3094C43.2386 3.94503 41.6266 4.03889 40.1084 4.39222C39.8102 4.46398 39.5066 4.54128 39.2195 4.64617C38.6619 4.85044 38.281 5.39699 38.4466 6.00427C38.5957 6.53979 39.2416 6.98145 39.8047 6.77718V6.78822Z" fill="white"/>
<path d="M33.351 36.4678C33.2847 36.534 33.213 36.5892 33.1412 36.6499C33.0694 36.7107 32.7713 36.926 33.0749 36.7051C32.9535 36.7935 32.832 36.8873 32.7106 36.9701C32.4235 37.1744 32.1198 37.3621 31.8107 37.5333C31.6451 37.6271 31.4795 37.7099 31.3138 37.7927C31.1979 37.8479 31.0764 37.9032 30.955 37.9584C31.1316 37.8811 30.8942 37.9804 30.8445 38.0025C30.4139 38.1681 29.9723 38.2951 29.5141 38.3779C29.4754 38.3835 29.1828 38.4221 29.3705 38.4C29.2215 38.4166 29.0724 38.4276 28.9233 38.4331C28.697 38.4387 28.4651 38.4331 28.2388 38.4166C28.1007 38.4 28.0842 38.4 28.1835 38.4166C28.1228 38.4055 28.0676 38.4 28.0069 38.389C27.8689 38.3614 27.7308 38.3338 27.5983 38.2951C27.4272 38.251 27.1015 38.135 27.0352 38.1074C26.4611 37.8535 25.9587 37.4836 25.506 37.0474C24.4791 36.0647 22.9112 37.6271 23.9436 38.6098C24.976 39.5925 26.2623 40.3544 27.7088 40.5642C28.8957 40.7353 30.0992 40.6028 31.2255 40.2053C32.556 39.736 33.8589 38.9963 34.9023 38.0301C35.9457 37.064 34.3834 35.5016 33.3399 36.4678H33.351Z" fill="white"/>
<path d="M20.7361 3.68556C21.0397 3.48129 21.3654 3.31015 21.6912 3.14453C21.8733 3.05619 22.0555 2.97338 22.2377 2.89057C21.9727 3.00651 22.2377 2.89057 22.2819 2.87401C22.3923 2.82984 22.5027 2.78568 22.6131 2.74703C23.0548 2.58693 23.513 2.45443 23.9767 2.35506C24.8269 2.17287 25.8814 2.14527 26.7868 2.39923C27.891 2.70839 28.8847 3.45921 29.6245 4.46951C29.9778 4.94981 30.5851 5.1872 31.1372 4.867C31.6119 4.59096 31.888 3.84014 31.5346 3.35431C30.0827 1.37237 28.0566 0.0749909 25.5557 0.00322116C23.8167 -0.0464656 22.0886 0.483526 20.5428 1.25643C20.2282 1.41653 19.9135 1.58215 19.6154 1.7809C19.124 2.11215 18.9032 2.75255 19.2178 3.29359C19.5049 3.78493 20.2337 4.02233 20.7305 3.69108L20.7361 3.68556Z" fill="white"/>
</g>
</g>
</svg>
