<svg width="24" height="24" viewBox="0 0 24 24" fill="none" xmlns="http://www.w3.org/2000/svg">
<g id="notification">
<path id="Vector" d="M14.8093 20.834C14.342 21.5369 13.5428 22.0002 12.6354 22.0002C11.728 22.0002 10.9289 21.5369 10.4615 20.834M6.54846 8.08696C6.54846 4.72522 9.27369 2 12.6354 2C15.9972 2 18.7224 4.72522 18.7224 8.08696V10.1795C18.7224 11.2798 19.4315 12.2422 19.995 13.1872C20.2913 13.684 20.4615 14.2647 20.4615 14.8851C20.4615 16.488 19.3163 17.8633 17.7286 18.0834C16.1519 18.3021 14.1818 18.522 12.6354 18.522C11.0891 18.522 9.11892 18.3021 7.54224 18.0834C5.95453 17.8633 4.80933 16.488 4.80933 14.8851C4.80933 14.2647 4.97953 13.684 5.27579 13.1872C5.83938 12.2422 6.54846 11.2798 6.54846 10.1795V8.08696Z" stroke="#080B27" stroke-width="1.5" stroke-linecap="round"/>
</g>
</svg>
