<svg width="24" height="24" viewBox="0 0 24 24" fill="none" xmlns="http://www.w3.org/2000/svg">
<g id="icon">
<g id="Vector">
<path d="M8.99994 12.6089C8.99994 14.2657 10.3431 15.6089 11.9999 15.6089C13.6568 15.6089 14.9999 14.2657 14.9999 12.6089C14.9999 10.952 13.6568 9.60889 11.9999 9.60889C10.3431 9.60889 8.99994 10.952 8.99994 12.6089Z" stroke="white" stroke-width="1.5"/>
<path d="M14.4609 2.91397C14.7881 2.99676 15.001 3.29522 15.0771 3.62399C15.258 4.40581 15.7503 5.11349 16.5001 5.54639C17.189 5.94418 17.9702 6.0376 18.6879 5.86839C19.016 5.79104 19.3774 5.84964 19.5967 6.10559C20.3979 7.04059 21.0294 8.12521 21.4437 9.31177C21.5689 9.67059 21.3868 10.0507 21.0935 10.2924C20.4257 10.8426 19.9999 11.676 19.9999 12.6089C19.9999 13.5417 20.4257 14.3751 21.0935 14.9254C21.3868 15.167 21.5689 15.5472 21.4437 15.906C21.0295 17.0924 20.398 18.177 19.597 19.1119C19.3776 19.3679 19.0162 19.4265 18.6881 19.3491C17.9703 19.1798 17.1891 19.2732 16.5 19.671C15.7501 20.104 15.2579 20.8118 15.077 21.5937C15.001 21.9225 14.788 22.221 14.4608 22.3038C13.6735 22.503 12.8491 22.6089 11.9999 22.6089C11.1508 22.6089 10.3264 22.5031 9.53921 22.3039C9.21202 22.2211 8.99904 21.9226 8.92299 21.5937C8.74214 20.8118 8.24987 20.104 7.49999 19.671C6.81091 19.2732 6.02961 19.1798 5.31183 19.3491C4.98373 19.4265 4.62228 19.3679 4.40294 19.1119C3.6019 18.177 2.97044 17.0925 2.55625 15.906C2.43099 15.5472 2.61307 15.167 2.90638 14.9254C3.5742 14.3751 3.99998 13.5417 3.99998 12.6089C3.99998 11.676 3.5742 10.8426 2.90639 10.2924C2.61307 10.0507 2.43099 9.67057 2.55625 9.31176C2.97049 8.12519 3.60204 7.04056 4.40321 6.10556C4.62253 5.8496 4.98394 5.79101 5.31201 5.86837C6.02974 6.03761 6.81097 5.94419 7.49999 5.54639C8.24979 5.11349 8.74203 4.4058 8.92293 3.62397C8.999 3.29518 9.21198 2.99671 9.53914 2.91393C10.3264 2.71472 11.1508 2.60889 11.9999 2.60889C12.8492 2.60889 13.6736 2.71474 14.4609 2.91397Z" stroke="white" stroke-width="1.5"/>
</g>
</g>
</svg>
